<?xml version="1.0" encoding="utf-8"?>
<!-- Generator: Adobe Illustrator 24.3.0, SVG Export Plug-In . SVG Version: 6.00 Build 0)  -->
<svg version="1.1" id="Layer_1" xmlns="http://www.w3.org/2000/svg" xmlns:xlink="http://www.w3.org/1999/xlink" x="0px" y="0px"
	 viewBox="0 0 1288 357.9" style="enable-background:new 0 0 1288 357.9;" xml:space="preserve">
<style type="text/css">
	.st0{fill:#000000;}
	.st1{fill:#EF4335;}
</style>
<path class="st0" d="M342.8,0.7h57.7v356.5h-57.7V0.7z"/>
<path class="st0" d="M601.3,244.2c0,55.2-45.2,60.2-60.2,60.2c-35.2,0-40.2-32.6-40.2-50.2v-138h-57.7v135.5
	c0,32.6,10,62.8,30.1,80.3c17.6,17.6,40.2,25.1,67.8,25.1c20.1,0,45.2-5,60.2-20.1v20.1H659v-241h-57.7V244.2z"/>
<path class="st0" d="M772,28.4h-57.7v87.9h-42.7v55.2h42.7v185.8H772V171.4h42.7v-55.2H772V28.4z"/>
<path class="st0" d="M995.4,284.4c-12.6,10-30.1,17.6-47.7,17.6c-40.2,0-67.8-30.1-67.8-70.3s27.6-67.8,67.8-67.8
	c17.6,0,35.2,5,47.7,17.6l7.5,7.5l40.2-37.6l-10-7.6c-23.5-20.9-53.9-32.6-85.4-32.6c-70.3,0-123,52.8-123,123s52.8,123,123,123
	c31.5-0.1,61.9-11.7,85.4-32.6l10-7.5l-40.2-40.2L995.4,284.4z"/>
<path class="st0" d="M1246.4,136.3c-17.6-17.6-35.2-25.1-62.8-25.1c-20.1,0-40.2,5-55.2,20.1V0.7h-57.8v356.5h57.7v-133
	c0-55.2,37.7-60.3,52.8-60.3c35.2,0,32.6,32.6,32.6,50.2v140.6h57.7v-138C1271.5,184,1264,153.9,1246.4,136.3z"/>
<circle class="st1" cx="945.2" cy="234.2" r="40.2"/>
<path class="st0" d="M262.4,269.3c-20.1,20.1-50.2,32.6-82.8,32.6c-62.8,0-107.9-50.2-107.9-118S116.8,66,182.1,66
	c30.1,0,60.2,12.5,82.8,35.2l7.5,7.5L310.1,71l-7.5-7.5c-31.8-32.2-75.2-50.2-120.4-50.2C86.7,10.8,16.4,86.1,16.4,184
	s70.3,173.2,163.2,173.2c45.2,0,90.4-17.6,120.4-50.2l7.5-7.5l-37.7-37.7L262.4,269.3z"/>
</svg>
