<svg width="70" height="23" viewBox="0 0 70 23" fill="none" xmlns="http://www.w3.org/2000/svg">
<rect width="70" height="23" fill="#096FFA"/>
<path d="M14.753 7.19H10.804V15H12.586V12.217H14.753C16.348 12.217 17.338 11.194 17.338 9.709C17.338 8.224 16.348 7.19 14.753 7.19ZM14.412 8.664C15.116 8.664 15.567 9.038 15.567 9.709C15.567 10.369 15.116 10.743 14.412 10.743H12.575V8.664H14.412ZM21.8354 9.181C21.1094 9.181 20.6804 9.555 20.4054 10.094V9.28H18.8764V15H20.5264V12.294C20.5264 11.304 20.9774 10.71 21.7144 10.71C21.9124 10.71 22.0994 10.743 22.4624 10.831L22.7704 9.379C22.4404 9.269 22.1324 9.181 21.8354 9.181ZM26.6438 13.79C25.7858 13.79 25.2798 13.328 25.1258 12.613H29.1628C29.1738 12.492 29.1848 12.195 29.1848 11.986C29.1848 10.193 28.2498 9.082 26.4678 9.082C24.5978 9.082 23.5308 10.413 23.5308 12.162C23.5308 13.999 24.7078 15.187 26.5998 15.187C27.5128 15.187 28.3268 14.923 29.1848 14.098L28.2828 13.064C27.6778 13.57 27.2818 13.79 26.6438 13.79ZM26.4348 10.369C27.1498 10.369 27.5458 10.787 27.6118 11.458H25.1588C25.3128 10.831 25.7198 10.369 26.4348 10.369ZM37.1456 9.082C36.3096 9.082 35.7926 9.445 35.4626 9.907C35.1656 9.379 34.6156 9.082 33.8896 9.082C33.0756 9.082 32.5586 9.434 32.2616 9.907V9.28H30.7326V15H32.3826V11.568C32.3826 10.974 32.6466 10.512 33.2626 10.512C33.8786 10.512 34.0656 10.93 34.0656 11.48V15H35.7156V11.502C35.7156 10.93 36.0016 10.512 36.5956 10.512C37.2006 10.512 37.3986 10.93 37.3986 11.48V15H39.0486V11.007C39.0486 9.808 38.3666 9.082 37.1456 9.082ZM42.425 7.19H40.775V8.565H42.425V7.19ZM42.425 9.28H40.775V15H42.425V9.28ZM47.677 9.28V12.657C47.677 13.405 47.292 13.746 46.643 13.746C46.049 13.746 45.796 13.416 45.796 12.877V9.28H44.146V13.317C44.146 14.461 44.762 15.187 46.159 15.187C47.039 15.187 47.545 14.824 47.82 14.395V15H49.327V9.28H47.677ZM57.4867 9.082C56.6507 9.082 56.1337 9.445 55.8037 9.907C55.5067 9.379 54.9567 9.082 54.2307 9.082C53.4167 9.082 52.8997 9.434 52.6027 9.907V9.28H51.0737V15H52.7237V11.568C52.7237 10.974 52.9877 10.512 53.6037 10.512C54.2197 10.512 54.4067 10.93 54.4067 11.48V15H56.0567V11.502C56.0567 10.93 56.3427 10.512 56.9367 10.512C57.5417 10.512 57.7397 10.93 57.7397 11.48V15H59.3897V11.007C59.3897 9.808 58.7077 9.082 57.4867 9.082Z" fill="white"/>
</svg>
