<?xml version="1.0" encoding="utf-8"?>
<!-- Generator: Adobe Illustrator 24.3.0, SVG Export Plug-In . SVG Version: 6.00 Build 0)  -->
<svg version="1.1" id="Layer_1" xmlns="http://www.w3.org/2000/svg" xmlns:xlink="http://www.w3.org/1999/xlink" x="0px" y="0px"
	 viewBox="0 0 2745.2 530.6" style="enable-background:new 0 0 2745.2 530.6;" xml:space="preserve">
<style type="text/css">
	.st0{fill:#1877F2;}
</style>
<path class="st0" d="M214.8,90.3c-32.3,0-41.6,14.3-41.6,45.9v52.5h86.2l-8.6,84.7h-77.5v257.2H69.6V273.3H0v-84.7h69.6v-51
	C69.6,52,104,6.9,200.2,6.9c20.1,0,40.2,1.2,60.2,3.6v79.8L214.8,90.3z"/>
<path class="st0" d="M266.5,348.8c0-95.6,45.3-167.4,140.1-167.4c51.7,0,83.3,26.5,98.2,59.6v-52.3H604v341.8h-99.1v-51.7
	c-14.3,32.9-46.7,58.9-98.4,58.9c-94.8,0-140.1-71.9-140.1-167.4L266.5,348.8z M370,371.9c0,51,18.6,84.7,66.8,84.7
	c42.3,0,64-30.9,64-79.8v-34.1c0-48.9-21.5-79.8-64-79.8c-48.2-0.1-66.8,33.5-66.8,84.5V371.9z"/>
<path class="st0" d="M819.5,181.5c40.2,0,78.3,8.6,99.1,23l-23,73.3c-21.6-10.3-45-15.7-68.9-15.8c-56.1,0-80.4,32.3-80.4,87.7v20.1
	c0,55.3,24.4,87.7,80.4,87.7c23.9-0.1,47.4-5.5,68.9-15.8l23,73.2c-21,14.3-58.9,23-99.1,23c-121.5,0-176.8-65.4-176.8-170.2v-15.8
	C642.7,246.8,698.1,181.5,819.5,181.5z"/>
<path class="st0" d="M932.3,372.6v-30c0-97,55.3-160.9,168.2-160.9c106.3,0,152.9,64.7,152.9,159.5v54.6h-217.6
	c2.2,46.7,23,67.5,80.4,67.5c38.9,0,79.8-7.9,109.9-20.9l18.9,70.8c-27.3,14.5-83.3,25.2-132.8,25.2
	C981.1,538.4,932.3,473.1,932.3,372.6z M1035.6,328h125.1v-8.6c0-37.3-15.1-66.9-60.2-66.9C1053.7,252.5,1035.6,282,1035.6,328
	L1035.6,328z"/>
<path class="st0" d="M1636.7,370.4c0,95.6-45.9,167.4-140.7,167.4c-51.7,0-87.7-25.8-102-58.9v51.7h-97.8V16.9l103.6-9.4v228.4
	c15.1-30.1,48.2-54.6,96.3-54.6c94.8,0,140.6,71.9,140.6,167.4V370.4z M1533.4,346.7c0-48.2-18.6-83.9-68.3-83.9
	c-42.3,0-65.4,30.1-65.4,79v35.9c0,48.7,23,79,65.4,79c49.6,0,68.3-35.9,68.3-83.9V346.7z"/>
<path class="st0" d="M1671.4,368.1v-17.3c0-98.4,56.1-169.5,170.2-169.5s170.2,71.1,170.2,169.5v17.3c0,98.4-56.1,169.5-170.2,169.5
	C1727.3,537.8,1671.4,466.5,1671.4,368.1z M1908.4,343.8c0-45.3-18.6-81.1-66.9-81.1s-66.8,35.9-66.8,81.1v31.6
	c0,45.3,18.6,81.1,66.8,81.1s66.9-35.9,66.9-81.1V343.8z"/>
<path class="st0" d="M2046.2,368.1v-17.3c0-98.4,56.1-169.5,170.2-169.5c114.2,0,170.4,71.1,170.4,169.5v17.3
	c0,98.4-56.1,169.5-170.2,169.5C2102.4,537.8,2046.2,466.5,2046.2,368.1z M2283.4,343.8c0-45.3-18.6-81.1-66.8-81.1
	s-66.8,35.9-66.8,81.1v31.6c0,45.3,18.6,81.1,66.8,81.1s66.8-35.9,66.8-81.1V343.8z"/>
<path class="st0" d="M2528.9,351.6l102-163.1h110l-107,168.8l111.4,173.1h-109.9L2529,362.9v167.4h-103.6V16.9l103.5-9.4V351.6z"/>
</svg>
