<?xml version="1.0" encoding="utf-8"?>
<!-- Generator: Adobe Illustrator 24.3.0, SVG Export Plug-In . SVG Version: 6.00 Build 0)  -->
<svg version="1.1" id="Layer_1" xmlns="http://www.w3.org/2000/svg" xmlns:xlink="http://www.w3.org/1999/xlink" x="0px" y="0px"
	 viewBox="0 0 1081.7 357.9" style="enable-background:new 0 0 1081.7 357.9;" xml:space="preserve">
<style type="text/css">
	.st0{fill:#EA4335;}
	.st1{fill:#FBBC05;}
	.st2{fill:#4285F4;}
	.st3{fill:#34A853;}
</style>
<path class="st0" d="M462.9,188.3c0,51.2-40.1,89-89.3,89s-89.2-37.8-89.2-89c0-51.6,40.1-89,89.3-89S462.9,136.7,462.9,188.3z
	 M423.8,188.3c0-32-23.2-53.9-50.2-53.9s-50.2,21.9-50.2,53.9c0,31.6,23.2,53.9,50.2,53.9S423.8,219.9,423.8,188.3L423.8,188.3z"/>
<path class="st1" d="M655.4,188.3c0,51.2-40.1,89-89.3,89c-49.2,0-89.3-37.8-89.3-89c0-51.6,40.1-89,89.3-89
	S655.4,136.7,655.4,188.3z M616.4,188.3c0-32-23.2-53.9-50.2-53.9S516,156.3,516,188.3c0,31.6,23.2,53.9,50.2,53.9
	S616.4,219.9,616.4,188.3z"/>
<path class="st2" d="M840,104.7v159.8c0,65.7-38.8,92.6-84.6,92.6c-43.1,0-69.1-28.8-78.9-52.4l34-14.2
	c6.1,14.5,20.9,31.6,44.8,31.6c29.3,0,47.5-18.1,47.5-52.1V257h-1.3c-8.7,10.8-25.6,20.2-46.9,20.2c-44.5,0-85.2-38.8-85.2-88.6
	c0-50.2,40.8-89.3,85.2-89.3c21.2,0,38.1,9.4,46.9,19.9h1.4v-14.5L840,104.7L840,104.7z M805.6,188.6c0-31.3-20.9-54.2-47.5-54.2
	c-27,0-49.5,22.9-49.5,54.2c0,31,22.6,53.6,49.6,53.6C784.7,242.2,805.6,219.6,805.6,188.6z"/>
<path class="st3" d="M901.1,11v260.8H863V11H901.1z"/>
<path class="st0" d="M1049.7,217.6l30.3,20.2c-9.8,14.5-33.4,39.4-74.1,39.4c-50.6,0-88.3-39.1-88.3-89c0-52.9,38.1-89,83.9-89
	c46.2,0,68.8,36.7,76.2,56.6l4.1,10.1l-119,49.3c9.1,17.9,23.3,27,43.1,27S1039.6,232.4,1049.7,217.6z M956.3,185.5l79.6-33
	c-4.4-11.1-17.6-18.9-33-18.9C983,133.7,955.3,151.2,956.3,185.5z"/>
<path class="st2" d="M140.1,165.1v-37.8h127.2c1.3,7.5,2,15.1,1.9,22.8c0,28.3-7.7,63.3-32.7,88.3c-24.3,25.3-55.3,38.8-96.4,38.8
	C64,277.2,0,215.3,0,139.1S64,0.9,140.2,0.9c42.2,0,72.1,16.5,94.7,38.1l-26.6,26.6c-16.2-15.2-38.1-27-68.1-27
	C84.5,38.6,41,83.4,41,139.1s43.5,100.4,99.1,100.4c36.1,0,56.6-14.5,69.8-27.6c10.7-10.7,17.7-25.9,20.5-46.7H140.1z"/>
</svg>
