<svg width="25" height="22" viewBox="0 0 25 22" fill="none" xmlns="http://www.w3.org/2000/svg">
    <title>Warning</title>
    <desc>An exclamation point within a triangle - used to indicate a warning</desc>
    <path d="M9.91986 2.44147L1.41103 16.5092C0.867393 17.4413 0.864195 18.5721 1.39448 19.4935C1.92475 20.4148 2.90886 20.9883 3.97963 20.9999L21.0083 21C22.0901 20.9883 23.0742 20.4148 23.6045 19.4935C24.1348 18.5721 24.1316 17.4413 23.5961 16.5229L15.0791 2.44147C14.5299 1.54474 13.5529 1 12.4995 1C11.4461 1 10.4691 1.54474 9.92274 2.43674L9.91986 2.44147Z" stroke="black"/>
    <path d="M11.5 8V12C11.5 12.5523 11.9477 13 12.5 13C13.0523 13 13.5 12.5523 13.5 12V8C13.5 7.44772 13.0523 7 12.5 7C11.9477 7 11.5 7.44772 11.5 8Z" fill="black"/>
    <path d="M11.7929 16.7071C12.1834 17.0976 12.8166 17.0976 13.2071 16.7071C13.5976 16.3166 13.5976 15.6834 13.2071 15.2929C12.8166 14.9024 12.1834 14.9024 11.7929 15.2929C11.4024 15.6834 11.4024 16.3166 11.7929 16.7071Z" fill="black"/>
</svg>
