<?xml version="1.0" encoding="UTF-8"?>
<svg width="135px" height="15px" viewBox="0 0 135 15" version="1.1" xmlns="http://www.w3.org/2000/svg" xmlns:xlink="http://www.w3.org/1999/xlink">
    <title>cirrus-md-logo copy</title>
    <g id="Page-1" stroke="none" stroke-width="1" fill="none" fill-rule="evenodd">
        <g id="cirrus-md-logo-copy" fill="#8793B0">
            <path d="M7.22786932,0.480109667 C3.1809375,0.480109667 0.111221591,3.42008746 0.00230113636,7.35005778 L0,7.60580585 C0,11.6220255 3.06051136,14.6482527 7.12125,14.6482527 C9.19457386,14.6482527 10.7202273,14.0962568 12.2244034,12.8047666 C12.389591,12.6652216 12.4847372,12.4624684 12.4851989,12.2490208 C12.4851989,11.8732736 12.1392614,11.5425261 11.7411648,11.5425261 C11.5713331,11.5434808 11.4075898,11.6044853 11.2801705,11.7142748 C9.98002841,12.7837667 8.76272727,13.2390133 7.20178977,13.2390133 C4.15048295,13.2390133 1.76113636,10.7482821 1.76113636,7.56455616 C1.76113636,4.35008044 4.15048295,1.86759919 7.20255682,1.86759919 C8.63079545,1.86759919 9.86573864,2.32284575 11.0884091,3.29258842 C11.2126705,3.38408773 11.374517,3.43508735 11.5670455,3.43508735 C12.0288068,3.43508735 12.3747443,3.10508984 12.3747443,2.66559316 C12.3747443,2.30634587 12.1523011,2.09709745 12.0548864,2.02584799 C10.6358523,0.960856036 9.14778409,0.480109667 7.22863636,0.480109667 L7.22786932,0.480109667 Z M19.9523864,0.627108557 C19.4768182,0.627108557 19.1232102,0.965356002 19.1232102,1.41685259 L19.1232102,13.7167597 C19.1232102,14.1682563 19.4775852,14.5065037 19.9516193,14.5065037 C20.4049432,14.5065037 20.7600852,14.1600063 20.7600852,13.7167597 L20.7600852,1.41760259 C20.7600852,0.974355934 20.4049432,0.627858551 19.9523864,0.627858551 L19.9523864,0.627108557 Z M34.5569318,7.99130294 L30.20625,7.99130294 L30.20625,2.09784745 L34.5323864,2.09784745 C36.7890341,2.09784745 38.1313718,3.18833921 38.1313718,5.01157544 C38.1351989,6.75756225 36.7844318,7.91930348 34.7502273,7.98755296 L34.5584659,7.99130294 L34.5569318,7.99130294 Z M30.205483,9.29554309 L34.2623864,9.29554309 L38.0492898,14.0220074 C38.3100852,14.3685048 38.5662784,14.5072537 38.9390625,14.5072537 C39.3057102,14.5072537 39.7030398,14.2350058 39.7030398,13.8000091 C39.7030398,13.5787607 39.6263352,13.4197619 39.3824148,13.1190142 L36.061108,9.02404514 L36.7583523,8.81404672 C38.1513068,8.39629988 39.8096591,7.37630758 39.8096591,4.90657623 C39.8096591,3.74483501 39.4292045,2.7668424 38.71125,2.04384786 C37.8138068,1.18735433 36.4423295,0.727607798 34.744858,0.727607798 L29.3985511,0.727607798 C28.9283523,0.727607798 28.568608,1.07485518 28.568608,1.53835167 L28.568608,13.7182597 C28.568608,14.1690063 28.92375,14.5080037 29.3977841,14.5080037 C29.851108,14.5080037 30.205483,14.1607563 30.205483,13.7175097 L30.205483,9.29629308 L30.205483,9.29554309 Z M52.936108,7.99055294 L48.5892614,7.99055294 L48.5892614,2.09859744 L52.9153977,2.09859744 C55.1712784,2.09859744 56.5128526,3.18908921 56.5128526,5.01232544 C56.5174432,6.75831225 55.1628409,7.92005347 53.1286364,7.98830296 L52.936108,7.99205293 L52.936108,7.99055294 Z M48.5892614,9.29554309 L52.6453977,9.29554309 L56.4323011,14.0220074 C56.6930966,14.3685048 56.9492898,14.5072537 57.3220739,14.5072537 C57.6887216,14.5072537 58.0860511,14.2350058 58.0860511,13.8000091 C58.0860511,13.5787607 58.0093466,13.4197619 57.7661932,13.1190142 L54.4448864,9.02404514 L55.1413636,8.81404672 C56.5343182,8.39629988 58.1942045,7.37630758 58.1942045,4.90657623 C58.1942045,3.74483501 57.812983,2.77059237 57.0950284,2.04384786 C56.1975852,1.18735433 54.8245739,0.726857804 53.1294034,0.726857804 L47.7815625,0.726857804 C47.3113636,0.726857804 46.9531534,1.07410518 46.9531534,1.53760168 L46.9531534,13.7175097 C46.9531534,14.1682563 47.3067614,14.5072537 47.7815625,14.5072537 C48.2341193,14.5072537 48.5892614,14.1600063 48.5892614,13.7167597 L48.5892614,9.29554309 L48.5892614,9.29554309 Z M65.8953409,0.627108557 C65.4259091,0.627108557 65.0669318,0.965356002 65.0669318,1.41685259 L65.0669318,8.67679776 C65.0669318,12.5175187 67.1517614,14.6317528 70.943267,14.6317528 C74.772358,14.6317528 76.8848011,12.4717691 76.8848011,8.5515487 L76.8848011,1.41685259 C76.8848011,0.97360594 76.528892,0.627108557 76.0763352,0.627108557 C75.6015341,0.627108557 75.2479261,0.965356002 75.2479261,1.41685259 L75.2479261,8.67679776 C75.2479261,11.5642759 73.6915909,13.2195134 70.9854545,13.2195134 C68.3007955,13.2195134 66.7030398,11.4810266 66.7030398,8.57179855 L66.7030398,1.41760259 C66.7030398,0.974355934 66.3478977,0.627858551 65.8953409,0.627858551 L65.8953409,0.627108557 Z M84.2016477,11.5687759 C83.7874432,11.5687759 83.4576136,11.8777736 83.4576136,12.2752706 C83.4576136,12.5085188 83.5726705,12.7267672 83.7613636,12.8602662 L83.7698011,12.8640161 C85.3391761,14.0055075 87.1808523,14.6115029 89.1,14.6115029 C92.0914773,14.6115029 93.9507955,13.1227642 93.9507955,10.7242823 C93.9507955,8.66779783 92.7542045,7.63130566 89.5402841,6.86706143 L89.0601136,6.75306229 L88.6129261,6.63906315 C86.5311648,6.08706732 85.5869318,5.49082182 85.5869318,4.09133239 C85.5869318,2.74134259 86.7965625,1.8263495 88.5231818,1.8263495 C89.7627273,1.8263495 90.9800284,2.21484656 92.2364489,3.01359053 C92.3653125,3.08858997 92.4934091,3.12158972 92.6514205,3.12158972 C93.066392,3.12158972 93.3954545,2.81259205 93.3954545,2.42034501 C93.4042742,2.18684248 93.2909745,1.96499774 93.0947727,1.83159946 L93.066392,1.8135996 C91.69875,0.923356319 90.2797159,0.518359378 88.5661364,0.518359378 C85.8469602,0.518359378 83.9500568,2.0648477 83.9500568,4.27958097 C83.9500568,6.24231615 84.8659091,7.20530887 87.6211364,7.98080302 L88.071392,8.1023021 L88.3084091,8.16230164 L89.0202273,8.33030038 L89.4559091,8.44129954 C91.3505114,8.9490457 92.3139205,9.56029109 92.3139205,10.9335307 C92.3139205,12.3660199 91.0490625,13.3027628 89.1644318,13.3027628 C87.5099148,13.3027628 86.0778409,12.7927667 84.6634091,11.694025 C84.5867045,11.6392754 84.4578409,11.5687759 84.2016477,11.5687759 L84.2016477,11.5687759 Z M115.899034,5.57554349e-05 L115.531619,5.57554349e-05 C114.860455,5.57554349e-05 114.38642,0.276111208 114.039716,0.823607073 L110.001222,7.24730856 L105.98267,0.84385692 C105.679688,0.360110574 105.184943,5.57554349e-05 104.470057,5.57554349e-05 L104.101875,5.57554349e-05 C103.174517,5.57554349e-05 102.439688,0.718607866 102.439688,1.62535102 L102.439688,13.412262 C102.439688,14.2972553 103.15304,14.99475 104.059688,14.99475 C104.966335,14.99475 105.701165,14.2972553 105.701165,13.412262 L105.701165,6.06456749 L108.572983,10.3942848 C108.91892,10.899781 109.350767,11.2177786 109.953665,11.2177786 C110.561165,11.2177786 110.993011,10.899781 111.338949,10.3942848 L114.253722,6.00156796 L114.253722,13.3740123 C114.253722,14.2597556 114.988551,15 115.895199,15 C116.822557,15 117.557482,14.2800054 117.557482,13.3740123 L117.557482,1.62535102 C117.56214,1.19355465 117.389073,0.778034886 117.077148,0.472338592 C116.765223,0.166642298 116.340657,-0.00353708731 115.899034,5.57554349e-05 Z M126.965199,12.0322724 L124.22071,12.0322724 L124.22071,2.77884231 L126.965199,2.77884231 C129.751108,2.77884231 131.696335,4.68082794 131.696335,7.40630735 C131.696335,10.1887863 129.794062,12.0322724 126.965199,12.0322724 Z M126.965199,0.0841126582 L122.728807,0.0841126582 C121.801449,0.0841126582 121.066619,0.802607231 121.066619,1.70935038 L121.066619,13.2442633 C121.066619,14.1517564 121.801449,14.870251 122.728807,14.870251 L126.965199,14.870251 C131.635739,14.870251 134.886477,11.7502745 134.996932,7.6920552 L135,7.43480714 C135,3.27233858 131.717045,0.0841126582 126.965199,0.0841126582 Z" id="Shape"></path>
        </g>
    </g>
</svg>