<?xml version="1.0" encoding="UTF-8"?>
<svg width="135px" height="48px" viewBox="0 0 135 48" version="1.1" xmlns="http://www.w3.org/2000/svg" xmlns:xlink="http://www.w3.org/1999/xlink">
    <title>Logo-Color Copy</title>
    <g id="Page-1" stroke="none" stroke-width="1" fill="none" fill-rule="evenodd">
        <g id="Logo-Color-Copy" fill="#8793B0" fill-rule="nonzero">
            <g id="Group" transform="translate(104.000000, 0.000000)">
                <path d="M10.1653453,19.6833272 C10.1653453,20.0840905 10.1653453,20.2844723 10.0836303,20.4347585 C10.0182583,20.5516479 9.88751435,20.6685372 9.77311335,20.7186326 C9.60968338,20.7854265 9.4299104,20.768728 9.08670738,20.7353311 C8.12247043,20.6351402 7.17457649,20.3846631 6.27571158,20.0005982 C5.03364366,19.4829454 3.92231973,18.7148157 2.9744258,17.7463041 C2.02653186,16.7777926 1.27475392,15.6255978 0.768120948,14.3732122 C0.261487982,13.1041281 0,11.7515516 0,10.3822767 C0,5.00536782 3.98769173,0.580271999 9.10305039,0.0292223309 C9.44625334,-0.00417461869 9.62602632,-0.0208730935 9.78945636,0.0459208057 C9.92020031,0.0960162299 10.0346013,0.212905554 10.0999733,0.329794877 C10.1816883,0.496779625 10.1816883,0.680462848 10.1816883,1.08122625 L10.1816883,19.6833272 L10.1653453,19.6833272 Z" id="Path"></path>
                <path d="M15.8853949,20.1007891 C15.591221,20.3512661 15.444134,20.4848539 15.264361,20.5182509 C15.133617,20.5349494 14.970187,20.5182509 14.839443,20.451457 C14.676013,20.3679647 14.577955,20.2176783 14.381839,19.9171058 C13.8425201,19.0988805 13.4176021,18.1971629 13.1234281,17.2453499 C12.7148532,15.9428688 12.5677661,14.5735939 12.6985101,13.204319 C12.8129111,11.835044 13.1888001,10.5158645 13.809834,9.29687587 C14.430868,8.07788715 15.280704,7.00918481 16.2939699,6.12416563 C20.3143476,2.66758135 26.1978273,2.95145542 29.907688,6.59172293 C30.169176,6.84220004 30.283577,6.9590894 30.3326059,7.1427726 C30.365292,7.27636039 30.365292,7.44334515 30.3162629,7.57693295 C30.250891,7.7439177 30.1038039,7.8775055 29.80963,8.12798264 L15.8853949,20.1007891 Z" id="Path"></path>
                <path d="M27.7667551,13.5883838 C28.0609291,13.3379068 28.2080161,13.204319 28.3877891,13.170922 C28.5185331,13.1542235 28.681963,13.170922 28.8127071,13.2377159 C28.976137,13.3212082 29.074195,13.4714946 29.270311,13.7720671 C29.80963,14.5902924 30.234548,15.49201 30.5287219,16.443823 C30.9372969,17.7463041 31.0843839,19.115579 30.9536399,20.4848539 C30.8392389,21.8541289 30.46335,23.1733084 29.842316,24.392297 C29.221282,25.6112857 28.3714461,26.6799881 27.3581801,27.5650073 C23.3378024,31.0215915 17.4543228,30.7377175 13.7444621,27.09745 C13.4829741,26.8469728 13.3685731,26.7300835 13.3195441,26.5464003 C13.2868581,26.4128125 13.2868581,26.2458277 13.3358871,26.11224 C13.4012591,25.9452552 13.5483461,25.8116674 13.8425201,25.5611903 L27.7667551,13.5883838 Z" id="Path"></path>
            </g>
            <g id="Group" transform="translate(0.000000, 26.000000)">
                <path d="M18.5042526,15.2054405 C17.370333,15.2054405 16.2528471,14.8671839 15.2996973,14.2551005 C14.3465476,13.6269096 13.6234684,12.7571069 13.1797607,11.7262295 C12.7524867,10.6953522 12.6374513,9.56783016 12.8510884,8.47252295 C13.0647254,7.37721581 13.6234684,6.37855342 14.4287156,5.58928797 C15.2339628,4.80002253 16.2528471,4.26847641 17.370333,4.04297199 C18.487819,3.81746758 19.6381722,3.93021979 20.6899236,4.36512116 C21.7416751,4.80002253 22.645524,5.50875068 23.2700015,6.44298325 C23.8944789,7.37721581 24.2395849,8.45641552 24.2395849,9.5839376 C24.2395849,11.0819312 23.631541,12.515495 22.5469224,13.5785872 C21.4951709,14.6094645 20.032579,15.2054405 18.5042526,15.2054405 Z M18.5042526,6.13694155 C17.8140407,6.13694155 17.1402624,6.34633851 16.5650858,6.71681001 C15.9899092,7.08728156 15.5462016,7.6188277 15.2832637,8.24701857 C15.0203258,8.87520943 14.9545913,9.55172266 15.0860603,10.2282359 C15.2175292,10.8886417 15.5462016,11.5007251 16.0392101,11.9839488 C16.5322186,12.4671726 17.1402624,12.7893218 17.8304743,12.9181815 C18.5042526,13.0470411 19.2108982,12.9826113 19.8518092,12.7248919 C20.4927202,12.4671726 21.0350296,12.0322712 21.4130028,11.4685102 C21.7909759,10.9047492 22.004613,10.2443434 22.004613,9.56783016 C22.004613,8.66581248 21.6266398,7.79600972 20.9857288,7.15171142 C20.3119505,6.50741309 19.4245351,6.13694155 18.5042526,6.13694155 L18.5042526,6.13694155 Z" id="Shape"></path>
                <path d="M55.1676518,11.8873041 C54.7239442,12.3866353 54.1487676,12.7409994 53.5078565,12.9181815 C52.8669454,13.1114709 52.1767336,13.1114709 51.5358225,12.9342889 C50.8949114,12.7571069 50.3033012,12.4188502 49.8595936,11.9356265 C49.3994523,11.4524028 49.1036472,10.8564268 48.9721782,10.2121285 L58.2078709,10.2121285 C58.2407382,9.98662408 58.2407382,9.76111962 58.2407382,9.55172266 C58.2407382,8.15037384 57.7148625,6.81345481 56.7617127,5.76647002 C55.8085629,4.73559269 54.5103071,4.07518691 53.0805825,3.91411233 C51.6672914,3.76914521 50.2375668,4.13961674 49.0872136,4.94498965 C47.9368604,5.76647002 47.1316132,6.9584219 46.8193745,8.32755586 C46.5235694,9.69668982 46.7372064,11.1141461 47.4438519,12.3222055 C48.1504974,13.5302648 49.284417,14.4483899 50.6319736,14.8832914 C51.9795302,15.3181927 53.4585557,15.2537628 54.7568114,14.7061093 C56.0550671,14.1423483 57.1068186,13.1436858 57.6984288,11.8711967 L55.1676518,11.8873041 Z M52.4889723,6.0402968 C53.2284851,6.0402968 53.9515642,6.26580122 54.559608,6.68459513 C55.1676518,7.10338906 55.6277931,7.699365 55.8742974,8.39198573 L49.1036472,8.39198573 C49.3501514,7.699365 49.8102928,7.10338906 50.4183365,6.68459513 C51.0263804,6.26580122 51.7494595,6.0402968 52.4889723,6.0402968 Z" id="Shape"></path>
                <path d="M35.2829754,15.2054405 L33.0151363,15.2054405 L33.0151363,8.82688707 C33.0151363,7.34500088 31.8976503,6.13694155 30.5172265,6.13694155 C29.1368027,6.13694155 28.0193168,7.34500088 28.0193168,8.82688707 L28.0193168,15.2054405 L25.7514776,15.2054405 L25.7514776,8.82688707 C25.7514776,6.12083409 27.8878478,3.91411233 30.5172265,3.91411233 C33.1466052,3.91411233 35.2829754,6.12083409 35.2829754,8.82688707 L35.2829754,15.2054405 Z" id="Path"></path>
                <path d="M61.9876028,15.2054405 L59.7197637,15.2054405 L59.7197637,8.82688707 C59.7197637,7.52218297 60.2456394,6.28190868 61.1823556,5.34767611 C62.1190717,4.42955099 63.4008939,3.91411233 64.7155832,3.91411233 C65.455096,3.91411233 66.1617415,4.07518691 66.8355198,4.36512116 L65.88237,6.37855342 C65.4715296,6.18526393 64.9949547,6.10472664 64.5348134,6.13694155 C64.0746722,6.16915647 63.6309645,6.31412359 63.2365577,6.55573546 C62.8421509,6.79734731 62.5299122,7.13560392 62.3162751,7.5382904 C62.1026382,7.94097688 61.9876028,8.37587823 61.9876028,8.82688707 L61.9876028,15.2054405 L61.9876028,15.2054405 Z" id="Path"></path>
                <path d="M114,6.16915647 L114,3.94632725 L111.748595,3.94632725 L111.748595,0.338256621 L109.480756,0.338256621 L109.480756,12.2255607 C109.497189,13.0309336 109.842295,13.8040916 110.433905,14.3678526 C111.025516,14.9316137 111.830763,15.2376554 112.652443,15.221548 L113.983567,15.221548 L113.983567,12.9987188 L112.652443,12.9987188 C112.422373,13.0148262 112.208736,12.9342889 112.027966,12.7893218 C111.86363,12.6443546 111.748595,12.4349577 111.732161,12.2094533 L111.732161,6.15304901 L114,6.15304901 L114,6.16915647 Z" id="Path"></path>
                <path d="M102.77584,3.91411233 C101.888425,3.91411233 101.017443,4.17183166 100.27793,4.63894794 L100.27793,0.338256621 L98.010091,0.338256621 L98.010091,15.2054405 L100.27793,15.2054405 L100.27793,8.81077964 C100.27793,7.32889345 101.411849,6.12083409 102.77584,6.12083409 C104.13983,6.12083409 105.27375,7.32889345 105.27375,8.81077964 L105.27375,15.189333 L107.541774,15.189333 L107.541774,8.81077964 C107.558023,6.12083409 105.405218,3.91411233 102.77584,3.91411233 Z" id="Path"></path>
                <polygon id="Path" points="83.0883669 4.13961674 80.8205279 4.13961674 80.8205279 15.2054405 83.0883669 15.2054405"></polygon>
                <path d="M81.9544474,2.9637723 C82.7103935,2.9637723 83.3184378,2.36779635 83.3184378,1.62685327 C83.3184378,0.8859102 82.7103935,0.289934247 81.9544474,0.289934247 C81.1985013,0.289934247 80.5904569,0.8859102 80.5904569,1.62685327 C80.5740238,2.35168889 81.1985013,2.9637723 81.9544474,2.9637723 Z" id="Path"></path>
                <path d="M73.2281965,15.9947059 C71.4533664,15.9947059 69.9414735,15.4631598 68.873288,14.4806049 C68.0187403,13.6913394 67.4764308,12.6443546 67.3120947,11.5168326 L69.4155977,10.9208566 C69.6456686,12.4027427 70.7631543,14.0134886 73.2281965,14.0134886 C75.1180628,14.0134886 76.3341501,13.079256 76.3341501,11.6295848 C76.3341501,10.4698478 75.4796023,9.60004503 74.0334441,9.29400334 L71.7820383,8.8429945 C69.349863,8.34366329 67.9037049,6.78123988 67.9037049,4.62284048 C67.9037049,2.0778621 70.2372784,0 73.0967279,0 C77.0900968,0 78.1418485,2.60940822 78.4047858,3.67250045 L76.3834509,4.30069133 C76.1040798,3.15706179 75.1180628,1.93289498 73.1131617,1.93289498 C71.4697995,1.93289498 70.1715438,3.02820213 70.1715438,4.41344353 C70.1715438,5.55707306 70.9110567,6.36244597 72.1928786,6.63627276 L74.4771515,7.08728156 C77.073663,7.60272027 78.6350039,9.22957355 78.6350039,11.4362953 C78.6512905,14.4322825 75.9233097,15.9947059 73.2281965,15.9947059 Z" id="Path"></path>
                <path d="M96.3009949,9.55172266 C96.3009949,8.31144843 95.8901545,7.11949649 95.1177746,6.13694155 C94.3618278,5.1543866 93.2772091,4.44565845 92.0611218,4.10740182 C90.8450338,3.76914521 89.5467781,3.8496825 88.3799916,4.31679878 C87.2132044,4.78391507 86.2271874,5.60539543 85.5862768,6.66848767 C84.9453655,7.73157993 84.6659944,8.97185416 84.797463,10.196021 C84.9453655,11.4201878 85.4876751,12.5799248 86.3586567,13.465835 C87.2296383,14.3517452 88.3799916,14.9477211 89.6289466,15.1410107 C90.8779015,15.3343001 92.1432896,15.1249032 93.260776,14.5450347 C93.6223155,14.9316137 93.8688196,15.39873 94.0002882,15.9141686 C94.1317575,16.4134998 94.1317575,16.945046 94.0002882,17.4604846 C93.8688196,17.9598158 93.6223155,18.4430396 93.2772091,18.8296186 C92.9321034,19.2161976 92.4719622,19.5222392 91.9789533,19.6994213 C91.4859452,19.8766034 90.9436355,19.9410332 90.4177603,19.8927108 C89.8918845,19.828281 89.3824425,19.6349915 88.9387344,19.3450572 C88.4950271,19.055123 88.1499207,18.6524366 87.9034166,18.1853202 C87.6569125,17.7182039 87.5254432,17.2027653 87.5254432,16.6873267 L85.3890735,16.6873267 C85.3890735,17.5410219 85.6027106,18.3947172 86.013551,19.1517678 C86.4243914,19.9088183 86.999568,20.5531166 87.7226471,21.0524478 C88.4457262,21.5356716 89.267407,21.8578207 90.1383886,21.9544655 C91.0093701,22.0672176 91.8803517,21.9705729 92.7020324,21.6645312 C93.5237139,21.374597 94.2632261,20.8752658 94.8384028,20.2470749 C95.4300133,19.618884 95.8408537,18.845726 96.0709239,18.0242457 C96.284561,17.2027653 96.3009949,16.3329625 96.1037916,15.4953747 C95.9065883,14.6577869 95.5121811,13.8846289 94.9370044,13.2403306 C95.8244198,12.1772384 96.3174287,10.8886417 96.3009949,9.55172266 Z M87.065302,9.55172266 C87.065302,8.87520943 87.2789391,8.21480363 87.6569125,7.65104263 C88.0348859,7.08728156 88.5936287,6.65238021 89.2181062,6.39466088 C89.8590168,6.13694155 90.5492289,6.07251172 91.2394411,6.20137139 C91.9132194,6.33023105 92.5376968,6.65238021 93.030705,7.13560392 C93.5237139,7.6188277 93.8523858,8.21480363 93.9838551,8.89131687 C94.1153237,9.55172266 94.0495893,10.2443434 93.7866518,10.8725343 C93.5237139,11.5007251 93.0800058,12.0322712 92.5048292,12.4027427 C91.9296525,12.7732143 91.2558742,12.9826113 90.5656628,12.9826113 C89.6453797,12.9826113 88.757965,12.6282472 88.1006198,11.9839488 C87.4268415,11.3235431 87.065302,10.4537404 87.065302,9.55172266 Z" id="Shape"></path>
                <path d="M11.322762,12.8537516 C10.4353467,13.4014052 9.41646245,13.7235543 8.34827734,13.7557693 C7.29652586,13.7879841 6.24477441,13.5463723 5.32449187,13.0470411 C4.40420932,12.5477099 3.63182933,11.8228742 3.08951997,10.9369641 C2.54721062,10.0510539 2.26783913,9.03628402 2.26783913,8.00540668 C2.26783913,6.9745294 2.54721062,5.95975951 3.08951997,5.07384931 C3.63182933,4.18793912 4.40420932,3.44699605 5.32449187,2.9637723 C6.24477441,2.4644411 7.29652586,2.22282922 8.34827734,2.25504414 C9.40002882,2.28725905 10.4189131,2.59330076 11.322762,3.15706179 L11.322762,0.644298325 C10.0738071,0.128859665 8.72625053,-0.0644298325 7.39512756,0.0483223745 C6.04757101,0.177182039 4.76574889,0.612083409 3.64826294,1.35302648 C2.530777,2.0778621 1.61049445,3.0765245 0.969583393,4.23626149 C0.328672337,5.39599848 0,6.70070259 0,8.02151418 C0,9.34232571 0.328672337,10.6470298 0.969583393,11.8067668 C1.61049445,12.9665038 2.530777,13.9651662 3.64826294,14.6900018 C4.76574889,15.4148374 6.06400463,15.8658463 7.39512756,15.9947059 C8.74268415,16.1235656 10.0902407,15.9141686 11.322762,15.39873 L11.322762,12.8537516 Z" id="Path"></path>
                <path d="M44.3214647,4.02686453 L41.2483783,12.5316024 L38.1424248,4.02686453 L35.7266831,4.02686453 L39.3256452,13.9329513 L39.3420788,13.9973811 C39.506415,14.3678526 39.7529192,14.6738944 40.0980251,14.8832914 C40.4266975,15.1087957 40.8211043,15.221548 41.2319448,15.221548 C41.6263515,15.221548 42.0207583,15.1087957 42.3658643,14.8832914 C42.6945366,14.6577869 42.9574745,14.3517452 43.1218107,13.9973811 L46.7207728,4.04297199 L44.3214647,4.02686453 Z" id="Path"></path>
            </g>
        </g>
    </g>
</svg>