<?xml version="1.0" encoding="UTF-8"?>
<svg width="135px" height="43px" viewBox="0 0 135 43" version="1.1" xmlns="http://www.w3.org/2000/svg" xmlns:xlink="http://www.w3.org/1999/xlink">
    <title>google white</title>
    <g id="Page-1" stroke="none" stroke-width="1" fill="none" fill-rule="evenodd" opacity="0.7">
        <g id="google-white" fill="#FFFFFF" fill-rule="nonzero">
            <path d="M17.1844856,32.9883231 C7.80768989,33.0185377 0.148630418,25.6676848 0,16.4952567 C0.148630418,7.32282868 7.80768989,-0.0280529722 17.1844856,0.00219119225 C21.5218857,-0.068473193 25.7056047,1.57257177 28.7917047,4.5550588 L25.5141634,7.72611994 C23.2794491,5.62095889 20.2865611,4.4624822 17.1844856,4.5019094 C13.9400834,4.49219433 10.8272476,5.75609367 8.54328664,8.01048537 C6.25935872,10.2649222 4.99521229,13.3213674 5.03402206,16.4952567 C4.99521229,19.6691461 6.25935872,22.7255913 8.54328664,24.9800281 C10.8272476,27.2344005 13.9400834,28.4983256 17.1844856,28.4885976 C20.3842622,28.6171226 23.4899025,27.413369 25.7314823,25.1758112 C27.2090132,23.6166975 28.0971688,21.610098 28.2484735,19.4891467 L17.1844856,19.4891467 L17.1844856,15.0071378 L32.7573786,15.0071378 C32.9272333,15.9366404 33.0060543,16.8798007 32.9927854,17.8239275 C33.1153739,21.7116295 31.6716423,25.4907778 28.9727818,28.3468659 C25.9006108,31.469152 21.610939,33.1581435 17.1844856,32.9883231 Z" id="Path"></path>
            <path d="M56.9911224,22.9999677 C57.1492631,26.8752332 55.1849419,30.5262179 51.8739118,32.5112362 C48.5628173,34.4962546 44.4372402,34.4962546 41.1261456,32.5112362 C37.8151155,30.5262179 35.8507944,26.8752332 36.0088706,22.9999677 C35.8507944,19.1247668 37.8151155,15.4737821 41.1261456,13.4887638 C44.4372402,11.5037454 48.5628173,11.5037454 51.8739118,13.4887638 C55.1849419,15.4737821 57.1492631,19.1247668 56.9911224,22.9999677 Z M52.3951832,22.9999677 C52.6078418,20.7461616 51.5330781,18.5657142 49.6212127,17.372439 C47.7093474,16.1791639 45.2907101,16.1791639 43.3788447,17.372439 C41.4669794,18.5657142 40.3921512,20.7461616 40.6048098,22.9999677 C40.3921512,25.2538384 41.4669794,27.4342858 43.3788447,28.627561 C45.2907101,29.8208361 47.7093474,29.8208361 49.6212127,28.627561 C51.5330781,27.4342858 52.6078418,25.2538384 52.3951832,22.9999677 Z" id="Shape"></path>
            <path d="M80.9911499,22.9999677 C81.1490305,26.8752332 79.1848665,30.5262179 75.873884,32.5112362 C72.5629014,34.4962546 68.4373837,34.4962546 65.126079,32.5112362 C61.815032,30.5262179 59.8507391,26.8752332 60.0088775,22.9999677 C59.8507391,19.1247668 61.815032,15.4737821 65.126079,13.4887638 C68.4373837,11.5037454 72.5629014,11.5037454 75.873884,13.4887638 C79.1848665,15.4737821 81.1490305,19.1247668 80.9911499,22.9999677 Z M76.3952123,22.9999677 C76.5666256,20.767574 75.4807934,18.6266524 73.5830037,17.4575066 C71.685214,16.2883609 69.2963833,16.2883609 67.3992379,17.4575066 C65.5015127,18.6266524 64.4152939,20.767574 64.5870938,22.9999677 C64.4152939,25.232426 65.5015127,27.3733476 67.3992379,28.5424934 C69.2963833,29.7116391 71.685214,29.7116391 73.5830037,28.5424934 C75.4807934,27.3733476 76.5666256,25.232426 76.3952123,22.9999677 Z" id="Shape"></path>
            <path d="M104,12.6790159 L104,31.8701446 C104,39.7534883 99.3189879,42.9998476 93.8023356,42.9998476 C89.6494377,43.0224591 85.8948962,40.527923 84.2988754,36.6857148 L88.4102509,34.9021799 C89.2569204,37.1383765 91.3635381,38.6441786 93.7491349,38.7189628 C97.308391,38.7189628 99.4792388,36.525185 99.4792388,32.4408525 L99.4792388,30.9070306 L99.3728374,30.9070306 C97.9318772,32.536392 95.8499135,33.449304 93.6777682,33.4039665 C87.7802768,33.4039665 83,28.6128487 83,22.7026273 C83,16.7924059 87.7802768,12.0012882 93.6777682,12.0012882 C95.8414792,11.9612044 97.916955,12.8582255 99.3728374,14.4625508 L99.5330882,14.4625508 L99.5330882,12.6790159 L104,12.6790159 Z M99.8529412,22.7739739 C99.9852941,21.140202 99.4493945,19.5226452 98.3691609,18.2919814 C97.2889273,17.0613177 95.7564879,16.3230103 94.1228374,16.2461505 C92.4632353,16.3060168 90.8977076,17.0308981 89.7772491,18.258254 C88.6561419,19.4855449 88.0735294,21.1124417 88.1604671,22.7739739 C88.08391,24.4242853 88.6717128,26.0363289 89.7934689,27.2472751 C90.9145761,28.4582861 92.4749135,29.1665631 94.1228374,29.2126141 C95.75,29.1546936 97.2830882,28.4320176 98.3652682,27.2125098 C99.4480969,25.9930021 99.9852941,24.3828394 99.8529412,22.7561373 L99.8529412,22.7739739 Z" id="Shape"></path>
            <polygon id="Path" points="112 1 112 33 107 33 107 1"></polygon>
            <path d="M131.032503,25.8927881 L134.764248,28.343154 C132.740877,31.2608442 129.341958,33.0080594 125.707286,32.9989573 C122.830058,33.0387391 120.061791,31.9386619 118.046344,29.9546656 C116.030898,27.970733 114.94327,25.2758843 115.037703,22.4972075 C114.599218,17.6034137 118.029835,13.1703246 123.01232,12.1940482 C127.994805,11.2177719 132.94229,14.0091152 134.510667,18.6815314 L135,19.8892422 L120.5082,25.6827404 C121.432057,27.6892054 123.526747,28.9505738 125.797757,28.8682733 C127.958484,28.8209171 129.940252,27.6948067 131.032503,25.8927881 Z M119.602834,22.11212 L129.347901,18.2264916 C128.551496,16.8023681 126.961327,15.965487 125.290593,16.0911337 C123.70967,16.1591765 122.221198,16.8321566 121.154041,17.9617042 C120.086885,19.0912518 119.528873,20.5845002 119.602834,22.11212 Z" id="Shape"></path>
        </g>
    </g>
</svg>