<svg xmlns="http://www.w3.org/2000/svg" width="78" height="70" viewBox="0 0 78 70">
    <defs>
        <linearGradient id="djxoog460a" x1="0%" x2="50%" y1="100%" y2="50%">
            <stop offset="0%" stop-color="#9428EF" stop-opacity="0"/>
            <stop offset="100%" stop-color="#A56FEF"/>
        </linearGradient>
    </defs>
    <g fill="none" fill-rule="evenodd">
        <g>
            <g>
                <g transform="translate(-216 -3123) translate(135 3123) translate(81)">
                    <circle cx="42.778" cy="35" r="35" fill="url(#djxoog460a)" opacity=".15"/>
                    <g fill="#9428EF" fill-rule="nonzero">
                        <path d="M3.195 0C1.44 0 0 1.44 0 3.195v17.721c0 1.755 1.44 3.195 3.195 3.195h6.138c.28.004.542-.143.683-.386.142-.242.142-.541 0-.784-.141-.242-.402-.39-.683-.385H3.195c-.915 0-1.64-.725-1.64-1.64V3.195c0-.915.725-1.64 1.64-1.64h17.721c.915 0 1.64.725 1.64 1.64v6.138c-.004.28.143.542.385.683.243.142.542.142.784 0 .243-.141.39-.402.386-.683V3.195C24.111 1.44 22.671 0 20.916 0H3.195zm18.583 11.667c-.437 0-.778.35-.778.777 0 .428.341.778.778.778.428 0 .778-.35.778-.778 0-.427-.35-.777-.778-.777zm3.11 0c-.428 0-.777.35-.777.777 0 .428.35.778.778.778.435 0 .778-.35.778-.778 0-.427-.343-.777-.778-.777zm3.112 0c-.429 0-.778.35-.778.777 0 .428.35.778.778.778.428 0 .778-.35.778-.778 0-.427-.35-.777-.778-.777zm-9.166.17c-.1-.02-.204-.02-.309.001-.427.086-.692.49-.613.91.077.374.404.63.77.63.047 0 .101-.008.149-.016.42-.086.69-.498.606-.918-.06-.315-.306-.547-.603-.607zm12.016.14c-.3.036-.562.245-.649.56-.124.412.117.84.529.957.07.023.14.032.217.032.334 0 .645-.218.746-.56.117-.413-.116-.84-.536-.965-.103-.03-.207-.036-.307-.024zm-15.14 1.04c-.099.02-.197.06-.287.12-.357.241-.45.722-.21 1.08.156.218.397.344.646.344.157 0 .304-.047.436-.133.358-.24.452-.731.21-1.081-.18-.269-.497-.389-.794-.33zm17.864.374c-.199.02-.39.115-.526.282-.265.335-.218.825.117 1.097.148.117.318.172.49.172.225 0 .451-.102.607-.289.272-.334.218-.824-.117-1.097-.167-.132-.373-.186-.571-.165zm-19.72 1.801c-.297-.053-.612.072-.787.34-.24.359-.14.84.218 1.073.132.094.28.132.428.132.257 0 .506-.123.653-.349.233-.366.132-.848-.226-1.082-.09-.058-.187-.096-.286-.114zm21.682.543c-.1.01-.2.04-.296.092-.381.203-.513.677-.31 1.05.14.265.41.413.684.413.124 0 .249-.032.373-.094.374-.21.514-.684.312-1.057-.158-.286-.46-.436-.763-.404zm-22.82 2.294c-.42-.078-.831.202-.91.622-.077.42.202.833.622.91.055.008.101.008.149.008.364 0 .69-.257.76-.63.078-.428-.2-.833-.62-.91zm23.765.645c-.427.04-.738.42-.699.848.046.404.38.7.777.7h.077c.428-.046.74-.427.693-.855-.04-.428-.42-.74-.848-.693zM12.444 21c-.427 0-.777.35-.777.778 0 .428.35.778.777.778.428 0 .778-.35.778-.778 0-.428-.35-.778-.778-.778zm24.112.778c-.428 0-.778.342-.778.778 0 .007.004.012.004.02-.131-.005-.26-.02-.393-.02-7.079 0-12.833 5.754-12.833 12.833 0 .133.015.262.02.393-.008 0-.013-.004-.02-.004-.436 0-.778.35-.778.778 0 .427.342.777.778.777.055 0 .105-.02.158-.032.927 6.172 6.248 10.921 12.675 10.921 7.078 0 12.833-5.755 12.833-12.833 0-6.427-4.749-11.748-10.92-12.675.01-.053.031-.103.031-.158 0-.436-.35-.778-.777-.778zM12.444 24.11c-.427 0-.777.35-.777.778 0 .435.35.785.777.785.428 0 .778-.35.778-.785 0-.428-.35-.778-.778-.778zm22.945 0c6.238 0 11.278 5.04 11.278 11.278s-5.04 11.278-11.278 11.278-11.278-5.04-11.278-11.278S29.151 24.11 35.39 24.11zm-22.945 3.111c-.427 0-.777.35-.777.778 0 .428.35.778.777.778.428 0 .778-.35.778-.778 0-.428-.35-.778-.778-.778zm.417 3.066c-.101-.01-.206-.001-.309.03-.403.125-.638.56-.513.965.101.342.414.551.747.551.071 0 .147-.007.225-.03.412-.125.638-.56.514-.972-.094-.31-.362-.514-.664-.544zm1.447 2.684c-.197-.017-.401.04-.565.176-.334.272-.375.763-.102 1.097.147.187.374.281.599.281.172 0 .35-.063.498-.18.327-.28.374-.77.102-1.096h-.01c-.135-.167-.324-.26-.522-.278zm2.373 1.925c-.303-.026-.607.129-.753.414-.202.382-.054.848.326 1.05.11.055.235.085.359.085.28 0 .552-.147.693-.411.194-.382.046-.856-.327-1.05-.096-.05-.197-.08-.298-.088zm2.935.858c-.428-.039-.809.28-.84.708-.039.428.28.801.708.84h.062c.405 0 .74-.304.778-.708.039-.428-.28-.809-.708-.84z" transform="translate(0 14.778)"/>
                    </g>
                </g>
            </g>
        </g>
    </g>
</svg>
