<svg xmlns="http://www.w3.org/2000/svg" width="79" height="70" viewBox="0 0 79 70">
    <defs>
        <linearGradient id="v8xgplkbba" x1="0%" x2="50%" y1="100%" y2="50%">
            <stop offset="0%" stop-color="#9428EF" stop-opacity="0"/>
            <stop offset="100%" stop-color="#A56FEF"/>
        </linearGradient>
        <linearGradient id="wy0pt3v4db" x1="-11.887%" x2="53.232%" y1="81.936%" y2="10.155%">
            <stop offset="0%" stop-color="#2763E1"/>
            <stop offset="100%" stop-color="#9428EF"/>
        </linearGradient>
    </defs>
    <g fill="none" fill-rule="evenodd">
        <g>
            <g>
                <g transform="translate(-1146 -1374) translate(135 1374) translate(1011)">
                    <circle cx="42.778" cy="35" r="35" fill="url(#v8xgplkbba)" opacity=".15"/>
                    <g fill="url(#wy0pt3v4db)" transform="translate(0 7.778)">
                        <path d="M21 .005c-.765 0-1.53.289-2.11.868l-1.578 1.58-2.063-.855h-.002c-1.514-.626-3.27.1-3.898 1.615l-.004.007-.863 2.224H8.429c-1.638 0-2.985 1.346-2.985 2.985v2.053l-2.222.864-.008.003c-1.514.628-2.243 2.385-1.616 3.9l.855 2.063L.875 18.89c-1.16 1.159-1.16 3.061-.002 4.22l1.579 1.578-.855 2.063v.002c-.627 1.514.102 3.27 1.616 3.898l.007.003 2.224.864v2.83c0 1.64 1.346 2.985 2.985 2.985h1.682v17.549L21 49.857l10.889 5.025V37.333h1.68c1.692 0 2.859-1.525 2.859-3.11v-2.696l2.344-.87.014-.006c1.514-.628 2.243-2.385 1.616-3.9l-.855-2.063 1.578-1.578c1.159-1.159 1.159-3.061 0-4.22l-1.578-1.578.855-2.063v-.002c.626-1.514-.102-3.27-1.616-3.898l-.008-.003-2.222-.864V8.429c0-1.638-1.346-2.985-2.985-2.985h-2.053l-.864-2.224-.003-.007c-.628-1.514-2.385-2.242-3.9-1.615l-2.063.855L23.11.873C22.53.294 21.765.005 21 .005zm0 1.546c.364 0 .728.142 1.01.424l2.314 2.312 3.023-1.252c.738-.306 1.56.035 1.867.773L30.454 7h3.117C34.37 7 35 7.63 35 8.43v3.115l3.19 1.241c.738.306 1.08 1.129.775 1.867l-1.253 3.023 2.313 2.314c.565.564.565 1.456 0 2.02l-2.313 2.314 1.253 3.023c.305.737-.037 1.559-.773 1.865l-3.32 1.234v3.776c0 .852-.56 1.556-1.303 1.556h-2.895l-1.436 2.357-.024.055c-.306.738-1.129 1.08-1.867.775l-3.023-1.253-2.314 2.313c-.564.565-1.456.565-2.02 0l-2.314-2.313-3.023 1.253c-.738.306-1.56-.037-1.867-.775l-.016-.038-1.295-2.374H8.43c-.798 0-1.429-.631-1.429-1.43v-3.893l-3.192-1.241c-.738-.306-1.08-1.129-.774-1.867l1.253-3.023-2.314-2.314c-.564-.564-.563-1.455.002-2.02l2.313-2.314-1.253-3.023c-.306-.738.037-1.56.775-1.867L7 11.546V8.428C7 7.631 7.632 7 8.43 7h3.117l1.24-3.192c.305-.738 1.128-1.078 1.866-.773l3.023 1.252 2.314-2.312c.282-.282.646-.424 1.01-.424zm.878 4.715l-.623.313-.123.685.476.51.27.048.623-.312.123-.686-.476-.51-.27-.048zm-3.501.21l-.623.313-.123.685.477.509.269.048.624-.31.121-.688-.475-.508-.27-.05zm6.948.434l-.623.313-.123.685.475.51.27.048.624-.311.123-.687-.476-.509-.27-.049zm-10.28.657l-.623.311-.123.687.476.509.27.048.623-.313.123-.685-.477-.51-.269-.047zm13.45.844l-.623.313-.123.685.476.51.27.048.623-.312.123-.686-.475-.51-.27-.048zM12.077 9.435l-.623.313-.123.685.475.51.27.048.624-.312.123-.686-.477-.51-.27-.048zm19.118 1.212l-.623.313-.123.687.477.509.269.047.622-.312.124-.686-.476-.509-.27-.049zm-21.51 1.355l-.624.312-.123.686.477.51.27.048.624-.313.121-.687-.475-.509-.27-.047zm23.582 1.477l-.623.311-.123.687.477.509.269.049.624-.313.122-.687-.476-.509-.27-.047zM7.99 15.07l-.622.313-.123.685.477.51.268.048.623-.312.123-.687-.475-.508-.27-.049zm26.557 1.672l-.624.313-.122.686.476.508.27.049.623-.311.123-.687-.477-.509-.269-.049zM7.122 18.47l-.623.312-.123.686.475.51.27.048.623-.313.123-.685-.475-.51-.27-.048zM35 20.222l-.623.312v.001l-.123.685.476.51.27.048.623-.313.123-.685-.476-.51-.27-.048zM7.122 21.975l-.623.313-.123.685.475.51.27.048.623-.312.123-.686-.475-.51-.27-.048zm27.425 1.726l-.624.311-.122.687.476.509.27.049.623-.313.123-.686-.477-.508-.269-.049zM7.99 25.373l-.622.312-.123.687.477.508.268.049.623-.313.123-.685-.475-.509-.27-.049zm25.277 1.592l-.623.313-.123.686.477.508.269.05.624-.312.122-.687-.476-.509-.27-.049zM9.684 28.442l-.623.313-.123.687.477.509.27.047.624-.312.121-.686-.475-.51-.27-.048zm21.51 1.354l-.622.313-.123.686.477.509.269.047.624-.311.122-.687-.476-.509-.27-.048zm-19.117 1.213l-.623.312-.123.686.475.51.27.048.624-.313.123-.685-.476-.51-.27-.048zm16.418 1.024l-.623.312-.123.686.476.51.27.048.623-.313.123-.685-.475-.51-.27-.048zm-13.45.845l-.623.313-.123.685.476.51.27.047.623-.311.123-.687-.477-.509-.269-.048zm10.28.656l-.623.311-.123.687.475.509.27.049.624-.313.123-.685-.476-.51-.27-.048zm-6.947.435l-.624.31-.122.688.476.508.27.05.623-.314.123-.685-.477-.509-.269-.048zm3.5.21l-.623.31-.123.687.477.51.269.048.623-.313.123-.685-.476-.51-.27-.048zm-10.211 5.175c.785 1.116 2.272 1.59 3.582 1.048l2.063-.855 1.578 1.578c1.159 1.159 3.061 1.159 4.22 0l1.578-1.578 2.063.855h.002c1.309.541 2.795.067 3.58-1.048V52.45L21 48.143l-9.333 4.307V39.354z"/>
                    </g>
                </g>
            </g>
        </g>
    </g>
</svg>
