<svg xmlns="http://www.w3.org/2000/svg" width="78" height="70" viewBox="0 0 78 70">
    <defs>
        <linearGradient id="i4q6qm4jfa" x1="0%" x2="50%" y1="100%" y2="50%">
            <stop offset="0%" stop-color="#9428EF" stop-opacity="0"/>
            <stop offset="100%" stop-color="#A56FEF"/>
        </linearGradient>
        <linearGradient id="sk7y9nl6rb" x1="-55.709%" x2="55.52%" y1="80.03%" y2="12.533%">
            <stop offset="0%" stop-color="#2763E1"/>
            <stop offset="100%" stop-color="#9428EF"/>
        </linearGradient>
    </defs>
    <g fill="none" fill-rule="evenodd">
        <g>
            <g>
                <g transform="translate(-526 -1374) translate(135 1374) translate(391)">
                    <circle cx="42.778" cy="35" r="35" fill="url(#i4q6qm4jfa)" opacity=".15"/>
                    <g fill="url(#sk7y9nl6rb)" transform="translate(0 13.222)">
                        <path d="M25.188 0c-1.97 0-3.672 1.057-4.896 2.055-1.224.999-2.005 2.004-2.005 2.004l-.702.9 1.094.323s.1.021.28.205c.178.184.394.49.394 1.212 0 1.204.189 2.267.259 2.651-.057.148-.168.255-.168.428 0 .356.087.55.146.752.03.102.057.193.073.253.016.06.01.131.01-.025 0 .454.27.788.62 1.024.15 1.597 1.028 2.93 2.263 3.822v.854c-.254.072-1.587.437-3.195 1.197-.877.414-1.768.913-2.485 1.531-.718.618-1.32 1.406-1.32 2.393V22.8c-1.061-.416-2.158-.844-2.334-.895v-.856c1.235-.894 2.113-2.225 2.264-3.822.348-.237.62-.57.62-1.024 0 .156-.008.084.009.024.016-.06.043-.15.073-.252.06-.203.145-.397.145-.752 0-.173-.112-.28-.168-.429.072-.489.363-2.429.363-3.685 0-1.447-.558-2.547-1.323-3.22-.649-.57-1.393-.802-2.083-.874-.133-.2-.181-.352-.568-.655-.604-.47-1.572-.916-2.921-.916-1.97 0-3.673 1.058-4.896 2.056-1.224.998-2.006 2.003-2.006 2.003l-.701.9 1.093.323s.1.022.28.205c.179.184.395.491.395 1.213 0 1.204.188 2.267.258 2.65-.057.148-.167.256-.167.429 0 .355.086.549.146.752l.073.252c.016.06.009.132.009-.024 0 .453.27.787.62 1.024.151 1.597 1.028 2.929 2.263 3.822v.853c-.253.072-1.586.438-3.195 1.197-.877.415-1.767.914-2.485 1.532S0 26.037 0 27.023v5.644h1.556v-5.644c0-.32.237-.747.779-1.214.542-.466 1.331-.924 2.134-1.303 1.567-.74 3.085-1.164 3.16-1.185h.927v-3.01l-.39-.225c-1.155-.668-1.934-1.91-1.94-3.346l-.005-.756-.587-.014c-.01-.038-.015-.112-.025-.15-.027-.097-.056-.192-.083-.284-.044-.153-.06-.257-.068-.26l.213-.238-.07-.376c-.048-.258-.248-1.427-.248-2.518 0-1.056-.387-1.812-.814-2.264.28-.323.456-.585 1.18-1.176C6.8 7.824 8.243 7 9.633 7c1.02 0 1.604.306 1.964.586.36.281.448.483.448.483l.214.435h.483c.404 0 .992.164 1.434.553.442.388.796.98.796 2.052 0 1.02-.303 3.202-.358 3.578l-.053.364.203.225c-.008.003-.023.107-.068.26-.027.092-.056.187-.082.284-.01.038-.015.113-.026.152l-.586.015-.005.755c-.007 1.436-.784 2.675-1.941 3.344l-.39.224v3.011h.924c.043.012.622.182 1.393.462-1.177.387-2.209 1.071-3.024 1.736-1.224.999-2.005 2.004-2.005 2.004l-.702.9 1.093.324s.101.02.28.204c.179.184.395.49.395 1.212 0 .334.016.65.038.951-.408.028-.724.366-.725.775 0 .43.349.778.778.778.048 0 .096-.005.143-.014.007.039.019.13.024.161-.056.148-.167.255-.167.428 0 .356.086.55.146.752.03.102.057.193.073.253.016.06.009.133.009-.023 0 .454.271.786.62 1.022.15 1.597 1.028 2.929 2.263 3.822v.855c-.253.073-1.586.436-3.194 1.196-.878.414-1.768.913-2.486 1.531-.717.618-1.32 1.406-1.32 2.393v4.735h1.556v-4.735c0-.32.237-.747.78-1.214.541-.467 1.33-.924 2.133-1.303 1.567-.74 3.085-1.164 3.16-1.185h.927V38.33l-.39-.225c-1.156-.669-1.934-1.907-1.94-3.343l-.005-.755-.586-.016c-.011-.038-.016-.113-.026-.152l-.082-.284c-.045-.152-.06-.256-.069-.26l.213-.238-.07-.375c-.048-.258-.247-1.427-.247-2.519 0-1.056-.388-1.812-.815-2.263.281-.323.457-.585 1.18-1.176 1.08-.881 2.524-1.704 3.914-1.704 1.02 0 1.605.305 1.964.586.36.28.448.483.448.483l.214.434h.483c.404 0 .993.165 1.434.553.442.389.796.98.796 2.053 0 1.02-.302 3.201-.358 3.577l-.053.365.203.225c-.008.003-.023.107-.068.26-.027.091-.056.186-.082.283-.01.038-.015.113-.026.15l-.586.014-.005.757c-.007 1.436-.785 2.677-1.941 3.345l-.39.225v3.01h.928c.075.022 1.592.446 3.16 1.186.802.379 1.591.836 2.134 1.303.542.467.779.894.779 1.214v4.735h1.555V45.042c0-.32.237-.746.78-1.213.542-.467 1.331-.924 2.134-1.303 1.567-.74 3.085-1.164 3.16-1.185h.926V38.33l-.388-.225c-1.158-.669-1.935-1.907-1.942-3.343l-.004-.755-.587-.016c-.01-.038-.015-.113-.026-.152-.026-.097-.055-.192-.082-.284-.044-.152-.06-.256-.068-.26l.213-.238-.07-.375c-.048-.258-.248-1.427-.248-2.519 0-1.056-.387-1.812-.814-2.263.28-.323.456-.585 1.18-1.176 1.003-.818 2.319-1.577 3.614-1.683v.137l.318-.157c1.007.004 1.589.306 1.946.585.36.28.448.483.448.483l.214.434h.483c.403 0 .992.165 1.434.553.442.389.796.98.796 2.053 0 1.02-.303 3.201-.358 3.577l-.054.365.204.225c-.008.003-.024.107-.068.26-.027.091-.056.186-.082.283-.01.038-.016.113-.026.15l-.587.014-.004.757c-.007 1.436-.786 2.677-1.942 3.345l-.388.225v3.01h.926c.075.022 1.593.446 3.16 1.186.803.379 1.592.836 2.134 1.303.543.467.78.894.78 1.214v4.735h1.555v-4.735c0-.987-.602-1.775-1.32-2.393-.718-.618-1.608-1.117-2.485-1.531-1.609-.76-2.942-1.123-3.195-1.196v-.855c1.235-.893 2.112-2.225 2.264-3.822.348-.236.62-.568.62-1.022 0 .156-.008.082.008.023l.073-.253c.06-.203.146-.396.146-.752 0-.173-.112-.28-.168-.428l.02-.161c.05.01.099.014.148.014.43 0 .778-.349.778-.778 0-.409-.316-.748-.723-.776.075-.667.14-1.398.14-1.984 0-1.448-.558-2.548-1.323-3.22-.649-.57-1.393-.802-2.083-.874-.133-.201-.181-.353-.568-.655-.177-.138-.394-.27-.634-.392 1.043-.408 1.882-.652 1.934-.667h.924v-3.01l-.39-.225c-1.155-.668-1.933-1.91-1.94-3.346l-.005-.756-.587-.014c-.01-.038-.015-.112-.025-.15l-.082-.284c-.045-.153-.06-.257-.069-.26l.213-.237-.07-.377c-.048-.258-.248-1.427-.248-2.518 0-1.056-.387-1.81-.814-2.262.28-.323.456-.587 1.18-1.178 1.08-.88 2.524-1.702 3.914-1.702 1.02 0 1.604.305 1.964.586.36.28.448.483.448.483l.214.433h.483c.404 0 .992.164 1.434.553.442.388.796.98.796 2.052 0 1.02-.302 3.203-.358 3.58l-.053.362.203.225c-.007.001-.023.108-.068.261-.027.092-.056.186-.082.283-.01.039-.015.114-.026.153l-.586.014-.005.755c-.006 1.436-.784 2.676-1.941 3.345l-.39.223v3.011h.923c.07.02 1.595.446 3.164 1.187.803.379 1.592.836 2.134 1.303.543.467.78.892.78 1.212v5.644h1.555v-5.644c0-.986-.602-1.773-1.32-2.39-.718-.619-1.608-1.118-2.485-1.532-1.608-.76-2.941-1.125-3.195-1.197v-.855c1.236-.894 2.113-2.225 2.264-3.822.348-.237.62-.569.62-1.023 0 .156-.008.084.009.025.016-.06.043-.153.073-.254.06-.203.145-.395.145-.75 0-.173-.112-.281-.168-.429.072-.49.363-2.43.363-3.687 0-1.447-.557-2.547-1.323-3.22-.649-.57-1.394-.802-2.084-.874-.134-.201-.181-.352-.567-.653-.603-.471-1.572-.916-2.921-.916-1.97 0-3.673 1.056-4.896 2.054-1.224.998-2.006 2.003-2.006 2.003l-.701.901 1.093.324s.1.02.28.203c.179.184.395.491.395 1.213 0 1.205.188 2.27.258 2.654-.056.147-.167.253-.167.425 0 .355.086.549.146.752l.073.252c.016.06.009.132.009-.024 0 .453.27.787.62 1.024.151 1.597 1.028 2.929 2.263 3.822v.856c-.175.05-1.273.48-2.333.895V21.58c0-.987-.603-1.775-1.32-2.393-.718-.618-1.608-1.117-2.486-1.531-1.608-.76-2.94-1.125-3.194-1.197v-.854c1.235-.893 2.112-2.225 2.263-3.822.349-.236.62-.57.62-1.024 0 .156-.007.084.01.025.015-.06.042-.151.072-.253.06-.202.146-.396.146-.752 0-.172-.112-.28-.169-.428.073-.49.363-2.43.363-3.685 0-1.448-.557-2.548-1.323-3.22-.648-.57-1.392-.802-2.082-.874-.134-.201-.182-.353-.569-.655C27.506.445 26.537 0 25.19 0zm0 1.556c1.02 0 1.605.305 1.964.586.36.28.448.483.448.483l.215.434h.483c.403 0 .992.165 1.434.553.442.389.796.98.796 2.053 0 1.02-.303 3.201-.359 3.577l-.053.365.204.225c-.008.003-.024.107-.069.26-.027.091-.055.186-.082.283-.01.039-.015.113-.026.152l-.586.016-.004.755c-.007 1.436-.785 2.674-1.942 3.343l-.389.225v3.01h.927c.075.022 1.593.446 3.16 1.186.802.379 1.592.836 2.134 1.303.542.467.78.894.78 1.214v1.905c-1.842.1-3.437 1.088-4.598 2.035-1.223.999-2.005 2.004-2.005 2.004l-.702.9 1.094.324s.1.02.28.204c.179.184.395.49.395 1.212 0 1.205.188 2.267.258 2.651-.057.148-.167.255-.167.428 0 .356.086.55.146.752l.073.253c.016.06.009.133.009-.023 0 .454.27.786.62 1.022.15 1.597 1.028 2.929 2.263 3.822v.855c-.253.073-1.586.436-3.195 1.196-.877.414-1.767.913-2.485 1.531-.194.167-.375.348-.542.54-.168-.192-.35-.373-.543-.54-.717-.618-1.608-1.117-2.485-1.531-1.608-.76-2.941-1.123-3.195-1.196v-.855c1.235-.893 2.112-2.225 2.264-3.822.349-.236.62-.568.62-1.022 0 .156-.007.082.009.023.016-.06.043-.151.073-.253.06-.203.146-.396.146-.752 0-.173-.113-.28-.17-.428.074-.49.364-2.43.364-3.685 0-1.448-.557-2.548-1.323-3.22-.648-.57-1.393-.802-2.083-.874-.133-.201-.18-.353-.568-.655-.393-.307-.958-.59-1.665-.758v-2.043c0-.32.237-.747.78-1.214.542-.467 1.331-.924 2.134-1.303 1.567-.74 3.084-1.164 3.16-1.185h.926v-3.011l-.389-.225c-1.156-.668-1.934-1.909-1.941-3.345l-.005-.757-.586-.013c-.01-.039-.016-.112-.026-.15-.026-.098-.055-.193-.082-.285-.045-.152-.06-.256-.068-.26l.212-.238-.07-.375c-.048-.258-.247-1.428-.247-2.519 0-1.056-.388-1.812-.814-2.263.28-.323.456-.585 1.18-1.176 1.08-.881 2.524-1.704 3.913-1.704zM3.888 31.11c-.429 0-.777.348-.777.778 0 .43.348.778.778.778.43 0 .778-.349.778-.778 0-.43-.349-.778-.778-.778zm3.112 0c-.43 0-.778.348-.778.778 0 .43.348.778.778.778.43 0 .778-.349.778-.778 0-.43-.348-.778-.778-.778zm37.333 0c-.43 0-.777.348-.777.778 0 .43.348.778.777.778.43 0 .778-.349.778-.778 0-.43-.348-.778-.778-.778zm3.111 0c-.43 0-.777.348-.777.778 0 .43.348.778.777.778.43 0 .778-.349.778-.778 0-.43-.348-.778-.778-.778zM10.111 48.222c-.43 0-.778.348-.778.778 0 .43.349.778.778.778.43 0 .778-.348.778-.778 0-.43-.348-.778-.778-.778zm3.111 0c-.43 0-.778.348-.778.778 0 .43.349.778.778.778.43 0 .778-.348.778-.778 0-.43-.348-.778-.778-.778zm3.111 0c-.43 0-.777.348-.777.778 0 .43.348.778.777.778.43 0 .778-.348.778-.778 0-.43-.348-.778-.778-.778zm3.111 0c-.43 0-.777.348-.777.778 0 .43.348.778.777.778.43 0 .778-.348.778-.778 0-.43-.348-.778-.778-.778zm3.112 0c-.43 0-.778.348-.778.778 0 .43.348.778.778.778.43 0 .777-.348.777-.778 0-.43-.348-.778-.777-.778zm6.222 0c-.43 0-.778.348-.778.778 0 .43.348.778.778.778.43 0 .778-.348.778-.778 0-.43-.349-.778-.778-.778zm3.11 0c-.429 0-.777.348-.777.778 0 .43.348.778.778.778.43 0 .778-.348.778-.778 0-.43-.349-.778-.778-.778zm3.112 0c-.43 0-.778.348-.778.778 0 .43.348.778.778.778.43 0 .778-.348.778-.778 0-.43-.348-.778-.778-.778zm3.111 0c-.43 0-.778.348-.778.778 0 .43.349.778.778.778.43 0 .778-.348.778-.778 0-.43-.348-.778-.778-.778zm3.111 0c-.43 0-.778.348-.778.778 0 .43.349.778.778.778.43 0 .778-.348.778-.778 0-.43-.348-.778-.778-.778z"/>
                    </g>
                </g>
            </g>
        </g>
    </g>
</svg>
