<svg xmlns="http://www.w3.org/2000/svg" width="78" height="70" viewBox="0 0 78 70">
    <defs>
        <linearGradient id="mf7l8rwgoa" x1="0%" x2="50%" y1="100%" y2="50%">
            <stop offset="0%" stop-color="#9428EF" stop-opacity="0"/>
            <stop offset="100%" stop-color="#A56FEF"/>
        </linearGradient>
        <linearGradient id="88xd6fmw0b" x1="-55.709%" x2="55.52%" y1="77.837%" y2="15.268%">
            <stop offset="0%" stop-color="#2763E1"/>
            <stop offset="100%" stop-color="#9428EF"/>
        </linearGradient>
    </defs>
    <g fill="none" fill-rule="evenodd">
        <g>
            <g>
                <g transform="translate(-216 -1374) translate(135 1374) translate(81)">
                    <circle cx="42.778" cy="35" r="35" fill="url(#mf7l8rwgoa)" opacity=".15"/>
                    <g fill="url(#88xd6fmw0b)" transform="translate(0 15.556)">
                        <path d="M9.115 0l1.166 4.667h.608V21h1.555V4.667c.429 0 .778-.35.778-.778 0-.428-.35-.778-.778-.778h-.947l-.39-1.555h36.896l-.388 1.555h-.948c-.429 0-.778.35-.778.778 0 .428.35.778.778.778V45.11H34.222v1.556h14v-42h.608L49.997 0H9.115zm6.44 3.111c-.428 0-.777.35-.777.778 0 .428.35.778.778.778.428 0 .777-.35.777-.778 0-.428-.35-.778-.777-.778zm3.112 0c-.429 0-.778.35-.778.778 0 .428.35.778.778.778.428 0 .777-.35.777-.778 0-.428-.349-.778-.777-.778zm3.11 0c-.428 0-.777.35-.777.778 0 .428.35.778.778.778.428 0 .778-.35.778-.778 0-.428-.35-.778-.778-.778zm3.112 0c-.428 0-.778.35-.778.778 0 .428.35.778.778.778.428 0 .778-.35.778-.778 0-.428-.35-.778-.778-.778zm3.111 0c-.428 0-.778.35-.778.778 0 .428.35.778.778.778.428 0 .778-.35.778-.778 0-.428-.35-.778-.778-.778zm3.111 0c-.428 0-.778.35-.778.778 0 .428.35.778.778.778.428 0 .778-.35.778-.778 0-.428-.35-.778-.778-.778zm3.111 0c-.428 0-.778.35-.778.778 0 .428.35.778.778.778.429 0 .778-.35.778-.778 0-.428-.35-.778-.778-.778zm3.111 0c-.428 0-.777.35-.777.778 0 .428.349.778.777.778.429 0 .778-.35.778-.778 0-.428-.35-.778-.778-.778zm3.111 0c-.428 0-.777.35-.777.778 0 .428.35.778.777.778.429 0 .778-.35.778-.778 0-.428-.35-.778-.778-.778zm3.112 0c-.429 0-.778.35-.778.778 0 .428.35.778.778.778.428 0 .777-.35.777-.778 0-.428-.35-.778-.777-.778zm-28 4.667V14h7.777V7.778h-7.777zm10.11 0V14h7.778V7.778h-7.777zm10.112 0V14h7.778V7.778h-7.778zM17.11 9.333h4.667v3.111H17.11v-3.11zm10.111 0h4.667v3.111h-4.667v-3.11zm10.111 0H42v3.111h-4.667v-3.11zm-21.777 7.778V21h1.555v-2.333h4.667V21h1.555v-3.889h-7.777zm10.11 0V21h1.556v-2.333h4.667V21h1.555v-3.889h-7.777zm10.112 0v6.222h7.778v-6.222h-7.778zm1.555 1.556H42v3.11h-4.667v-3.11zM1.556 22.556C.705 22.556 0 23.26 0 24.11v1.556c0 .85.705 1.555 1.556 1.555v19.445h5.313c.085.015.17.015.253 0h7.525c.085.015.17.015.252 0h17.768V27.222c.85 0 1.555-.705 1.555-1.555V24.11c0-.85-.705-1.555-1.555-1.555H1.556zm0 1.555h31.11v1.556h-1.555V45.11H15.556v-14H6.222v14h-3.11V25.667H1.555V24.11zm3.11 1.556c-.428 0-.777.35-.777.777 0 .429.35.778.778.778.428 0 .777-.35.777-.778 0-.428-.349-.777-.777-.777zm3.112 0c-.429 0-.778.35-.778.777 0 .429.35.778.778.778.428 0 .778-.35.778-.778 0-.428-.35-.777-.778-.777zm3.11 0c-.427 0-.777.35-.777.777 0 .429.35.778.778.778.428 0 .778-.35.778-.778 0-.428-.35-.777-.778-.777zm3.112 0c-.428 0-.778.35-.778.777 0 .429.35.778.778.778.428 0 .778-.35.778-.778 0-.428-.35-.777-.778-.777zm3.111 0c-.428 0-.778.35-.778.777 0 .429.35.778.778.778.428 0 .778-.35.778-.778 0-.428-.35-.777-.778-.777zm3.111 0c-.428 0-.778.35-.778.777 0 .429.35.778.778.778.429 0 .778-.35.778-.778 0-.428-.35-.777-.778-.777zm3.111 0c-.428 0-.777.35-.777.777 0 .429.349.778.777.778.429 0 .778-.35.778-.778 0-.428-.35-.777-.778-.777zm3.111 0c-.428 0-.777.35-.777.777 0 .429.35.778.777.778.429 0 .778-.35.778-.778 0-.428-.35-.777-.778-.777zm3.112 0c-.429 0-.778.35-.778.777 0 .429.35.778.778.778.428 0 .777-.35.777-.778 0-.428-.35-.777-.777-.777zm6.222.777v6.223h7.778v-6.223h-7.778zM37.333 28H42v3.111h-4.667V28zm-18.666 3.111v9.333H28v-9.333h-9.333zm-10.89 1.556H14V45.11H7.778V32.667zm12.445 0h2.334c0 .428.349.777.777.777.429 0 .778-.349.778-.777h2.333V35c-.428 0-.777.35-.777.778 0 .428.35.778.777.778v2.333h-2.333c0-.428-.35-.778-.778-.778-.428 0-.777.35-.777.778h-2.334v-2.333c.429 0 .778-.35.778-.778 0-.429-.35-.778-.778-.778v-2.333zM23.333 35c-.428 0-.777.35-.777.778 0 .428.349.778.777.778.429 0 .778-.35.778-.778 0-.429-.35-.778-.778-.778zm12.445.778V42h7.778v-6.222h-7.778zm1.555 1.555H42v3.111h-4.667v-3.11zm-24.889.778c-.428 0-.777.35-.777.778 0 .428.35.778.777.778.429 0 .778-.35.778-.778 0-.428-.35-.778-.778-.778z"/>
                    </g>
                </g>
            </g>
        </g>
    </g>
</svg>
