<svg xmlns="http://www.w3.org/2000/svg" width="87" height="70" viewBox="0 0 87 70">
    <defs>
        <linearGradient id="a2gujk49wa" x1="0%" x2="50%" y1="100%" y2="50%">
            <stop offset="0%" stop-color="#9428EF" stop-opacity="0"/>
            <stop offset="100%" stop-color="#A56FEF"/>
        </linearGradient>
        <linearGradient id="ihndypw1db" x1="-55.709%" x2="55.52%" y1="61.671%" y2="35.439%">
            <stop offset="0%" stop-color="#2763E1"/>
            <stop offset="100%" stop-color="#9428EF"/>
        </linearGradient>
        <linearGradient id="0elowdyvhc" x1="-55.709%" x2="55.52%" y1="81.936%" y2="10.155%">
            <stop offset="0%" stop-color="#2763E1"/>
            <stop offset="100%" stop-color="#9428EF"/>
        </linearGradient>
    </defs>
    <g fill="none" fill-rule="evenodd">
        <g>
            <g>
                <g transform="translate(-831 -1374) translate(135 1374) translate(698)">
                    <circle cx="49.778" cy="35" r="35" fill="url(#a2gujk49wa)" opacity=".15"/>
                    <g>
                        <g fill="url(#ihndypw1db)" transform="translate(0 14.778)">
                            <path d="M30.569 43.376l.472-1.068.196-.456c.025-.056.046-.104.068-.15l.04.002c.278.004.557-.022.83-.076l.133-.03h-.011c.082-.012.166.02.221.082l.069.07.092.084c.076.072.155.153.266.271l.441.47c.078.08.144.145.22.218.327.316.642.653.94 1.006l1.1 1.334.134.158c.375.496.882.937 1.462 1.262l.056.029c.658.304 1.284.673 1.868 1.102.242.19.57.288.935.116.274-.129.386-.301.474-.537l.032-.094.072-.249.068-.299c.063-.3.112-.602.147-.907l.027-.28.008-.047c.03-.257-.011-.515-.118-.752l.53-.509c.057-.055.12-.102.249-.182l.338-.207c.138-.086.235-.153.336-.235l.061-.052c.046-.042.064-.043.077-.034l.05.034c.57.357 1.087.096 1.318-.373l.205-.48c.026-.061.05-.113.076-.168l.066-.173c.021-.043.048-.084.08-.12l.02-.02-.095.057c.29-.162.555-.363.788-.598l.13-.136c.177-.175.365-.33.562-.463l.136-.087c.055.055.104.114.148.176.242.383.722.6 1.203.523l.088-.005c.093-.004.2-.003.31.006l.089.008-.046-.008c.215.044.373.05.64.033l.293-.018h.1l.047.006c.296.06.61.082.925.064.54-.012 1.11.014 1.677.077l.132.008c.439.01.856-.118 1.201-.365l.067-.052-.062.043c.27-.162.456-.432.512-.74.05-.275-.008-.557-.16-.789l-.087-.168-.077-.169.021-.02.041-.031c.064.02.127.033.192.04.664.084 1.342.025 1.985-.174l.088-.033c.106-.047.229-.03.318.044.233.218.604.32.96.246.557-.14 1.1-.178 1.636-.12l.126.014.072-.015.085.09c.06.062.122.122.185.181l.146.131-.054-.062c.393.483 1.076.614 1.62.312l.956-.448.049.07.205.334c.093.148.194.3.337.509l.45.66c.12.179.206.315.287.453l.152.269.286.52c.087.157.158.277.231.395l.19.297.233.383c.065.107.12.193.17.272l.118.175-.04-.079c.191.413.539.734.967.89.603.187 1.151.413 1.675.688l.08.036c.312.122.66.101.955-.056.295-.157.506-.435.577-.76l.016-.101.008-.085c.025-.251.061-.49.13-.878l.052-.293-.015.063c.117-.413.082-.855-.1-1.245l-.204-.395c-.29-.568-.569-1.154-1.004-2.092-.128-.34-.303-.722-.504-1.09-.186-.332-.337-.668-.456-1.016l-.078-.201-.283-.808c-.078-.216-.142-.371-.227-.549-.097-.176-.119-.322-.087-.462.098-.325.235-.695.395-1.055.247-.512.557-1.016.917-1.483.67-.948 1.394-1.85 2.4-3.017.407-.469.783-.969 1.123-1.493l.192-.308c.391-.61.828-1.173 1.31-1.693l.213-.225.043-.038c.217-.212.318-.524.254-.832-.027-.174-.042-.387-.04-.6l.001-.084-.016-.083c-.032-.16-.064-.293-.115-.48l-.187-.678c-.06-.225-.09-.369-.114-.53l-.011-.06-.024-.087c-.098-.313-.33-.564-.63-.689l-.73-.267c-.165-.063-.27-.108-.385-.163l-.195-.116-.067-.043.071-.046c.095-.066.174-.143.24-.247l.007-.016.011.052c.018.072.046.14.097.226.16.27.443.425.75.426l.063-.002c.547-.04 1.023-.39 1.223-.9l.059-.147-.003-.16-.008-.163c-.035-.434-.18-.854-.423-1.218l-.025-.037.014-.006c.1-.044.197-.11.286-.199.109-.11.175-.228.223-.357.015-.04.025-.072.036-.112l.017-.068c.038-.157.087-.309.147-.456.223-.51.34-1.081.338-1.657l-.009-.243c-.005-.107-.013-.22-.024-.364l-.045-.536c-.016-.208-.023-.35-.024-.5.029-.623-.026-1.279-.163-1.923l-.099-.429-.044-.159-.027-.088.043-.037c.55-.386 1.176-.744 1.834-1.039.592-.244 1.108-.691 1.445-1.264l.129-.24c.086-.155.178-.313.31-.533l.295-.485c.352-.514.773-1.033 1.235-1.514l.114-.129c.113-.124.229-.238.394-.39l.63-.574.151-.144c.05-.048.085-.085.127-.143.095-.13.16-.284.169-.473.014-.296-.08-.473-.244-.645l-.112-.111-.064-.042-.213-.146c-.07-.05-.138-.102-.205-.156l-.153-.128-.058-.071c-.25-.291-.542-.542-.866-.745l-.07-.042-.005-.146c-.021-.427-.102-.85-.239-1.255l-.098-.273c-.126-.306-.444-.547-.815-.592l-.02-.001.029.004c-.196-.031-.338-.028-.56 0l-.245.033-.047.003-.043-.009c-.293-.048-.596.03-.831.222l-.069.06c-.197.192-.31.451-.317.723v.044l-.077.905c-.011.112-.022.206-.035.304l-.051.336c-.048.338-.083.684-.107 1.032l-.018.302-.061.023c-.56.221-.986.653-1.193 1.197l-.015.045c-.424.085-.834.233-1.215.438l-.155.094c-.073.047-.142.096-.224.156l-.33.249c-.147.108-.23.16-.32.206l-.17.085c-.22.115-.428.242-.76.456l-.463.299-.198.12.073-.03c-.71.281-1.203.934-1.28 1.693l-.014.326-.004.203-.159.08c-.129.066-.267.141-.407.222-.596.345-1.19.693-1.783 1.045-.347.186-.713.41-1.065.654l-.932.646.494.357-.992.703c-.189.132-.348.242-.511.352l-.993.662c-.41.277-.667.46-.964.692l-.09.072c-.091.066-.182.116-.276.152l-.045.015-.001-.134-.01-.243c-.002-.082 0-.137.004-.178l.16-.904.06-.293c.142-.56-.049-1.178-.501-1.578l-.047-.038c-.141-.107-.268-.233-.377-.373l-.135-.186c-.139-.174-.335-.302-.557-.361l-.104-.022.02-.045c.066-.182.08-.38.037-.572l-.027-.095c-.06-.185-.174-.348-.324-.47l-.09-.066-.082-.062c-.171-.141-.305-.323-.388-.53l-.02-.057-.01-.054c-.104-.483-.466-.866-.932-1.005l-.047-.012.122-.033.146-.047.03-.007c.337-.095.598-.376.66-.73l.012-.13c.003-.3-.142-.59-.423-.752l-.075-.04c-.072-.035-.134-.054-.199-.065l-.057-.007-.541-.17c-.117-.038-.193-.067-.272-.104l-.116-.043-.33-.088c-.221-.054-.444-.102-.668-.141l-.28-.045.092.027c-.292-.1-.614-.074-.886.073l-.133.078c-.262.16-.495.362-.691.595l-.038.047-.18-.11c-.2-.12-.425-.245-.758-.427l-.597-.327c-.272-.177-.68-.163-.98.06l-.47.301c-.19.123-.316.209-.447.308l-.2.156c-.13.105-.256.216-.435.378l-.229.209-.041-.008c-.219-.038-.438-.07-.658-.095l-.036-.003.032-.069c.124-.258.254-.514.388-.767l.145-.267c.181-.188.302-.422.35-.677l.09-.475-.379-.3-.086-.064c-.176-.118-.379-.189-.588-.208l-.082-.005-.317-.095c-.226-.065-.418-.114-.617-.157l-.086-.013c-.29-.03-.579-.077-.864-.14l-.259-.057c-.261-.054-.53-.096-.802-.124l-.245-.022.035.005c-.312-.047-.626-.074-.941-.08h-.237c-.08 0-.17-.002-.284-.007l-.558-.027c-.121-.005-.22-.007-.317-.006l-.248.005c-.084 0-.178-.005-.314-.017l-.207-.018c-.444-.042-.674-.052-.97-.025-.217.02-.437.017-.654-.007-.176-.02-.337-.032-.557-.043l-.697-.03c-.1-.006-.18-.012-.266-.02-.181-.018-.354-.017-.557-.003l-.342.03-.198.02c-.202.018-.31.018-.422.004l-.17-.02c-.11-.01-.221-.016-.36-.022l-.596-.014c-.235-.007-.405-.019-.561-.042-.281-.037-.556-.042-.827-.018l-.202.023c-.475.064-.96.097-1.448.097l-.368-.007-1.201-.05c-.959-.009-1.902-.068-2.84-.177l-.671-.083-1.505-.158-.076.006h-.045l-.029-.008.073.034c-.32-.158-.669-.252-1.025-.274l-.508-.081c-.36-.057-.587-.086-.817-.102l-.154-.009.031.005c-.564-.07-1.124-.174-1.676-.31l-.067-.014-.631-.098c-.208-.034-.366-.062-.514-.092l-.34-.074c-.11-.022-.222-.042-.36-.065l-.782-.12c-.078-.014-.144-.026-.21-.04l-.443-.095-.898-.207c-.36-.08-.607-.125-.9-.167-.442-.065-.883-.152-1.32-.26l-.326-.086c-.268-.073-.49-.117-.842-.172l-.788-.116c-.095-.014-.174-.028-.257-.043l-.088-.011c-.251-.018-.5-.065-.74-.138-.6-.233-1.286-.387-1.984-.44L9.559.5 8.117.359c-.721-.08-1.138.184-1.33.898l-.023.084-.07.232-.065.2-.26-.042c-.066-.011-.109-.022-.15-.035l-.184-.067c-.124-.049-.247-.104-.37-.166l-.18-.097.066.042c-.259-.182-.586-.237-.89-.15l-.116.042c-.268.123-.452.365-.5.65l-.01.084c-.007.079-.002.144.01.215l.01.05-.002-.064c.004.174.016.34.036.502l.012.068.068.338c.062.339.111.68.146 1.023l.026.312.002-.065c-.012.256.01.513.068.763.003.017-.007.064-.033.102l-.044.074-.063.113c-.042.077-.09.158-.154.266l-.356.6-.129.23-.336.646c-.215.347-.427.758-.608 1.182l-.028.077c-.256.822-.58 1.622-.971 2.39l-.171.327c-.125.21-.185.486-.158.76l.133 1.373c.007.08.012.121.024.183l.02.09c.008.03.017.06.028.089l.014.034-.06.173c-.16.447-.337.875-.534 1.292l-.143.297.033-.056c-.32.505-.42 1.12-.274 1.7l.17.568.085.268c.082.268.151.532.21.796l.05.235-.006-.046c.033.332.084.663.153.99l.087.322c.039.14.08.282.128.444l.357 1.18c.108.362.177.608.244.873l.128.504.126.463.397 1.421.171.622.267.956c.034.126.063.237.09.346l.059.243c.147.685.51 1.32 1.035 1.805l.173.153c.077.067.161.137.269.226l.542.446.224.194c.208.18.403.334.725.574l.247.183-.026-.025c.29.268.544.573.755.908l.074.098.15.18.144.186.088.126.039.084c.252.511.742.873 1.316.958l.143.013c.046.006.104.017.195.037l.151.034c.187.04.33.065.476.075l.275.011c.164.01.334.028.574.062l.872.132c.165.023.305.04.438.052l.09.007.103.08c.084.063.17.12.26.174l.062.041c.04.03.075.062.106.098l.019.024-.042-.084c.317.681.871 1.224 1.56 1.528.185.08.343.137.563.205l.7.204c.197.06.319.103.45.16l.069.025.295.091c.493.145.997.25 1.507.314l.26.029.466.09c.862.167 1.506.31 2.142.479.825.242 1.685.436 2.555.574.567.081 1.133.024 1.661-.163l.203-.08c.132-.05.258-.092.384-.13l.04-.012.03.028c.105.09.215.175.329.253l.105.07.127.11c.181.155.37.3.564.436l.137.092.015.143.028.194.029.158-.005-.031c.042.366.145.722.303 1.055l.031.064.042.059c.238.331.51.638.809.915l.158.165 2.218 2.196zm-27.54-28.93l.13-.366.104-.221.565-1.219-.779.045-.078-.81.144-.273c.378-.743.696-1.499.957-2.272l.11-.339-.012.028c.15-.352.326-.692.526-1.018l.352-.675.083-.15.255-.43.171-.287c.031-.054.06-.101.085-.147l.102-.184-.035.055c.267-.391.367-.873.278-1.338-.03-.135-.04-.246-.035-.356l-.001-.096-.034-.388c-.013-.129-.028-.258-.044-.386l-.052-.365.056.015c.1.026.2.045.336.066l.144.022c.168.026.257.043.326.066l.033.012c.71.28 1.09-.16 1.286-.71l.162-.466.06-.179.027-.091 1.313.129.31.034c.575.045 1.108.165 1.615.36l.202.058c.264.072.514.12.761.147l.138.012.175.031.948.141c.218.035.37.066.525.105l.067.017c.601.166 1.217.296 1.84.387l.165.025c.217.035.433.078.752.15l1.005.231.313.065.166.03.873.136c.084.014.154.027.222.04l.339.074c.17.035.346.066.573.103l.619.096-.04-.009c.615.152 1.238.267 1.866.345l.068.005.137.008c.16.01.326.031.581.07l.541.084.158.023c.161.012.283.038.391.08l.167.073.124.04c.166.045.339.068.511.065l.036-.002 1.353.143c.242.027.439.051.656.08.84.098 1.676.158 2.51.181l.565.011 1.123.048c.15.005.272.007.41.007.45 0 .896-.024 1.34-.072L34 5.5c.2-.028.394-.03.585-.005.173.026.353.041.569.05l.293.01.433.01c.144.005.247.012.349.023l.06.007c.24.03.428.032.716.008l.442-.043c.146-.014.254-.018.347-.015l.344.027.352.017.487.02c.147.009.259.018.374.03.261.03.524.039.786.025l.197-.013c.148-.014.29-.01.563.014l.458.04c.155.01.274.015.403.012l.189-.004.182.002.503.024c.138.007.252.011.36.012h.107c.314-.003.62.018.924.063l.063.007c.366.026.73.082 1.085.169l.27.055c.177.034.353.062.528.086l.212.024.161.038.123.031-.133.258c-.208.412-.404.831-.588 1.256l-.038.11-.031.134-.01.05.024-.07c-.1.286-.123.523.07.828.213.334.492.414.823.41.537.016 1.102.08 1.658.194.305.065.627-.013.873-.21l.617-.558c.131-.116.228-.197.338-.283l.05-.038c.05-.037.1-.073.16-.113l.35-.23.581.317c.168.094.299.17.422.244l.155.097-.042.017c-.225.1-.37.279-.465.5l-.038.097-.096.187-.357.663-.092.18-.015.026c-.24.438-.199.975.098 1.37l.01.011.029.105c.104.335.281.632.52.875l.021.02.033-.201c-.085.598-.246 1.16-.484 1.69-.126.269-.144.586-.048.878l.128.326c.082.22.152.45.206.684l.045.211-.007-.078c.005.094.024.187.054.277l.044.103.431.842.09.184c.087.218.299.429.566.534l.101.035c.206.058.424.051.626-.018l.008-.003.08-.022.14-.044.33-.104c.04-.012.073-.02.107-.027l.097-.026c.477-.149.819-.545.892-1.024l.005-.039-.008.043c.098-.474.14-.957.126-1.44l.004-.1c.011-.1.039-.2.083-.296l.047-.089.027-.04c.375-.596.312-1.37-.154-1.9l-.033-.033c-.187-.216-.269-.501-.228-.78l.04-.208c.02-.153.012-.303-.025-.448l-.017-.051.095-.108c.248-.298.451-.621.607-.965l.03-.073.012-.006c.027-.015.054-.031.08-.049l.024-.018.01-.005c.009-.002.017-.002.025.002l.126.06.034.097c.138.378.353.722.628 1.012l.076.076-.163.368-.047.109-.038.093c-.214.585-.012 1.047.532 1.32l.054.025.04.023c.314.152.668.17.986.063l.01-.004.058.064c.091.097.188.189.289.275l.11.088-.055.266c-.018.088-.035.18-.055.29l-.121.688c-.027.143-.037.277-.037.432l.012.415-.002.071-.037.365c-.012.129-.02.236-.025.351-.029.614.416 1.149 1.142 1l.44-.093c.084-.017.145-.027.211-.037.504-.093.948-.305 1.314-.622l.199-.15c.135-.1.28-.203.464-.328l1.343-.9c.255-.175.525-.364.92-.645l.663-.472c.17-.126.317-.248.457-.378l.07-.065c.221-.224.33-.488.327-.748l-.003-.057.054-.032.241-.134.908-.535.888-.517c.195-.112.382-.21.563-.295l.097-.056c.472-.29.736-.787.72-1.306l-.01-.124.013-.332c.01-.094.09-.21.208-.28l.17-.082.12-.071c.097-.059.195-.12.33-.208l.404-.261c.232-.15.385-.24.535-.32l.13-.066c.219-.106.372-.206.633-.403l.286-.215c.08-.06.136-.096.196-.131l.134-.067c.138-.063.29-.117.448-.158l.149-.036-.062.01c.589-.063 1.084-.467 1.265-1.03.05-.16.174-.278.329-.32l.09-.023c.564-.169.96-.714.954-1.321l-.005-.092-.002.054c.023-.52.077-1.038.161-1.551l.024-.185.02-.187.043-.498.008.029c.049.216.073.428.076.639l-.003.156.007-.072c-.067.497.207.977.668 1.173.257.127.516.34.718.601l.048.062.139.119-.278.257c-.195.184-.332.328-.484.506-.493.512-.97 1.1-1.396 1.725l-.169.276c-.317.52-.457.759-.619 1.073-.121.203-.324.39-.567.515l-.107.05c-.775.347-1.493.756-2.166 1.232l-.107.088c-.102.086-.188.169-.266.254l-.032.037c-.329.326-.431.813-.27 1.24l.013.028c.035.094.066.19.092.287l.034.147c.153.61.213 1.209.187 1.807 0 .252.01.45.035.744l.05.61c.009.131.013.23.015.338.001.292-.051.591-.155.875l-.125.318-.034.097c-.367.049-.674.31-.772.672l-.034.157-.034-.002h-.093c-.401.013-.767.234-.966.582l-.013.025.021-.035c-.2.314-.368.649-.499.998l-.027.095-.018.096-.002.022-.008.005c-.217.132-.414.295-.585.484l-.047.056c-.332.441-.358 1.029.192 1.404.35.276.765.553 1.198.798l.18.086c.114.052.223.098.356.149l.46.169.01.046c.023.107.051.221.087.357l.2.723c.02.074.035.137.049.198l.01.051.002.131c.002.076.006.151.012.227l.009.097.21-.22c-.75.765-1.409 1.615-1.961 2.533-.285.438-.616.877-.976 1.292l-.429.501c-.825.974-1.462 1.782-2.048 2.614-.409.529-.778 1.128-1.082 1.762-.2.444-.36.88-.492 1.325-.133.581-.05 1.135.217 1.606l.04.09c.04.098.086.221.152.408l.181.525c.049.139.088.24.135.357.134.397.325.824.554 1.231.161.295.307.611.43.936l.443.95c.313.663.544 1.128.807 1.626l.001.034c0 .01 0 .02-.002.03l-.024.107-.08.449-.044.256-.3-.13c-.319-.131-.643-.248-.972-.35.013.004-.007-.015-.018-.039l-.031-.067-.113-.162c-.035-.052-.071-.108-.113-.175l-.362-.59-.15-.233c-.06-.099-.121-.203-.2-.343l-.35-.637-.104-.18c-.105-.178-.215-.35-.37-.58l-.544-.799c-.1-.148-.173-.263-.246-.383l-.044-.072c-.146-.254-.33-.497-.543-.714l-.09-.08-.122-.085c-.123-.08-.255-.15-.392-.205l-.099-.037-.031-.013c-.418-.156-.783.01-.986.3l-.045.07-.715.337.09.08c-.142-.12-.276-.252-.4-.391l-.07-.069-.085-.069c-.29-.22-.65-.328-1.012-.307l-.076.007-.134-.011c-.567-.04-1.136 0-1.696.119l-.099-.059c-.496-.272-1.068-.317-1.585-.128l-.053.021-.137.039c-.267.067-.542.098-.817.093l-.161-.008c-.108-.067-.225-.11-.351-.13-.106-.017-.202-.015-.297-.002l-.067.011-.063.014-.082.01-.09.034-.127.051c-.415.184-.768.485-1.016.865l-.084.137c-.16.282-.18.623-.055.921l.008.016.072.184.042.1.12.012c-.618-.07-1.26-.099-1.903-.084-.154.008-.29.004-.423-.014l-.225-.038-.042-.005c-.137-.016-.245-.02-.396-.013l-.381.023c-.044.002-.076.001-.102 0l-.113-.018-.18-.017c-.12-.009-.241-.013-.362-.011l-.166.005-.06-.072c-.182-.21-.385-.388-.61-.534l-.106-.065-.027-.018c-.269-.162-.6-.178-.882-.046l-.034.018c-.609.297-1.157.704-1.615 1.203-.107.106-.251.216-.41.304l-.067.038-.06.05-.1.09c-.227.218-.402.484-.513.778l-.021.06-.012.026-.019-.002c-.465-.045-.944.108-1.301.452l-.069.05c-.042.027-.101.065-.19.118l-.074.045c-.294.176-.45.28-.614.427l-.556.53c-.109.107-.193.193-.288.292l-.073.081c-.395.46-.412.911-.091 1.413l.033.049-.026.265-.016.127-.022.15-.02-.012c-.307-.188-.62-.36-.94-.52l-.28-.134.015.009c-.387-.217-.725-.512-.994-.866l-.5-.6-.52-.632c-.397-.495-.832-.973-1.296-1.422l-.091-.088c-.045-.045-.092-.092-.147-.15l-.451-.481c-.094-.098-.171-.176-.25-.25l-.095-.087.042.045c-.414-.472-1.04-.703-1.661-.614l-.083.017c-.285.071-.58.091-.872.057l-.131-.004-.094.008c-.34.043-.637.227-.827.496l-.012.018-.581-.578c-.05-.05-.095-.097-.142-.147l-.149-.143c-.141-.142-.264-.281-.376-.424l-.063-.084.027.063c-.065-.138-.112-.284-.14-.433l-.027-.179c-.024-.12-.042-.241-.054-.363l-.02-.246-.015-.091c-.077-.364-.314-.672-.643-.84l-.035-.015.05.034c-.26-.17-.505-.359-.735-.567l-.055-.051-.064-.04c-.174-.106-.332-.236-.472-.384l-.07-.076-.088-.055-.086-.049c-.292-.15-.632-.172-.938-.062l-.062.024.07-.019c-.319.085-.632.19-.937.317-.245.086-.547.116-.843.074-.789-.126-1.581-.304-2.36-.533l-.378-.097c-.694-.174-1.415-.324-2.393-.508l-.074-.01-.298-.035c-.396-.052-.789-.134-1.173-.244l-.258-.08-.12-.048c-.158-.062-.316-.113-.542-.18l-.49-.141c-.237-.07-.372-.117-.517-.18-.324-.143-.59-.403-.743-.731l-.028-.06-.038-.056c-.16-.234-.364-.435-.599-.593l-.12-.076c-.082-.049-.164-.11-.24-.178l.05.048c-.173-.185-.407-.303-.66-.33l-.202-.013c-.197-.016-.393-.041-.682-.085l-.496-.077c-.46-.068-.725-.095-1.059-.102-.047 0-.106-.009-.198-.027l-.259-.057c-.138-.03-.239-.048-.34-.059l-.09-.008.013.004c-.052-.008-.096-.045-.113-.095l-.035-.104-.062-.09-.173-.244c-.059-.08-.12-.159-.182-.236l-.151-.181.033.05c-.286-.452-.63-.865-1.023-1.229l-.069-.057-.445-.33c-.196-.15-.333-.26-.47-.38l-.175-.151c-.057-.05-.116-.1-.188-.159l-.62-.51c-.071-.06-.132-.113-.196-.171-.244-.226-.425-.52-.519-.847l-.119-.484c-.03-.12-.063-.244-.102-.386l-.372-1.338-.159-.576-.3-1.072c-.062-.223-.11-.405-.156-.586l-.145-.563c-.034-.127-.07-.258-.114-.406l-.427-1.416c-.08-.27-.137-.47-.196-.69-.047-.23-.09-.501-.116-.774l-.01-.076c-.1-.51-.233-1.014-.397-1.507l-.153-.509c-.023-.098-.01-.228.045-.347l.078-.14c.285-.57.537-1.158.753-1.759zm51.01-5.032l-.017.035c-.013.03-.025.06-.035.09l-.011.041.01-.023c-.115.33-.296.634-.532.893l-.071.08c-.296.36-.406.85-.296 1.311l.007.023-.005.027c-.141.76.072 1.556.587 2.153l.037.039-.032.048c-.248.408-.375.878-.37 1.355l.002.221c-.003.22-.022.436-.055.649l-.013.067-.151.046-.278-.538-.041-.2c-.076-.334-.175-.662-.297-.981l-.034-.086-.07.165c.305-.681.508-1.388.61-2.112.072-.418-.097-.866-.446-1.148-.104-.083-.172-.196-.195-.322l-.02-.094c-.025-.094-.064-.188-.117-.277l-.008-.012.31-.574.042.014c.183.057.365.073.572.012.213-.062.363-.182.486-.337l.057-.078c.028-.04.056-.087.096-.154.05-.07.107-.143.17-.216l.108-.117z"/>
                        </g>
                        <g fill="url(#0elowdyvhc)" stroke="#FFF" stroke-width="4" transform="translate(0 14.778) translate(1.556 16.333)">
                            <circle cx="2.201" cy="1.805" r="3.667"/>
                        </g>
                        <g fill="url(#0elowdyvhc)" stroke="#FFF" stroke-width="4" transform="translate(0 14.778) translate(3.111 23.333)">
                            <circle cx="1.944" cy="1.944" r="3.944"/>
                        </g>
                        <g fill="url(#0elowdyvhc)" stroke="#FFF" stroke-width="4" transform="translate(0 14.778) translate(36.556 42)">
                            <circle cx="2.401" cy="2.401" r="4.045"/>
                        </g>
                    </g>
                </g>
            </g>
        </g>
    </g>
</svg>
