<?xml version="1.0" encoding="UTF-8"?>
<svg width="127px" height="37px" viewBox="0 0 127 37" version="1.1" xmlns="http://www.w3.org/2000/svg" xmlns:xlink="http://www.w3.org/1999/xlink">
    <title>league-logo copy</title>
    <g id="Page-1" stroke="none" stroke-width="1" fill="none" fill-rule="evenodd">
        <g id="league-logo-copy" fill="#8793B0" fill-rule="nonzero">
            <path d="M48,23.1589333 L59.2417357,23.1589333 L59.2417357,19.7836875 L51.9626412,19.7836875 L51.9626412,8.00074181 L48,8.00074181 L48,23.1589333 Z M63.2958396,15.5598086 C63.6349209,14.3328512 64.5525226,13.6607693 65.8999247,13.6607693 C67.1878389,13.6607693 68.0585938,14.3669745 68.2615964,15.5598086 L63.2958396,15.5598086 L63.2958396,15.5598086 Z M65.9980798,10.7098401 C62.3209808,10.7098401 59.7533321,13.3113757 59.7533321,17.0367568 C59.7533321,20.8207411 62.6161898,23.3636735 66.523061,23.3636735 C68.6043957,23.3636735 70.1049793,22.8866882 71.1556852,22.3681614 L70.020209,19.6019435 C69.0014778,19.991395 68.0020802,20.1293721 66.7409356,20.1293721 C64.9733998,20.1293721 63.6371517,19.1257001 63.3382248,18.1353807 L72.0294145,18.1353807 L72.0294145,17.130967 C72.0294145,13.1474352 69.5904085,10.7098401 65.9980798,10.7098401 L65.9980798,10.7098401 Z M91.2373306,19.6190052 C89.7055158,19.6190052 88.6369635,18.395015 88.6369635,16.6888469 C88.6369635,14.989355 89.7062594,13.7586885 91.2373306,13.7586885 C92.7788121,13.7586885 93.8146461,14.9084975 93.8146461,16.8245985 C93.8146461,18.7399577 92.7788121,19.6182634 91.2373306,19.6182634 L91.2373306,19.6190052 Z M86.4909356,27.1394978 C87.7327466,27.6446719 89.3671781,28 90.8707361,28 C93.222741,28 94.7515813,27.3939394 95.8662368,26.194429 C96.7979669,25.1922406 97.2686653,23.7983754 97.2686653,22.0521494 L97.2686653,10.9153221 L93.8131589,10.9153221 L93.8131589,12.3967212 C93.1097139,11.5525389 91.9645708,10.7721524 90.3182417,10.7721524 C88.4562688,10.7721524 85.0044804,12.1519231 85.0044804,16.7823152 C85.0044804,21.4112236 88.4413968,22.630763 90.4074736,22.630763 C91.8329537,22.630763 93.0130459,22.2005119 93.8607492,21.2406068 L93.8614928,21.8874671 C93.8614928,23.539483 92.8115305,24.7211899 91.0016096,24.7211899 C89.1255083,24.7211899 87.459102,24.049108 87.459102,24.049108 L86.4909356,27.1394978 L86.4909356,27.1394978 Z M110.14632,10.9160639 L106.696018,10.9160639 L106.690813,18.3809206 C106.622402,19.4172323 105.603671,20.1212121 104.53958,20.1212121 C103.297769,20.1212121 102.383142,19.4216832 102.383142,18.2043693 L102.383142,10.9168058 L98.9313535,10.9168058 L98.9313535,18.2540707 C98.9313535,21.2131597 100.443835,23.4156003 103.580337,23.4156003 C104.807276,23.4156003 105.837905,22.9037499 106.690813,22.0788546 L106.690813,23.1596751 L110.14632,23.1596751 L110.14632,10.9168058 L110.14632,10.9160639 Z M114.932869,15.5598086 C115.271207,14.3328512 116.189552,13.6607693 117.535467,13.6607693 C118.822637,13.6607693 119.69488,14.3669745 119.897882,15.5598086 L114.932869,15.5598086 Z M117.634366,10.7098401 C113.957267,10.7098401 111.389618,13.3113757 111.389618,17.0367568 C111.389618,20.8207411 114.252476,23.3636735 118.159347,23.3636735 C120.240681,23.3636735 121.742752,22.8866882 122.791971,22.3681614 L121.656495,19.6019435 C120.637764,19.991395 119.639853,20.1293721 118.377221,20.1293721 C116.609686,20.1293721 115.274925,19.1257001 114.975254,18.1353807 L123.6657,18.1353807 L123.6657,17.130967 C123.6657,13.1474352 121.226694,10.7098401 117.634366,10.7098401 L117.634366,10.7098401 Z M80.3235222,17.9284151 L80.3235222,18.2229146 C80.3235222,19.5158933 79.2155591,20.4913764 77.7476939,20.4913764 C76.7758095,20.4913764 76.2173663,20.0930233 76.2173663,19.4001706 C76.2173663,18.7896591 76.69327,18.3853715 77.5528709,18.260747 L80.3235222,17.9284151 L80.3235222,17.9284151 Z M78.2072383,10.7424799 C75.2960467,10.7424799 73.2697383,11.6274619 73.2697383,11.6274619 L74.1895708,14.6228997 C74.1895708,14.6228997 76.0113893,13.9204035 78.2072383,13.9204035 C79.4029462,13.9204035 80.3235222,14.3506546 80.3235222,15.1191721 L80.3235222,15.38029 L79.8498494,15.4292497 L76.9051958,15.6844331 C74.22452,15.9685472 72.6443712,17.4573643 72.6443712,19.5655947 C72.6443712,21.820704 74.3620858,23.3963132 76.8204255,23.3963132 C78.2540851,23.3963132 79.5040757,22.8481139 80.3227786,21.8785653 L80.3227786,23.1396462 L83.7790286,23.1396462 L83.7790286,15.7274582 C83.7790286,12.4056229 81.8166698,10.7432217 78.2072383,10.7432217 L78.2072383,10.7424799 Z M124.635354,8.28856496 L124.023372,8.28856496 L124.023372,9.88271948 L123.717752,9.88271948 L123.717752,8.28782315 L123.10577,8.28782315 L123.10577,8.00074181 L124.635354,8.00074181 L124.635354,8.28856496 L124.635354,8.28856496 Z M127,9.88197767 L126.695124,9.88197767 L126.695124,8.3330737 L126.141886,9.69800823 L125.820651,9.69800823 L125.268157,8.34790994 L125.268157,9.88197767 L124.963281,9.88197767 L124.963281,8 L125.431749,8 L125.982012,9.34416379 L126.531532,8 L127,8 L127,9.88197767 L127,9.88197767 Z" id="Shape"></path>
            <polygon id="Path" points="14 0 14 24 37 24 37 13.8756808 23.7027386 13.8756808 23.7027386 0"></polygon>
            <path d="M0,23.5534109 L9.62751795,23.5534109 L9.62751795,14 L0,14 L0,23.5534109 Z M13.3724821,37 L23,37 L23,27.4465891 L13.3724821,27.4465891 L13.3724821,37 Z" id="Shape"></path>
        </g>
    </g>
</svg>