<?xml version="1.0" encoding="UTF-8"?>
<svg width="125px" height="25px" viewBox="0 0 125 25" version="1.1" xmlns="http://www.w3.org/2000/svg" xmlns:xlink="http://www.w3.org/1999/xlink">
    <title>Group 46</title>
    <g id="Page-1" stroke="none" stroke-width="1" fill="none" fill-rule="evenodd">
        <g id="Group-46" fill="#8793B0">
            <g id="cropped-combo-logo-on-light-1-_1_" fill-rule="nonzero">
                <g id="Group" transform="translate(52.000000, 12.500000) scale(-1, 1) rotate(-180.000000) translate(-52.000000, -12.500000) ">
                    <path d="M24.3989995,24.5608268 C23.4382573,24.0039452 22.8524389,22.8669786 22.9930354,21.9156392 C23.0399008,21.5211814 23.3210937,20.6626555 23.6257192,20.0361637 L24.1412394,18.8527903 L22.407217,12.7270926 C20.6731946,6.60139486 20.6497619,6.57819146 20.0170781,6.57819146 C19.4312597,6.57819146 19.1734996,6.94944587 16.6427642,11.5669226 C13.7136723,16.926908 13.830836,16.5788571 14.0651633,19.8505365 C14.1354616,20.917893 14.0651633,21.1267236 13.4559123,21.7532154 C12.0499481,23.2150296 10.386224,23.2150296 8.98025991,21.7764188 C8.11324869,20.8714861 8.06638323,19.6185025 8.83966345,17.9478577 L9.37861638,16.7644842 L8.62876889,13.8872626 C7.87892132,11.0796511 7.80862313,10.9404308 6.7072846,9.89627773 C5.2310223,8.50407371 4.94982948,7.71515811 5.48878239,6.55498806 C6.26206264,4.93075002 8.41787425,4.72191942 9.56607829,6.16053025 C10.1284639,6.87983566 10.1518966,7.57593765 9.63637648,9.01454849 C9.23802001,10.1283117 9.23802001,10.1515152 10.0113002,12.8895164 C10.9486096,16.1843992 11.089206,16.4860435 11.7218899,16.3932299 C12.0968136,16.346823 12.8700939,15.1170428 15.0024727,11.2188715 L17.7909682,6.11412345 L17.6503718,4.02581741 C17.5097754,2.09993517 17.5332081,1.86790117 18.0018629,1.28781615 C19.0797687,-0.0811844735 20.6731946,-0.38282868 22.0088605,0.498900537 C23.4382573,1.45023995 23.7897483,2.95846099 22.9227372,4.53629222 C22.6649771,5.02356363 22.4540825,5.76607244 22.4540825,6.23014045 C22.4540825,7.39031047 25.500338,17.7622305 26.0392909,18.4351291 C26.297051,18.7599767 26.9063021,19.2936549 27.4218223,19.5952991 C29.483903,20.8946896 29.4136048,23.6558942 27.2577931,24.6536404 C26.2267528,25.1409118 25.3128761,25.1177084 24.3989995,24.5608268 Z" id="Path"></path>
                    <path d="M18.4705175,19.5256889 C17.275448,19.0848243 16.8770916,17.5533999 17.7675355,16.6716707 C18.7985758,15.6507211 20.5794636,16.4396367 20.5794636,17.9246542 C20.5794636,18.9920107 19.4312597,19.8737399 18.4705175,19.5256889 Z" id="Path"></path>
                    <path d="M60.2979494,17.1357386 C56.970501,16.6020605 54.767824,13.562415 55.0958822,9.98909129 C55.5645369,5.23239423 60.3682476,2.86564739 65.0313618,5.09317383 C66.1327004,5.62685204 66.343595,6.06771665 66.2264313,7.48312408 L66.1561331,8.31844652 L65.3359874,7.78476826 C64.1409179,6.99585267 63.1098775,6.69420846 61.4930188,6.69420846 C59.3840727,6.69420846 58.3530324,7.45992068 57.7437813,9.40900629 L57.5797521,9.94268455 L62.3365973,9.98909129 L67.0934425,10.0587015 L67.0700097,11.5669226 C67.0231443,15.186653 63.9300233,17.7158237 60.2979494,17.1357386 Z M63.2270413,14.3049238 C63.6722632,14.0032796 64.1643507,13.4231946 64.3283798,13.0287368 L64.6330053,12.2630245 L61.2352588,12.2630245 C57.5328866,12.2630245 57.415723,12.3094314 58.3764651,13.4696014 C59.5481018,14.8850088 61.7976444,15.2562633 63.2270413,14.3049238 Z" id="Shape"></path>
                    <path d="M86.3785834,17.1357386 C85.1600811,16.7644842 84.0821754,15.9291618 83.4260585,14.8618055 C82.7933745,13.794449 82.7933745,13.7016354 82.7230766,9.20017568 L82.6293459,4.60590242 L83.4729243,4.60590242 C84.0118768,4.60590242 84.4805321,4.76832622 84.7851573,5.06997043 C85.2069469,5.48763164 85.2538119,5.83568265 85.2538119,9.45541311 C85.2538119,13.2839742 85.2772448,13.4231946 85.816198,14.0496864 C86.3082855,14.606568 86.6129106,14.722585 87.8782786,14.8153986 L89.3545403,14.9314156 L89.4248389,16.1611958 L89.4951368,17.3677727 L88.2532025,17.3445692 C87.5736527,17.3445692 86.7300743,17.2517557 86.3785834,17.1357386 Z" id="Path"></path>
                    <path d="M95.9157068,17.1589421 C94.0879535,16.6948741 92.1430365,15.186653 91.2994573,13.562415 C89.706032,10.4763627 91.3228902,6.27654725 94.6737717,4.83793643 C96.3843614,4.11863101 99.0088274,4.25785141 100.555388,5.13958063 C102.54717,6.29975065 104,8.64329409 104,10.7316002 C104,13.098347 102.242545,15.6971278 100.016435,16.6484673 C98.6573365,17.2285523 96.9701796,17.4373829 95.9157068,17.1589421 Z M99.3368855,14.4441442 C101.352101,13.446398 102.125381,10.8244137 101.047475,8.73610773 C99.8758387,6.48537786 96.3374956,5.99810645 94.4160115,7.80797167 C90.9011014,11.126058 94.9783969,16.6252639 99.3368855,14.4441442 Z" id="Shape"></path>
                    <path d="M1.05999549,16.8805013 C0.849100873,16.7644842 0.49760985,16.346823 0.310147971,15.9755686 C-0.955219713,13.5392116 1.92700668,11.3348886 3.98908736,13.1679572 C4.62177119,13.7248388 4.76236761,14.0032796 4.76236761,14.7921952 C4.76236761,16.1379924 3.75476001,17.1357386 2.44252685,17.1357386 C1.90357395,17.1357386 1.29432284,17.0197217 1.05999549,16.8805013 Z" id="Path"></path>
                    <path d="M30.9132998,16.8108911 C29.5307684,16.0451789 29.3433065,14.4441442 30.5149433,13.2839742 C31.6162818,12.1934144 32.7410531,12.1934144 33.8423916,13.2839742 C34.6859701,14.1192966 34.8499992,14.9082122 34.3813446,15.8131449 C33.7486607,17.0429251 32.1786675,17.5069931 30.9132998,16.8108911 Z" id="Path"></path>
                    <path d="M46.5195012,16.8108911 C46.0508466,16.6252639 45.4884609,16.3700264 45.3244318,16.2076027 C45.043239,15.9987721 44.8792098,16.0451789 44.504286,16.4164333 C44.1762277,16.7412808 43.7075731,16.9037046 43.0748892,16.9037046 L42.1141471,16.9037046 L42.1844453,11.0796511 C42.2547435,5.62685204 42.2781762,5.23239423 42.6999655,4.93075002 C42.9577255,4.74512282 43.5201112,4.60590242 43.9419004,4.60590242 L44.7151807,4.60590242 L44.7151807,8.62009068 C44.7151807,12.170211 44.7620461,12.7038892 45.1838353,13.3535844 C46.1914429,15.0010258 48.4644182,15.2794666 49.7063532,13.8872626 L50.339037,13.1911606 L50.339037,9.26978591 C50.339037,4.86113983 50.4327679,4.60590242 52.0496267,4.60590242 L52.9166379,4.60590242 L52.9166379,8.8521247 C52.9166379,11.2188715 52.7994742,13.4696014 52.6588778,14.0032796 C51.9793285,16.3700264 49.0736693,17.7158237 46.5195012,16.8108911 Z" id="Path"></path>
                    <path d="M69.3195523,12.8895164 C69.3195523,9.98909129 69.4132833,8.55048053 69.6710433,7.6919547 C70.8895455,3.6081562 77.3804131,3.14408819 79.4659266,6.99585267 C79.9345812,7.8775819 79.981447,8.36485326 80.0517449,12.0541939 C80.1454756,16.6948741 80.0751778,16.9037046 78.4583188,16.9037046 L77.5444425,16.9037046 L77.4741439,12.4950586 L77.403846,8.0864125 L76.7945949,7.48312408 C76.06818,6.78702206 74.4981867,6.50858126 73.4905791,6.90303906 C73.1156554,7.04225946 72.623568,7.48312408 72.3658079,7.90078531 C71.9440186,8.59688728 71.8971531,9.08415871 71.8971531,12.5414654 C71.8971531,16.8805013 71.8971531,16.9037046 70.1631308,16.9037046 L69.3195523,16.9037046 L69.3195523,12.8895164 Z" id="Path"></path>
                </g>
            </g>
            <path d="M106,5 L108,5 C108.552285,5 109,5.44771525 109,6 L109,21 L109,21 L107,21 C106.447715,21 106,20.5522847 106,20 L106,5 L106,5 Z" id="Rectangle"></path>
            <path d="M112.018702,4.69537441 C120.672901,4.3453809 125,7.11358943 125,13 C125,18.8904296 120.66699,21.5793736 112.000969,21.066832 C111.47207,21.0355977 111.059331,20.5972651 111.05993,20.067445 L111.05993,5.69419355 C111.060125,5.15808675 111.483052,4.71751022 112.018702,4.69537441 Z M114.968684,7.1329532 C114.425204,7.1455542 113.991346,7.59002126 113.991871,8.13364748 L113.991871,17.111892 C113.991674,17.6475405 114.41358,18.0882203 114.948734,18.111214 C119.644159,18.3261758 121.991871,16.5214717 121.991871,12.6971016 C121.991871,8.87815163 119.650809,7.02343551 114.968684,7.1329532 Z" id="Combined-Shape"></path>
        </g>
    </g>
</svg>