<?xml version="1.0" encoding="UTF-8"?>
<svg width="144px" height="45px" viewBox="0 0 144 45" version="1.1" xmlns="http://www.w3.org/2000/svg" xmlns:xlink="http://www.w3.org/1999/xlink">
    <title>Qualcomm white</title>
    <g id="Page-1" stroke="none" stroke-width="1" fill="none" fill-rule="evenodd" opacity="0.7">
        <g id="Qualcomm-white" fill="#FFFFFF" fill-rule="nonzero">
            <path d="M3.96332866,44.7310272 C3.73623966,44.7310272 3.54933853,44.5655963 3.46648546,44.3586012 L0.0312481769,35.4589146 C-0.0725246131,35.2106307 0.093456799,34.9620714 0.362385234,34.9620714 L1.74886678,34.9620714 C2.01779521,34.9620714 2.12184325,35.1071331 2.20469633,35.3138529 L4.93609534,42.7442049 L7.60611142,35.3138529 C7.6889645,35.1071331 7.79218677,34.9620714 8.06194097,34.9620714 L9.42750281,34.9620714 C9.69643123,34.9620714 9.86241264,35.2106307 9.75863985,35.4589146 L6.32257689,44.3586012 C6.24054959,44.5655963 6.05364846,44.7310272 5.80563975,44.7310272 L3.96332866,44.7310272" id="Fill-1"></path>
            <path d="M15.4072378,36.3281838 C13.8346809,36.3281838 12.6549192,37.4457369 12.4060847,39.0188443 L18.367102,39.0188443 C18.160107,37.3218702 16.9186871,36.3281838 15.4072378,36.3281838 Z M20.3335551,39.5982653 L20.3335551,39.9709665 C20.3335551,40.1779616 20.2297823,40.3640369 19.9396589,40.3640369 L12.365071,40.3640369 C12.5098575,42.0612863 13.8137612,43.2826123 15.4900909,43.2826123 C16.7527057,43.2826123 17.539397,42.7442049 18.160107,42.0403666 C18.3051687,41.8749357 18.4703243,41.8130024 18.6773193,41.9577888 L19.5878774,42.5578543 C19.7948725,42.7026407 19.7747785,42.9305555 19.6707305,43.0750667 C18.8430255,44.1928951 17.456544,44.9999556 15.4490772,44.9999556 C12.4479241,44.9999556 10.3157649,42.8061383 10.3157649,39.867469 C10.3157649,36.9904579 12.4479241,34.6724985 15.3871439,34.6724985 C18.2842489,34.6724985 20.3335551,36.825027 20.3335551,39.5982653 Z" id="Fill-2"></path>
            <path d="M29.6241092,39.4532036 C29.6241092,37.6320875 28.6306981,36.5145344 26.8712409,36.5145344 C25.1126086,36.5145344 23.9738605,37.7146653 23.9738605,39.4532036 L23.9738605,44.3792457 C23.9738605,44.5862407 23.7880604,44.7310272 23.6011593,44.7310272 L22.3594642,44.7310272 C22.1524691,44.7310272 21.9875888,44.5655963 21.9875888,44.3586012 L21.9875888,35.3554171 C21.9875888,35.1275023 22.1524691,34.9620714 22.3594642,34.9620714 L23.6011593,34.9620714 C23.7880604,34.9620714 23.9738605,35.1275023 23.9738605,35.3350479 L23.9738605,36.4110368 C24.5329124,35.4382702 25.7743322,34.693143 27.4099235,34.693143 C30.0171796,34.693143 31.6106562,36.4729702 31.6106562,38.9359912 L31.6106562,44.3792457 C31.6106562,44.5862407 31.4245809,44.7310272 31.2178611,44.7310272 L30.0171796,44.7310272 C29.8101846,44.7310272 29.6241092,44.5862407 29.6241092,44.3792457 L29.6241092,39.4532036" id="Fill-3"></path>
            <path d="M34.5482244,36.6386764 L33.0995343,36.6386764 C32.9134589,36.6386764 32.7477528,36.4520505 32.7477528,36.2453307 L32.7477528,35.3554171 C32.7477528,35.1275023 32.9134589,34.9620714 33.0995343,34.9620714 L34.5482244,34.9620714 L34.5482244,32.0024825 C34.5482244,31.7751182 34.7139306,31.6091368 34.9410196,31.6091368 L36.1626208,31.6091368 C36.3696158,31.6091368 36.5355972,31.7751182 36.5355972,32.0024825 L36.5355972,34.9620714 L39.5364751,34.9620714 C39.7434702,34.9620714 39.9086258,35.1275023 39.9086258,35.3554171 L39.9086258,36.2453307 C39.9086258,36.4520505 39.7434702,36.6386764 39.5364751,36.6386764 L36.5355972,36.6386764 L36.5355972,41.5435234 C36.5355972,42.6200629 37.2182405,43.0750667 37.9011591,43.0750667 C38.2119269,43.0750667 38.5840776,42.9924889 38.9776985,42.7648493 C39.246627,42.5991432 39.4946357,42.5991432 39.6606171,42.827058 L40.0947011,43.5099765 C40.2394876,43.7169716 40.1984739,43.9448864 40.0324925,44.0893975 C39.453622,44.6071604 38.5840776,44.8964581 37.5702973,44.8964581 C36.058848,44.8964581 34.5482244,44.0483839 34.5482244,41.9368691 L34.5482244,36.6386764" id="Fill-4"></path>
            <path d="M43.3846014,40.4675345 C43.3846014,42.1854283 44.2946089,43.3029815 46.0540669,43.3029815 C47.7725113,43.3029815 48.8072114,42.123495 48.8072114,40.4884542 L48.8072114,35.3350479 C48.8072114,35.1275023 48.9930114,34.9620714 49.1790868,34.9620714 L50.400688,34.9620714 C50.607683,34.9620714 50.7934831,35.1275023 50.7934831,35.3554171 L50.7934831,44.3586012 C50.7934831,44.5655963 50.607683,44.7310272 50.400688,44.7310272 L49.1790868,44.7310272 C48.9930114,44.7310272 48.8072114,44.5862407 48.8072114,44.3792457 L48.8072114,43.2826123 C48.2063201,44.2963926 47.1306064,44.9999556 45.4952904,44.9999556 C42.9499668,44.9999556 41.3975038,43.3236259 41.3975038,40.819316 L41.3975038,35.3350479 C41.3975038,35.1275023 41.5833039,34.9620714 41.790299,34.9620714 L43.0119002,34.9620714 C43.2188952,34.9620714 43.3846014,35.1275023 43.3846014,35.3350479 L43.3846014,40.4675345" id="Fill-5"></path>
            <path d="M57.9738996,34.9001381 C58.1596996,34.9001381 58.3666947,35.0036356 58.3666947,35.3138529 L58.3666947,36.5351788 C58.3666947,36.8453962 58.1396057,36.9488937 57.9738996,36.9488937 L57.5599094,36.9488937 C56.1525082,36.9488937 55.1797415,37.735585 55.1797415,39.8261801 L55.1797415,44.3792457 C55.1797415,44.5862407 54.9936661,44.7310272 54.806765,44.7310272 L53.5650699,44.7310272 C53.3583501,44.7310272 53.1931945,44.5655963 53.1931945,44.3586012 L53.1931945,35.3554171 C53.1931945,35.1275023 53.3583501,34.9620714 53.5650699,34.9620714 L54.7247377,34.9620714 C54.9108131,34.9620714 55.0966132,35.1275023 55.0966132,35.3350479 L55.0966132,36.5351788 C55.5106033,35.6452652 56.4423563,34.9001381 57.6628564,34.9001381 L57.9738996,34.9001381" id="Fill-6"></path>
            <path d="M63.9951987,36.3281838 C62.4226418,36.3281838 61.2431553,37.4457369 60.9943208,39.0188443 L66.9553382,39.0188443 C66.7483431,37.3218702 65.506648,36.3281838 63.9951987,36.3281838 L63.9951987,36.3281838 Z M68.921516,39.5982653 L68.921516,39.9709665 C68.921516,40.1779616 68.8177432,40.3640369 68.5278951,40.3640369 L60.9530319,40.3640369 C61.0980936,42.0612863 62.4017221,43.2826123 64.0783271,43.2826123 C65.3409419,43.2826123 66.1276332,42.7442049 66.7483431,42.0403666 C66.8934048,41.8749357 67.0582852,41.8130024 67.2652803,41.9577888 L68.1761136,42.5578543 C68.3828334,42.7026407 68.3627395,42.9305555 68.2589667,43.0750667 C67.4312617,44.1928951 66.0445049,44.9999556 64.0370381,44.9999556 C61.0361603,44.9999556 58.9037258,42.8061383 58.9037258,39.867469 C58.9037258,36.9904579 61.0361603,34.6724985 63.9751048,34.6724985 C66.8722099,34.6724985 68.921516,36.825027 68.921516,39.5982653 L68.921516,39.5982653 Z" id="Fill-7"></path>
            <path d="M77.7782622,35.9141937 C77.9852572,36.1005443 77.9852572,36.3697479 77.7983561,36.5764677 L77.3023387,37.1558888 C77.0956189,37.3838035 76.8258647,37.3422394 76.556661,37.1558888 C75.833004,36.6180319 75.0050238,36.2662504 74.0526263,36.2662504 C72.9557176,36.2662504 72.1481066,36.7630936 72.1481066,37.4457369 C72.1481066,38.0460776 72.5629225,38.4394233 73.5976225,38.6670628 L75.3152411,39.0394888 C77.1776462,39.4328344 78.2751053,40.2189753 78.2751053,41.8955802 C78.2751053,43.5099765 76.7845758,44.9999556 74.1145597,44.9999556 C72.3760214,44.9999556 71.0933126,44.3996149 70.3066213,43.7378913 C69.7888584,43.3029815 69.8306978,42.9305555 70.1205459,42.6822715 L70.6584028,42.2267172 C70.9485262,41.9784333 71.1965349,42.123495 71.4032547,42.2889259 C72.1280127,42.9512 73.038846,43.4271234 74.1974127,43.4271234 C75.5010412,43.4271234 76.2257992,42.7857691 76.2257992,42.1023 C76.2257992,41.3365284 75.728956,41.0472308 74.5494695,40.7986715 L72.8519448,40.4259703 C71.1965349,40.0535444 70.2446879,39.1842752 70.2446879,37.6733764 C70.2446879,35.9348381 71.7762312,34.6724985 74.0944657,34.6724985 C75.7908894,34.6724985 77.0744239,35.272564 77.7782622,35.9141937" id="Fill-8"></path>
            <path d="M38.8915423,7.56908271 L37.0445518,7.56908271 C36.6991013,7.56908271 36.3553023,7.88315367 36.3553023,8.25998378 L36.3553023,16.0809288 C36.3553023,18.498532 34.8529366,20.2257847 32.3166966,20.2257847 C29.719349,20.2257847 28.4041596,18.5610159 28.4041596,16.0495493 L28.4041596,8.25998378 C28.4041596,7.88315367 28.0917402,7.56908271 27.7149101,7.56908271 L25.8679204,7.56908271 C25.4927418,7.56908271 25.1489429,7.88315367 25.1489429,8.25998378 L25.1489429,16.5821762 C25.1489429,20.4451665 27.5582875,23.0524234 31.4730265,23.0524234 C33.8198881,23.0524234 35.4169431,22.1099352 36.3553023,20.7289589 L36.3553023,21.985518 C36.3553023,22.3623481 36.6991013,22.6442137 37.0445518,22.6442137 L38.8915423,22.6442137 C39.2667209,22.6442137 39.6121714,22.3309685 39.6121714,21.9541384 L39.6121714,8.29136335 C39.6121714,7.88315367 39.2667209,7.56908271 38.8915423,7.56908271" id="Fill-9"></path>
            <path d="M16.6296647,18.204555 L15.1922602,14.4478149 C15.067843,14.1329181 14.8170817,13.8499515 14.253901,13.8499515 L12.3758061,13.8499515 C11.9056631,13.8499515 11.5304845,14.1642977 11.7498663,14.76106 L13.6464035,19.7036177 C13.0171605,19.8594145 12.3510328,19.9433686 11.6549018,19.9433686 C7.022011,19.9433686 3.73431284,16.3005858 3.73431284,11.526487 C3.73431284,6.7523881 7.022011,3.10877955 11.6549018,3.10877955 C16.2880678,3.10877955 19.575766,6.7523881 19.575766,11.526487 C19.575766,14.2986243 18.4667459,16.6873253 16.6296647,18.204555 M11.6549018,0 C5.33081731,0 0.2283339,4.93182249 0.2283339,11.526487 C0.2283339,18.1211514 5.33081731,23.0529739 11.6549018,23.0529739 C12.7369465,23.0529739 13.7815558,22.9051596 14.7727649,22.6332033 L16.0062022,25.848233 C16.132271,26.1936836 16.3813808,26.41279 16.8512486,26.41279 L18.8245831,26.41279 C19.2944509,26.41279 19.6382499,26.0987191 19.4191434,25.5025072 L17.8102523,21.2948922 C20.9823415,19.2962338 23.0809191,15.7547464 23.0809191,11.526487 C23.0809191,4.93182249 17.9792615,0 11.6549018,0" id="Fill-10"></path>
            <path d="M143.450198,21.8905535 L138.221646,8.16584506 C138.065849,7.75791065 137.783708,7.56908271 137.407704,7.56908271 L135.154155,7.56908271 C134.7776,7.56908271 134.497111,7.75791065 134.338837,8.16584506 L130.677061,18.1841858 L126.920321,8.16584506 C126.764524,7.75791065 126.481558,7.56908271 126.106379,7.56908271 L123.884485,7.56908271 C123.50738,7.56908271 123.22634,7.75791065 123.068892,8.16584506 L119.375736,18.1841858 L115.681755,8.16584506 C115.524307,7.75791065 115.242992,7.56908271 114.867813,7.56908271 L112.643993,7.56908271 C112.268814,7.56908271 111.986949,7.75791065 111.830326,8.16584506 L108.105791,18.1841858 L104.41181,8.16584506 C104.254362,7.75791065 103.973047,7.56908271 103.596217,7.56908271 L101.342668,7.56908271 C100.967489,7.56908271 100.684798,7.75791065 100.529001,8.16584506 L95.3004491,21.8905535 C95.1446523,22.2673836 95.3326545,22.6442137 95.8025223,22.6442137 L97.8053096,22.6442137 C98.1804881,22.6442137 98.4948344,22.4562116 98.6192516,22.0793815 L102.469855,11.7147644 L106.321285,22.0793815 C106.478182,22.4884169 106.758397,22.6442137 107.135227,22.6442137 L108.982217,22.6442137 C109.357396,22.6442137 109.640362,22.4884169 109.796159,22.0793815 L113.740626,11.7147644 L117.560125,22.0793815 C117.716748,22.4562116 117.998614,22.6442137 118.373792,22.6442137 L120.315747,22.6442137 C120.690926,22.6442137 120.97114,22.4562116 121.129414,22.0793815 L124.979467,11.7147644 L128.89338,22.0793815 C129.049452,22.4884169 129.331318,22.6442137 129.707322,22.6442137 L131.554313,22.6442137 C131.929491,22.6442137 132.211632,22.4884169 132.367429,22.0793815 L136.249412,11.7783493 L140.068636,22.0793815 C140.194705,22.4562116 140.5074,22.6442137 140.882578,22.6442137 L142.948675,22.6442137 C143.418818,22.6442137 143.605995,22.2673836 143.450198,21.8905535" id="Fill-11"></path>
            <path d="M49.6607907,20.0383331 C46.9687539,20.0383331 45.0590042,17.8392858 45.0590042,15.1067858 C45.0590042,12.3429063 46.9687539,10.2063429 49.6607907,10.2063429 C52.3217232,10.2063429 54.2625772,12.3429063 54.2625772,15.1067858 C54.2625772,17.8392858 52.3217232,20.0383331 49.6607907,20.0383331 M56.7990925,7.56853219 L54.952102,7.56853219 C54.5769234,7.56853219 54.2311976,7.88287841 54.2311976,8.29081283 L54.2311976,9.5476472 C53.2931136,8.13501601 51.4772274,7.1292182 49.3169917,7.1292182 C45.2461806,7.1292182 41.7402018,10.3646171 41.7402018,15.0754063 C41.7402018,19.8495051 45.2461806,23.0529739 49.2856122,23.0529739 C51.4772274,23.0529739 53.2617341,22.0469008 54.2311976,20.6345449 L54.2311976,21.9538632 C54.2311976,22.3306933 54.5769234,22.6447642 54.952102,22.6447642 L56.7990925,22.6447642 C57.174271,22.6447642 57.488342,22.3306933 57.488342,21.9538632 L57.488342,8.29081283 C57.488342,7.88287841 57.174271,7.56853219 56.7990925,7.56853219" id="Fill-12"></path>
            <path d="M77.8993763,19.3152267 C77.5241977,18.8123278 77.1481934,18.9697761 76.8032934,19.1577783 C75.9896266,19.6292976 75.0826469,20.0688869 73.954634,20.0688869 C71.2309423,20.0688869 69.4161571,17.9028707 69.4161571,15.1076116 C69.4161571,12.3115267 71.2309423,10.1124795 73.954634,10.1124795 C75.0826469,10.1124795 76.0521105,10.5206891 76.8660525,11.0235881 C77.2098515,11.2429698 77.6172354,11.3690386 77.9618602,10.8975193 L78.8391118,9.67289022 C79.2142904,9.13943753 78.9010452,8.79481277 78.6816635,8.63653862 C77.3978537,7.6626709 75.70666,7.1292182 73.8604953,7.1292182 C69.1970507,7.1292182 66.0957031,10.5839988 66.0957031,15.1076116 C66.0957031,19.6292976 69.1970507,23.0529739 73.8604953,23.0529739 C75.70666,23.0529739 77.3978537,22.5186954 78.6816635,21.5448277 C78.9010452,21.3882051 79.24567,21.011375 78.8391118,20.5084761 L77.8993763,19.3152267" id="Fill-13"></path>
            <path d="M87.5417127,20.0055772 C84.8494006,20.0055772 82.9399262,17.8392858 82.9399262,15.1067858 C82.9399262,12.3429063 84.8494006,10.2066182 87.5417127,10.2066182 C90.2337495,10.2066182 92.1434992,12.3429063 92.1434992,15.1067858 C92.1434992,17.8392858 90.2337495,20.0055772 87.5417127,20.0055772 M87.5417127,7.16059777 C83.159308,7.16059777 79.6530539,10.6156536 79.6530539,15.1067858 C79.6530539,19.6287471 83.159308,23.0529739 87.5417127,23.0529739 C91.9241175,23.0529739 95.4300963,19.6287471 95.4300963,15.1067858 C95.4300963,10.6156536 91.9241175,7.16059777 87.5417127,7.16059777" id="Fill-14"></path>
            <path d="M63.279249,0.408484935 L61.4322585,0.408484935 C61.05708,0.408484935 60.7116295,0.753935469 60.7116295,1.13076557 L60.7116295,21.9224836 C60.7116295,22.2993137 61.05708,22.6447642 61.4322585,22.6447642 L63.279249,22.6447642 C63.6858072,22.6447642 63.9684986,22.2993137 63.9684986,21.9224836 L63.9684986,1.13076557 C63.9684986,0.753935469 63.6858072,0.408484935 63.279249,0.408484935" id="Fill-15"></path>
        </g>
    </g>
</svg>