<?xml version="1.0" encoding="UTF-8"?>
<svg width="241px" height="30px" viewBox="0 0 241 30" version="1.1" xmlns="http://www.w3.org/2000/svg" xmlns:xlink="http://www.w3.org/1999/xlink">
    <title>safebreach white</title>
    <g id="Page-1" stroke="none" stroke-width="1" fill="none" fill-rule="evenodd" opacity="0.7">
        <g id="safebreach-white" fill="#FFFFFF" fill-rule="nonzero">
            <g id="Dot-Grid" transform="translate(0.000000, 0.000766)">
                <g id="Inner-Dot" transform="translate(11.027065, 10.972569)">
                    <path d="M4.02368713,0 C2.09773025,0.00614220988 0.444434809,1.36910291 0.0752428958,3.25507953 C-0.293949017,5.14105616 0.723835023,7.02453614 2.50594187,7.75325663 C4.28804871,8.48197712 6.33790829,7.85288588 7.40147115,6.25084416 C8.46503401,4.64880244 8.24594672,2.52020658 6.87824104,1.16727479 C6.11917425,0.416407401 5.09257932,-0.00337706117 4.02368713,0" id="Center-Dot"></path>
                </g>
                <g id="Outer-Dot-Grid">
                    <path d="M4.03615205,10.9725897 C3.6838344,10.9763838 3.33362733,11.027422 2.99494181,11.1243327 C1.23113657,11.5865056 0.0014739134,13.1772039 0.0014739134,14.996699 C0.0014739134,16.816194 1.23113657,18.4068923 2.99494181,18.8690652 C3.3352718,18.9683298 3.68746756,19.0213342 4.04200154,19.0266445 C6.27110677,19.0266445 8.07815359,17.2236829 8.07815359,14.9996171 C8.07815359,12.7755513 6.27110677,10.9725897 4.04200154,10.9725897 L4.03615205,10.9725897 Z" id="Path"></path>
                    <path d="M26.030256,8.05447431 C27.9562128,8.0483321 29.6095083,6.6853714 29.9787002,4.79939478 C30.3478921,2.91341816 29.3301081,1.02993817 27.5480012,0.301217682 C25.7658944,-0.427502808 23.7160348,0.201588435 22.6524719,1.80363015 C21.5889091,3.40567187 21.8079964,5.53426774 23.1757021,6.88719952 C23.9347688,7.63806691 24.9613638,8.05785138 26.030256,8.05447431" id="Path-2"></path>
                    <path d="M15.0507525,8.05445385 C17.2798577,8.05445385 19.0869045,6.25149226 19.0869045,4.02742642 C19.0869045,1.80336058 17.2798577,0.000398991349 15.0507525,0.000398991349 C12.8216473,0.000398991349 11.0146004,1.80336058 11.0146004,4.02742642 C11.0146004,6.25149226 12.8216473,8.05445385 15.0507525,8.05445385" id="Path-3"></path>
                    <path d="M4.03615205,8.05445385 C6.26525727,8.05445385 8.0723041,6.25149226 8.0723041,4.02742642 C8.0723041,1.80336058 6.26525727,0.000398991349 4.03615205,0.000398991349 C1.80704682,0.000398991349 0,1.80336058 0,4.02742642 C0,6.25149226 1.80704682,8.05445385 4.03615205,8.05445385" id="Path-4"></path>
                    <path d="M26.030256,21.9447803 C23.8011507,21.9447803 21.9941039,23.7477419 21.9941039,25.9718078 C21.9941039,28.1958736 23.8011507,29.9988352 26.030256,29.9988352 C28.2593612,29.9988352 30.066408,28.1958736 30.066408,25.9718078 C30.066408,23.7477419 28.2593612,21.9447803 26.030256,21.9447803" id="Path-5"></path>
                    <path d="M15.0507525,29.9988352 C17.2798577,29.9988352 19.0869045,28.1958736 19.0869045,25.9718078 C19.0869045,23.7477419 17.2798577,21.9447803 15.0507525,21.9447803 C12.8216473,21.9447803 11.0146004,23.7477419 11.0146004,25.9718078 C11.021026,28.1932127 12.8243142,29.9924242 15.0507525,29.9988352" id="Path-6"></path>
                    <path d="M4.03615205,21.9447599 C2.11019517,21.9509021 0.456899725,23.3138628 0.0877078115,25.1998394 C-0.281484102,27.085816 0.736299938,28.969296 2.51840678,29.6980165 C4.30051362,30.426737 6.35037321,29.7976458 7.41393607,28.195604 C8.47749893,26.5935623 8.25841164,24.4649665 6.89070596,23.1120347 C6.13163917,22.3611673 5.10504423,21.9413828 4.03615205,21.9447599" id="Path-7"></path>
                    <path d="M26.0361055,10.9725897 C25.6837988,10.9765245 25.3336105,11.02756 24.9948952,11.1243327 C23.23109,11.5865056 22.0014273,13.1772039 22.0014273,14.996699 C22.0014273,16.816194 23.23109,18.4068923 24.9948952,18.8690652 C25.3352252,18.9683298 25.687421,19.0213342 26.041955,19.0266445 C28.2710602,19.0266445 30.078107,17.2236829 30.078107,14.9996171 C30.078107,12.7755513 28.2710602,10.9725897 26.041955,10.9725897 L26.0361055,10.9725897 Z" id="Path-8"></path>
                </g>
            </g>
            <path d="M229.32948,0.00116479311 L229.32948,9.98118929 C229.891072,9.78857714 230.4658,9.63644297 231.049232,9.52596011 C231.686616,9.39778339 232.335212,9.33326596 232.985415,9.33336314 C234.305253,9.29201252 235.619473,9.52247441 236.846082,10.0103707 C237.815856,10.4224101 238.662232,11.0778735 239.30287,11.9129952 C239.942444,12.7817912 240.389125,13.7765929 240.613157,14.831131 C240.881842,16.0716339 241.011328,17.3381176 240.999224,18.6071988 L240.999224,29.9120569 L236.530209,29.9120569 L236.530209,19.3133876 C236.543023,18.3911617 236.476484,17.4695398 236.331326,16.5586674 C236.229558,15.9032909 236.003219,15.2733514 235.664484,14.702733 C235.360378,14.2373724 234.92182,13.875108 234.406842,13.6638767 C233.794921,13.4306194 233.143033,13.3195731 232.488207,13.3370455 C231.874746,13.3366784 231.262976,13.4012386 230.663165,13.5296424 C230.200688,13.6182496 229.743679,13.733218 229.294383,13.8739825 L229.294383,29.9120569 L224.837067,29.9120569 L224.837067,0.759880106 L229.32948,0.00116479311 Z M196.38512,9.77691979 C197.335062,10.0889306 198.193052,10.6302267 198.882855,11.3527131 C199.521093,12.0531072 199.982361,12.89552 200.228239,13.8097835 C200.512144,14.8579714 200.651862,15.9398125 200.643553,17.0255692 L200.643553,29.0366162 C199.929914,29.1883593 198.888704,29.3692837 197.420481,29.591062 C195.80804,29.814418 194.181578,29.9216934 192.5537,29.9120569 C191.450366,29.9203721 190.349594,29.8048663 189.272133,29.5677169 C188.360606,29.3759006 187.497184,29.0027292 186.733452,28.4704978 C186.030034,27.9631486 185.466619,27.2865706 185.095593,26.5036743 C184.672477,25.5638211 184.472307,24.5392685 184.510644,23.5096669 C184.4774,22.5108022 184.707332,21.5207088 185.177486,20.6382213 C185.618104,19.8633639 186.240295,19.2065345 186.99083,18.7239242 C187.799565,18.2167437 188.693182,17.858919 189.628952,17.667559 C191.191371,17.3353845 192.79748,17.2585129 194.384592,17.4399444 C194.987021,17.5119128 195.584697,17.6190954 196.174538,17.7609394 L196.174538,17.0138966 C196.179762,16.5078143 196.116804,16.0033263 195.987354,15.5139748 C195.734999,14.5286393 195.0065,13.7339185 194.045322,13.3954082 C193.413494,13.1783772 192.747914,13.0756037 192.079891,13.0919221 C191.100335,13.0867286 190.122045,13.1628628 189.155143,13.3195367 C188.416101,13.4350708 187.688171,13.6127371 186.979131,13.8506374 L186.394181,10.1446049 C187.223944,9.87181353 188.072381,9.65920859 188.932862,9.50845129 C190.120798,9.30245062 191.324565,9.20089876 192.530302,9.20496517 C193.838526,9.17495706 195.142258,9.36839697 196.38512,9.77691979 Z M53.6164778,2.30065582 C55.1108113,2.27860309 56.6010016,2.4632282 58.044546,2.84926535 C59.0999447,3.12781951 60.1174392,3.53350524 61.0745848,4.05737358 L59.5829634,7.97351185 C58.6846748,7.47978498 57.7248141,7.10691362 56.7284095,6.86462024 C55.6808455,6.61185897 54.6064861,6.48644113 53.5287354,6.49109885 C52.4605353,6.42431388 51.3994241,6.70486241 50.5045461,7.29066807 C49.7806854,7.81063901 49.3691769,8.66033838 49.4106904,9.54930519 C49.4031204,10.0776331 49.5341981,10.5987466 49.7909076,11.0608995 C50.0542849,11.5053588 50.4067552,11.8908087 50.8262683,12.1931362 C51.3108848,12.5398902 51.8280607,12.8389395 52.3705352,13.0860858 C52.9554848,13.3662268 53.6223273,13.6288591 54.3418153,13.885655 C55.5877578,14.3408842 56.6816135,14.8077859 57.6935763,15.2746877 C58.6057981,15.7008557 59.4448175,16.2681294 60.179612,16.9555339 C60.852483,17.6003343 61.3807894,18.3800624 61.7297284,19.2433524 C62.1123169,20.2612792 62.2950228,21.3431473 62.267882,22.4299567 C62.377064,24.5829158 61.4247516,26.6532176 59.7175018,27.9744148 C58.0172484,29.2700671 55.5370622,29.9159478 52.2769433,29.9120569 C51.272781,29.9182236 50.2696093,29.8479848 49.276152,29.7019512 C48.4610025,29.5807578 47.6541726,29.4092311 46.8603102,29.1883593 C46.2425703,29.0123786 45.6352174,28.8019418 45.0411171,28.5580419 C44.6232108,28.3859543 44.2150826,28.1911191 43.8185725,27.9744148 L45.2341504,24.0407677 C46.1297054,24.5022653 47.0656069,24.8812494 48.0302094,25.1730044 C49.4064246,25.5882156 50.8394686,25.7851584 52.2769433,25.7566315 C54.008394,25.7566315 55.2699352,25.4648179 56.061567,24.8811908 C56.8389577,24.3011492 57.2772519,23.3740662 57.2314661,22.4066116 C57.2454755,21.8338649 57.1061505,21.2677513 56.8278509,20.7666193 C56.5270048,20.2769237 56.1288647,19.853863 55.6579518,19.5234934 C55.1054388,19.1143128 54.5113812,18.7641612 53.8855546,18.4788008 C53.0848677,18.1265257 52.2668442,17.8148601 51.4346159,17.5449973 C50.5309331,17.2348764 49.6461558,16.8724116 48.7847943,16.4594508 C47.9579897,16.081744 47.1928825,15.5820072 46.51519,14.9770378 C45.860194,14.384118 45.325936,13.6707422 44.9416756,12.87598 C44.5297166,11.9593789 44.3297939,10.9620251 44.3567261,9.95784421 C44.2551832,7.7976412 45.1782688,5.71566498 46.8486112,4.33751462 C48.5020687,2.9834996 50.7580242,2.30454667 53.6164778,2.30065582 Z M156.12889,9.20496517 C156.467,9.20680609 156.804782,9.22628693 157.140853,9.26332788 C157.530819,9.29834551 157.920786,9.35087196 158.310752,9.42090722 C158.690969,9.4851062 159.065337,9.56097773 159.428006,9.65435808 C159.720794,9.72045276 160.009791,9.80227978 160.293731,9.89948149 L159.533297,13.8564737 C159.040321,13.6936654 158.53839,13.5592102 158.029976,13.4537709 C157.30122,13.3005203 156.557721,13.2281 155.813018,13.2378289 C154.905194,13.2626642 154.004527,13.4058956 153.133949,13.6638767 L153.133949,29.9120569 L148.758526,29.9120569 L148.758526,10.5998341 C149.790455,10.206908 150.85017,9.89088259 151.928952,9.65435808 C153.306248,9.33969352 154.716041,9.1888458 156.12889,9.20496517 L156.12889,9.20496517 Z M131.19249,2.30065582 C132.739231,2.29429221 134.283556,2.42318323 135.807742,2.68584975 C137.09816,2.88868894 138.345625,3.30488545 139.498774,3.91730306 C140.492008,4.44540222 141.329039,5.22419429 141.926315,6.17594019 C142.538916,7.23885351 142.838955,8.45247701 142.79204,9.67770317 C142.827874,10.8306998 142.509463,11.9670571 141.879519,12.9343427 C141.224896,13.8751645 140.335794,14.6294947 139.299891,15.1229446 C140.744126,15.5255373 142.025054,16.3707531 142.961675,17.5391611 C143.791467,18.7354703 144.20267,20.1714275 144.131575,21.6245512 C144.131575,24.4103982 143.105963,26.4958926 141.05474,27.8810344 C139.003517,29.2661762 135.862337,29.9431837 131.631202,29.9120569 C130.180527,29.9120569 128.720103,29.8673122 127.24993,29.7778227 C125.945737,29.7033583 124.651319,29.5079737 123.383413,29.1941955 L123.383413,2.93097316 C123.964463,2.82592027 124.58451,2.72670365 125.243553,2.6333233 C125.898696,2.53994296 126.565539,2.47574397 127.24993,2.41738125 C127.934321,2.35901853 128.612862,2.32983718 129.279705,2.30065582 C129.946547,2.27147446 130.589992,2.30065582 131.19249,2.30065582 Z M94.5512489,0.00116479311 C95.4931556,-0.0118422118 96.4333992,0.0841239263 97.3531573,0.287142103 C97.967283,0.424688179 98.5727749,0.598129982 99.166501,0.806570279 L98.3007756,4.66434583 C97.8225347,4.44174069 97.320016,4.27526597 96.8033047,4.16826274 C96.200217,4.03503197 95.5842555,3.96848628 94.966563,3.96982951 C94.3269683,3.95249876 93.6904092,4.06364475 93.0947244,4.29666072 C92.6225498,4.49393206 92.2080371,4.80712529 91.8897283,5.20711909 C91.5726463,5.62285226 91.3509891,6.10301996 91.2404343,6.61366056 C91.1110814,7.20204249 91.0482941,7.80304602 91.0532504,8.40539595 L91.0532504,9.72439334 L98.2422807,9.72439334 L98.2422807,13.6230228 L91.0590999,13.6230228 L91.0590999,29.9120569 L86.4847943,29.9120569 L86.4847943,8.31785188 C86.4847943,5.72654727 87.1535866,3.69357932 88.4911713,2.21894802 C89.828756,0.744316715 91.8487818,0.00505564087 94.5512489,0.00116479311 Z M76.4704576,9.77691979 C77.4197795,10.0902411 78.2774688,10.6313478 78.9681922,11.3527131 C79.6081712,12.0527716 80.0714196,12.8951382 80.3194258,13.8097835 C80.5947175,14.8533406 80.7284984,15.9290203 80.7171915,17.0080603 L80.7171915,29.0366162 C80.003553,29.1883593 78.9623428,29.3692837 77.4941193,29.591062 C75.8797271,29.8145166 74.2513132,29.9217919 72.6214894,29.9120569 C71.5162223,29.9203659 70.4135131,29.8048628 69.3340728,29.5677169 C68.4283798,29.3745876 67.5709524,29.0014277 66.8129401,28.4704978 C66.1095225,27.9631486 65.5461069,27.2865706 65.1750813,26.5036743 C64.752167,25.5637573 64.5520059,24.5392522 64.5901318,23.5096669 C64.5615103,22.5093942 64.7911426,21.5185802 65.2569743,20.632385 C65.6977862,19.8592384 66.3200342,19.204351 67.0703179,18.7239242 C67.8813482,18.2158549 68.7766871,17.8561574 69.71429,17.6617228 C71.2794331,17.3353395 72.8865315,17.258515 74.4757795,17.4341082 C75.0797155,17.5088897 75.6791806,17.6160429 76.2715747,17.7551031 L76.2715747,17.0080603 C76.2721917,16.5038029 76.2073069,16.0015918 76.0785414,15.5139748 C75.8313354,14.5297887 75.1066703,13.7344592 74.1482078,13.3954082 C73.5170635,13.1756341 72.8509799,13.0727827 72.1827772,13.0919221 C71.2034927,13.0878873 70.225455,13.1620502 69.2580293,13.3137004 C68.5170695,13.4292132 67.7871951,13.6068765 67.0761674,13.8448011 L66.4912179,10.1387686 C67.328166,9.88332219 68.1824471,9.68827646 69.0474475,9.55514146 C70.2307298,9.34115751 71.430632,9.23178946 72.6331884,9.22831025 C73.9341374,9.19389909 75.2315431,9.37938754 76.4704576,9.77691979 Z M214.354771,9.19329262 C216.25846,9.1798419 218.147648,9.52435405 219.923491,10.2088039 L218.893979,13.9381815 C218.282459,13.6890051 217.65025,13.4937173 217.004592,13.3545543 C216.268395,13.197175 215.517116,13.1208469 214.764235,13.1269397 C212.892397,13.1269397 211.45927,13.7105669 210.482405,14.8019497 C209.505539,15.8933325 209.014181,17.5041434 209.014181,19.5410022 C208.918435,21.210792 209.408628,22.8617118 210.400512,24.2100195 C211.328632,25.3461471 212.888497,25.9297743 215.080108,25.960901 C215.892435,25.955402 216.702734,25.879242 217.501799,25.7332864 C218.205991,25.599868 218.896974,25.4045645 219.566671,25.1496593 L220.239363,28.925727 C219.471629,29.2465856 218.668578,29.4757898 217.84692,29.6085708 C216.755086,29.8115984 215.646738,29.9131952 214.536105,29.9120569 C212.958854,29.9422992 211.389762,29.679066 209.909154,29.1358328 C207.437097,28.2344865 205.525952,26.2370672 204.7382,23.7314453 C204.302634,22.3936466 204.08731,20.9942449 204.100605,19.5876924 C204.093808,18.1944488 204.335451,16.8111059 204.814243,15.5023023 C205.264428,14.2798622 205.95673,13.1603913 206.849868,12.2106451 C207.762756,11.2633135 208.864771,10.5177058 210.084639,10.0220432 C211.443281,9.46838258 212.898944,9.19060663 214.36647,9.20496517 L214.354771,9.19329262 Z M109.812583,9.20496517 C112.62814,9.20496517 114.817802,10.0473337 116.381567,11.7320708 C117.945332,13.4168079 118.736964,15.9458589 118.756462,19.3192239 L118.756462,20.1654833 L118.756462,20.1654833 C118.756462,20.4748057 118.721365,20.7491105 118.697967,21.0117427 L105.220729,21.0117427 C105.270083,22.4269473 105.905516,23.7583416 106.975578,24.6885938 C108.005089,25.552362 109.490861,25.9900824 111.438743,25.9900824 C112.493478,25.9969967 113.546113,25.895296 114.579922,25.6865963 C115.349091,25.5300301 116.102754,25.3054189 116.831978,25.015425 L117.457874,28.7448026 C117.109575,28.9038049 116.749793,29.0364673 116.381567,29.1416691 C115.867576,29.2922531 115.34631,29.4169181 114.819752,29.5151905 C114.234802,29.6260796 113.603056,29.71946 112.924515,29.7953315 C112.236936,29.8720264 111.545655,29.9109936 110.853793,29.9120569 C109.259537,29.9402056 107.673568,29.6771343 106.174197,29.1358328 C104.931293,28.674031 103.807948,27.9401229 102.88678,26.9880848 C102.015213,26.0553448 101.358405,24.943885 100.962296,23.7314453 C100.528644,22.4132717 100.313288,21.033375 100.324701,19.6460551 C100.291355,18.0871777 100.563581,16.5368165 101.126082,15.0820907 C101.605299,13.8596588 102.332137,12.7490171 103.261148,11.8196149 C104.128655,10.9650593 105.164383,10.2993203 106.302886,9.86446386 C107.421479,9.42870562 108.611751,9.20496517 109.812583,9.20496517 Z M172.068766,9.20479906 C174.876524,9.20479906 177.072035,10.0473337 178.655298,11.7320708 C180.238562,13.4168079 181.018495,15.9458589 180.995097,19.3192239 C180.995097,19.5643473 180.995097,19.8503246 180.995097,20.1654833 C180.995097,20.480642 180.96,20.7491105 180.936602,21.0117427 L167.476912,21.0117427 C167.529042,22.4262691 168.163977,23.7566182 169.231761,24.6885938 C170.261272,25.552362 171.747044,25.9900824 173.700775,25.9900824 C174.757587,26.0001799 175.812493,25.8984492 176.847804,25.6865963 C177.614376,25.5404713 178.366162,25.3256028 179.094011,25.0446064 L179.719907,28.773984 C179.373612,28.9329781 179.015775,29.0656444 178.649449,29.1708504 C178.141379,29.3214204 177.625956,29.4460888 177.105182,29.5443718 C176.520232,29.655261 175.888487,29.7486413 175.204096,29.8245129 C174.516548,29.9015741 173.825247,29.9405424 173.133374,29.9412383 C171.53905,29.9703105 169.952914,29.7072115 168.453778,29.1650142 C167.211972,28.7044066 166.090284,27.9702745 165.172211,27.0172662 C164.293008,26.0779973 163.63371,24.9557377 163.241877,23.7314453 C162.804458,22.4138804 162.585152,21.0340011 162.592583,19.6460551 C162.559237,18.0871777 162.831463,16.5368165 163.393964,15.0820907 C163.873236,13.8610779 164.597834,12.7508176 165.52318,11.8196149 C166.390756,10.9580826 167.428654,10.2862662 168.570768,9.84695505 C169.692117,9.41566637 170.884555,9.1979099 172.086315,9.20479906 L172.068766,9.20479906 Z M193.460372,20.6382213 C192.943688,20.6401009 192.427734,20.67715 191.916105,20.7491105 C191.426856,20.8191804 190.950168,20.9587188 190.500527,21.1634857 C190.094252,21.3544817 189.746796,21.650764 189.494414,22.0214177 C189.226527,22.4296134 189.09356,22.9112956 189.114197,23.3987778 C189.114197,24.4843243 189.459317,25.2313671 190.149557,25.6457424 C190.904666,26.0534334 191.747829,26.2717597 192.606346,26.281896 L193.577362,26.281896 C194.445605,26.2703527 195.311779,26.1942705 196.168689,26.0542814 L196.168689,20.9767251 C195.805419,20.8773805 195.436145,20.8013533 195.063134,20.7491105 C194.532505,20.6713376 193.996681,20.6342659 193.460372,20.6382213 L193.460372,20.6382213 Z M73.5457097,20.6382213 C73.0270906,20.6403036 72.5092054,20.6773511 71.9955933,20.7491105 C71.5140594,20.8200953 71.0452231,20.959642 70.6034134,21.1634857 C70.1954658,21.3543354 69.8460804,21.6505408 69.5914506,22.0214177 C69.323564,22.4296134 69.1905967,22.9112956 69.2112334,23.3987778 C69.2112334,24.4843243 69.5622031,25.2313671 70.2465941,25.6457424 C70.9993158,26.0480692 71.8378387,26.2642312 72.6916833,26.2760597 L73.6626996,26.2760597 C74.5328841,26.2645469 75.4010047,26.1884654 76.2598757,26.0484451 L76.2598757,20.9767251 C75.8964678,20.8779567 75.5272304,20.8019371 75.154321,20.7491105 C74.6217293,20.6713357 74.0839612,20.6342648 73.5457097,20.6382213 L73.5457097,20.6382213 Z M128.285291,17.4224356 L128.285291,25.6574149 C128.840993,25.7099414 129.45519,25.7507953 130.040139,25.7799766 C130.625089,25.809158 131.245136,25.8149942 131.794988,25.8149942 C132.753846,25.8209969 133.711848,25.7566242 134.661241,25.6223973 C135.453816,25.5199948 136.224357,25.289355 136.942544,24.9395535 C137.554633,24.6380497 138.081462,24.1886497 138.475112,23.6322287 C138.881409,23.0061194 139.085564,22.2707854 139.060062,21.5253346 C139.060062,19.9787226 138.475112,18.9223574 137.363708,18.3270577 C135.897312,17.6615609 134.293333,17.3534929 132.684111,17.4282719 L128.285291,17.4224356 Z M172.156509,13.0102143 C170.896655,12.9918868 169.690836,13.5199699 168.851544,14.4576096 C168.472223,14.8995287 168.175081,15.4055055 167.974119,15.9516952 C167.767241,16.4924445 167.620133,17.0541066 167.535407,17.6267051 L176.309651,17.6267051 C176.305792,17.0160396 176.20713,16.409657 176.017176,15.8291335 C175.853693,15.3059039 175.591627,14.8186124 175.245042,14.3934107 C174.891741,13.9780469 174.452795,13.6436097 173.958153,13.412917 C173.38837,13.1481445 172.76751,13.0107088 172.13896,13.0102143 L172.156509,13.0102143 Z M109.882777,13.0102143 C108.614329,12.9700462 107.394022,13.4964377 106.554414,14.4459371 C106.175178,14.8857379 105.878007,15.389788 105.67699,15.9341864 C105.473041,16.4806954 105.331753,17.0484833 105.255826,17.6267051 L114.071016,17.6267051 C114.070219,17.0190628 113.977533,16.4150186 113.79609,15.8349697 C113.616097,15.3062429 113.336111,14.8168788 112.971311,14.3934107 C112.617094,13.9765613 112.1759,13.6419323 111.678572,13.412917 C111.110884,13.1480776 110.491909,13.0106174 109.865229,13.0102143 L109.882777,13.0102143 Z M131.841784,6.3160107 C131.063801,6.3160107 130.402808,6.3160107 129.812009,6.35686461 C129.22121,6.39771851 128.712304,6.42106359 128.29114,6.47359004 L128.29114,13.5704963 L131.800838,13.5704963 C133.327872,13.6403411 134.851132,13.3670934 136.258153,12.7709271 C137.344612,12.2422349 137.993154,11.1011543 137.890163,9.89948149 C137.962133,8.71861774 137.293461,7.61675758 136.211357,7.13308873 C134.829918,6.53260573 133.329768,6.25321082 131.824236,6.3160107 L131.841784,6.3160107 Z" id="Logo-text"></path>
        </g>
    </g>
</svg>