<?xml version="1.0" encoding="UTF-8"?>
<svg width="135px" height="16px" viewBox="0 0 135 16" version="1.1" xmlns="http://www.w3.org/2000/svg" xmlns:xlink="http://www.w3.org/1999/xlink">
    <title>sound-hound-inc-white-web-min_2x-1</title>
    <g id="Page-1" stroke="none" stroke-width="1" fill="none" fill-rule="evenodd">
        <g id="sound-hound-inc-white-web-min_2x-1" fill="#8793B0" fill-rule="nonzero">
            <g id="Group" transform="translate(67.500000, 8.000000) scale(-1, 1) rotate(-180.000000) translate(-67.500000, -8.000000) translate(0.000000, -0.000000)">
                <path d="M3.86772326,15.5594493 C1.93386163,14.9987484 0.864065834,13.4768461 0.864065834,11.1939925 C0.864065834,8.8310388 1.60469369,8.11013767 5.47241695,6.78848561 C8.8052423,5.62703379 9.75160012,4.66583229 8.47607437,3.74468085 C7.48857056,3.02377972 4.89637306,3.2640801 3.37397135,4.26533166 C2.46875952,4.82603254 2.34532155,4.82603254 1.19323377,3.70463079 L2.23185584e-13,2.54317897 L1.68698568,1.62202753 C5.01981103,-0.180225282 9.83389211,0.140175219 11.5620238,2.26282854 C12.6318196,3.5844806 12.6729656,6.34793492 11.6443158,7.58948686 C11.2328558,8.07008761 9.50472417,8.95118899 7.65315453,9.55193992 C4.73178909,10.5131414 4.36147516,10.7534418 4.36147516,11.5944931 C4.36147516,12.4755945 4.56720512,12.5957447 6.08960683,12.7158949 C7.03596464,12.795995 8.22919842,12.6357947 8.68180433,12.3954944 C9.38128619,12.0350438 9.75160012,12.1151439 10.7802499,12.9561952 L12.0146297,13.9574468 L11.0271259,14.5982478 C8.92868028,15.9198999 6.37762877,16.2803504 3.86772326,15.5594493 Z" id="Path"></path>
                <path d="M62.171594,13.5969962 L62.171594,11.1939925 L60.5669003,11.4342929 C58.3861628,11.7546934 56.2877172,11.0337922 54.7653155,9.35168961 C53.7778116,8.23028786 53.5309357,7.58948686 53.5309357,6.06758448 C53.5309357,0.580725907 59.9908564,-1.82227785 64.1054557,2.18272841 L65.4632734,3.50438048 L65.4632734,9.75219024 L65.4632734,16 L63.8174337,16 L62.171594,16 L62.171594,13.5969962 Z M61.1017982,7.94993742 C62.336178,6.98873592 62.500762,5.42678348 61.5132582,4.06508135 C60.7726303,2.98372966 58.6741847,2.86357947 57.5632429,3.86483104 C56.5345931,4.78598248 56.5757391,6.94868586 57.7278269,7.98998748 C58.8799147,8.99123905 59.7028345,8.99123905 61.1017982,7.94993742 Z" id="Shape"></path>
                <polygon id="Path" points="67.9320329 8.1902378 67.9320329 0.380475594 69.5778726 0.380475594 71.2237123 0.380475594 71.2237123 3.38423029 71.2237123 6.38798498 74.5153916 6.38798498 77.807071 6.38798498 77.807071 3.38423029 77.807071 0.380475594 79.4529107 0.380475594 81.0987504 0.380475594 81.0987504 8.1902378 81.0987504 16 79.4529107 16 77.807071 16 77.807071 12.795995 77.807071 9.59198999 74.5153916 9.59198999 71.2237123 9.59198999 71.2237123 12.795995 71.2237123 16 69.5778726 16 67.9320329 16"></polygon>
                <path d="M131.296861,13.6370463 L131.296861,11.3141427 L129.362999,11.4743429 C124.384334,11.8748436 120.969217,6.90863579 123.479122,2.90362954 C126.07132,-1.26157697 133.230722,-0.340425532 134.58854,4.34543179 C134.79427,5.14643304 135,8.07008761 135,10.9136421 L135,16 L133.14843,16 L131.296861,16 L131.296861,13.6370463 Z M130.391649,7.98998748 C131.461445,6.98873592 131.584883,4.94618273 130.597379,3.9048811 C129.651021,2.86357947 127.387991,2.9436796 126.606218,4.06508135 C125.618714,5.42678348 125.783298,6.98873592 127.017678,7.94993742 C128.416641,8.99123905 129.239561,8.99123905 130.391649,7.98998748 Z" id="Shape"></path>
                <path d="M43.1621457,11.3541927 C41.310576,10.3929912 40.7756781,8.87108886 40.7756781,4.58573217 L40.7756781,0.78097622 L42.1746419,0.78097622 L43.5736056,0.78097622 L43.7381896,4.42553191 C43.8616276,8.31038798 44.3553795,9.19148936 46.3303871,9.19148936 C48.3053947,9.19148936 48.7991466,8.31038798 48.9225846,4.42553191 L49.0871685,0.78097622 L50.4861323,0.78097622 L51.885096,0.78097622 L51.885096,4.58573217 C51.885096,9.03128911 51.3913441,10.3529412 49.2517525,11.3541927 C47.5236208,12.155194 44.6434014,12.155194 43.1621457,11.3541927 Z" id="Path"></path>
                <path d="M112.040536,11.1939925 C110.271259,10.1126408 109.900945,9.03128911 109.900945,4.5456821 L109.900945,0.78097622 L111.299909,0.78097622 L112.698872,0.78097622 L112.863456,4.42553191 C112.945748,7.46933667 113.110332,8.15018773 113.768668,8.63078849 C115.003048,9.4718398 116.31972,9.31163955 117.266077,8.15018773 C117.965559,7.26908636 118.130143,6.50813517 118.130143,3.94493116 L118.130143,0.78097622 L119.570253,0.78097622 L121.010363,0.78097622 L121.010363,4.62578223 C121.010363,8.99123905 120.434319,10.3929912 118.294727,11.3942428 C116.443158,12.2352941 113.686376,12.155194 112.040536,11.1939925 Z" id="Path"></path>
                <path d="M16.5818348,10.7934919 C13.7839073,9.11138924 12.8375495,5.82728411 14.4422432,3.2640801 C16.8698568,-0.580725907 22.7125876,-0.580725907 25.1402012,3.2640801 C28.1850046,8.15018773 21.7250838,13.8372966 16.5818348,10.7934919 Z M21.6427918,7.98998748 C23.2886315,6.22778473 22.0542518,3.18397997 19.7500762,3.18397997 C18.5156964,3.18397997 16.9110027,4.78598248 16.9110027,5.98748436 C16.9110027,6.38798498 17.2813167,7.14893617 17.7750686,7.74968711 C18.8037184,9.03128911 20.572996,9.1514393 21.6427918,7.98998748 Z" id="Shape"></path>
                <path d="M85.7071015,10.7934919 C82.909174,9.11138924 81.9628162,5.82728411 83.5675099,3.2640801 C85.9951234,-0.580725907 91.8378543,-0.580725907 94.2654678,3.2640801 C97.3102713,8.15018773 90.8503505,13.8372966 85.7071015,10.7934919 Z M90.7680585,7.98998748 C92.4138982,6.22778473 91.1795184,3.18397997 88.8753429,3.18397997 C87.6409631,3.18397997 86.0362694,4.78598248 86.0362694,5.98748436 C86.0362694,6.38798498 86.4065834,7.14893617 86.9003353,7.74968711 C87.9289851,9.03128911 89.6982627,9.1514393 90.7680585,7.98998748 Z" id="Shape"></path>
                <path d="M27.6089607,7.34918648 C27.6089607,4.46558198 27.7735447,3.22403004 28.3084425,2.34292866 C30.2011582,-0.78097622 36.126181,-0.78097622 38.0188967,2.34292866 C38.5537946,3.22403004 38.7183785,4.46558198 38.7183785,7.34918648 L38.7183785,11.1939925 L37.0725389,11.1939925 L35.4266992,11.1939925 L35.4266992,7.62953692 C35.4266992,3.74468085 34.9740933,2.78347935 33.2048156,2.78347935 C31.188662,2.78347935 30.6949101,3.62453066 30.5714721,7.5494368 L30.4068881,11.1939925 L29.0079244,11.1939925 L27.6089607,11.1939925 L27.6089607,7.34918648 Z" id="Path"></path>
                <path d="M96.7342274,7.38923655 C96.7342274,4.78598248 96.9399573,3.18397997 97.3514173,2.42302879 C98.503505,0.220275344 102.371228,-0.660826033 105.169156,0.62077597 C107.185309,1.54192741 107.843645,3.22403004 107.843645,7.5494368 L107.843645,11.1939925 L106.197806,11.1939925 L104.551966,11.1939925 L104.551966,7.66958698 C104.551966,4.74593242 104.428528,3.98498123 103.811338,3.46433041 C102.782688,2.54317897 101.42487,2.6232791 100.437367,3.5844806 C99.7378848,4.26533166 99.6144468,4.90613267 99.6144468,7.78973717 L99.6144468,11.1939925 L98.1743371,11.1939925 L96.7342274,11.1939925 L96.7342274,7.38923655 Z" id="Path"></path>
            </g>
        </g>
    </g>
</svg>