<?xml version="1.0" encoding="UTF-8"?>
<svg width="135px" height="21px" viewBox="0 0 135 21" version="1.1" xmlns="http://www.w3.org/2000/svg" xmlns:xlink="http://www.w3.org/1999/xlink">
    <title>sl-logo copy</title>
    <g id="Page-1" stroke="none" stroke-width="1" fill="none" fill-rule="evenodd">
        <g id="sl-logo-copy" fill="#8793B0" fill-rule="nonzero">
            <path d="M10,11.0431373 C10,8.95163395 9.1440501,7.59215686 6.01252609,6.42091503 C4.55114822,5.87712418 4.50939457,5.85620915 4.3006263,5.73071895 C3.73695198,5.37516339 3.4446764,4.89411765 3.4446764,4.32941176 C3.4446764,3.40915032 4.09185803,2.76078431 5.03131523,2.76078431 C5.99164926,2.76078431 6.57620041,3.34640523 6.65970772,4.39215686 L9.62421713,4.39215686 C9.47807932,1.67320261 7.53653444,0 5.05219206,0 C2.56784969,0 0.563674321,1.94509804 0.563674321,4.39215686 C0.563674321,6.3372549 1.71189979,7.82222221 3.77870563,8.59607844 C5.82463465,9.36993467 5.99164926,9.43267974 6.45093945,9.78823532 C6.91022964,10.1437908 7.16075156,10.7294118 7.16075156,11.3568628 C7.16075156,12.4653594 6.30480166,13.2392157 5.07306889,13.2392157 C3.79958246,13.2392157 3.11064718,12.6117647 2.98538622,11.3150327 L0,11.3150327 C0.25052192,14.2431372 2.35908142,16 5.07306889,16 C7.84968682,16 10,13.8457516 10,11.0431373 Z" id="Path"></path>
            <path d="M23,15.7248677 L23,4 L20.0324544,4 L20.0324544,9.52380949 C20.0324544,11.0899471 19.8985801,11.8095238 19.5638946,12.3386243 C19.1176471,13.015873 18.3144017,13.4179894 17.3103449,13.4179894 C15.8823529,13.4179894 14.9675456,12.8465608 14.9675456,9.7354497 L14.9675456,4 L12,4 L12,10.2857143 C12,14.4126984 13.8296146,16 16.7079108,16 C18.2028398,16 19.1399595,15.6402116 20.2555782,14.6031746 L20.2555782,15.7248677 L23,15.7248677 Z" id="Path"></path>
            <path d="M37,10.1276596 C37,6.57446808 34.5999887,4 31.2896283,4 C29.7378969,4 28.4138092,4.59574468 27.5241498,5.65957447 L27.5241498,4.27659574 L25,4.27659574 L25,20 L27.7517371,20 L27.7517371,14.9574468 C28.7862248,15.9148936 29.8620354,16.3404255 31.2689385,16.3404255 C34.5792989,16.3404255 37,13.7021276 37,10.1276596 Z M34.2275732,10.1914894 C34.2275732,12.1914893 32.7999802,13.7446808 30.979282,13.7446808 C29.0344452,13.7446808 27.5862191,12.2127659 27.5862191,10.1489361 C27.5862191,8.12765956 29.0344452,6.59574468 30.9379025,6.59574468 C32.8000368,6.59574468 34.2275732,8.14893617 34.2275732,10.1914894 Z" id="Shape"></path>
            <path d="M51,10.1276596 C51,6.57446808 48.6,4 45.2896552,4 C43.737931,4 42.4137931,4.59574468 41.5241379,5.65957447 L41.5241379,4.27659574 L39,4.27659574 L39,20 L41.7517241,20 L41.7517241,14.9574468 C42.7862069,15.9148936 43.862069,16.3404255 45.2689655,16.3404255 C48.5793103,16.3404255 51,13.7021276 51,10.1276596 Z M48.2275862,10.1914894 C48.2275862,12.1914893 46.8,13.7446808 44.9793103,13.7446808 C43.0344827,13.7446808 41.5862068,12.2127659 41.5862068,10.1489361 C41.5862068,8.12765956 43.0344827,6.59574468 44.937931,6.59574468 C46.8,6.59574468 48.2275862,8.14893617 48.2275862,10.1914894 Z" id="Shape"></path>
            <path d="M65,10.0827586 C65,6.66896551 62.1529897,4 58.4671337,4 C54.9134666,4 52,6.71034482 52,10 C52,13.3103449 54.9134666,16 58.4888435,16 C62.0426311,16 65,13.3103449 65,10.0827586 Z M62.0426311,9.99999998 C62.0426311,11.9241379 60.4535882,13.4758621 58.5111565,13.4758621 C56.524702,13.4758621 54.95761,11.9241379 54.95761,9.95862072 C54.95761,8.0758621 56.5687248,6.52413793 58.4888435,6.52413793 C60.4535882,6.52413793 62.0426311,8.09655169 62.0426311,9.99999998 Z" id="Shape"></path>
            <path d="M72,6.70899472 L72,4 L71.801583,4 C70.6707145,4 70.1150385,4.33862434 69.420579,5.41798942 L69.420579,4.27513227 L67,4.27513227 L67,16 L69.6385124,16 L69.6385124,9.48148147 C69.6385124,7.66137567 70.412664,6.75132276 72,6.70899472 Z" id="Path"></path>
            <polygon id="Path" points="79 6.62516916 79 4.00541273 77.2734153 4.00541273 77.2734153 0 74.4028502 0 74.4028502 4.00541273 73 4.00541273 73 6.62516916 74.4028502 6.62516916 74.4028502 16 77.2734153 16 77.2734153 6.62516916"></polygon>
            <polygon id="Path" points="89 16 89 14.5493911 82.5582399 14.5493911 82.5582399 0 81 0 81 16"></polygon>
            <path d="M102,10.0314136 C102,6.53403141 99.4780363,4 96.0315823,4 C92.6270461,4 90,6.57591623 90,9.92670155 C90,13.4450262 92.5851282,16 96.1579097,16 C99.520528,16 102,13.4659686 102,10.0314136 Z M100.423772,10.052356 C100.423772,12.670157 98.6167097,14.5759162 96.115418,14.5759162 C93.4677007,14.5759162 91.5762275,12.6492147 91.5762275,9.9685864 C91.5762275,7.37172775 93.4883719,5.42408376 96.0315823,5.42408376 C98.553546,5.42408376 100.423772,7.39267016 100.423772,10.052356 Z" id="Shape"></path>
            <path d="M116,14.1341936 L116,4.28516129 L114.436288,4.28516129 L114.436288,6.41290322 C113.274328,4.76774194 111.858964,4 109.915436,4 C106.535187,4 104,6.72 104,10.3393548 C104,13.8490322 106.640819,16.5690323 110.021068,16.5690323 C112.091586,16.5690323 113.527731,15.6916129 114.436288,13.8490322 L114.436288,14.6606452 C114.436288,17.8193549 112.978786,19.5083871 110.190197,19.5083871 C108.246092,19.5083871 107.126845,18.8283871 105.943527,16.6567742 L104.422531,16.6567742 C105.267593,19.4645161 107.316754,21 110.232334,21 C112.239357,21 113.929482,20.2103226 114.922315,18.8503226 C115.703882,17.7535484 116,16.4812903 116,14.1341936 Z M114.436288,10.1419355 C114.436288,12.9496774 112.534898,15.0774193 110.021068,15.0774193 C107.485882,15.0774193 105.584491,12.9935484 105.584491,10.2077419 C105.584491,7.46580645 107.443744,5.4916129 109.999711,5.4916129 C112.49276,5.4916129 114.436288,7.5316129 114.436288,10.1419355 Z" id="Shape"></path>
            <path d="M121,16 L121,4.06002729 L119,4.06002729 L119,16 L121,16 Z M121,2.75034107 L121,0 L119,0 L119,2.75034107 L121,2.75034107 Z" id="Shape"></path>
            <path d="M135,12.3560209 L133.219347,12.3560209 C132.010427,13.947644 130.887237,14.5759162 129.254296,14.5759162 C126.647036,14.5759162 124.590075,12.5445026 124.590075,10.0104712 C124.590075,7.43455497 126.604171,5.42408376 129.191156,5.42408376 C130.90809,5.42408376 132.328441,6.24083769 133.219347,7.74869109 L134.978567,7.74869109 C134.045955,5.44502617 131.819849,4 129.21201,4 C125.735277,4 123,6.63874345 123,9.9685864 C123,13.382199 125.756131,16 129.318015,16 C131.713844,16 133.600502,14.973822 135,12.3560209 Z" id="Path"></path>
        </g>
    </g>
</svg>