<svg width="213" height="39" viewBox="0 0 213 39" fill="none" xmlns="http://www.w3.org/2000/svg">
<g clip-path="url(#clip0_285_433)">
<path d="M30.1576 5.86977C30.8677 7.05894 30.3247 8.02941 28.9464 8.02941H6.33529C4.95696 8.02941 3.24836 7.05894 2.53408 5.86977L0.312083 2.15964C-0.398059 0.970471 0.144887 0 1.52322 0H24.1343C25.5127 0 27.2213 0.970471 27.9356 2.15964L30.1576 5.86977Z" fill="#8793B0"/>
<path d="M23.9543 23.8015C22.5744 23.8056 22.0219 22.8461 22.7288 21.6613L34.3795 2.17802C35.0863 0.997274 36.7927 0.0248229 38.1725 0.0165618L42.4465 1.31172e-05C43.8264 -0.00409095 44.3782 0.955378 43.672 2.14026L32.0213 21.6235C31.3145 22.8042 29.6081 23.7767 28.2282 23.785L23.9543 23.8015Z" fill="#8793B0"/>
<path d="M10.9193 10.3624C11.5852 9.16698 12.6885 9.16287 13.3626 10.3542L24.4972 30.0143C25.1719 31.2056 25.1802 33.1607 24.5102 34.3603L22.4243 38.1009C21.7585 39.2963 20.6552 39.3004 19.9811 38.1091L8.8464 18.449C8.1723 17.2577 8.16347 15.3025 8.83404 14.1024L10.9193 10.3624Z" fill="#8793B0"/>
<path d="M92.2715 22.6544H101.778L105.782 2.00732H101.573C98.4988 2.00732 95.8506 4.19324 95.2666 7.21994L92.2756 22.6544H92.2715Z" fill="#8793B0"/>
<path d="M119.919 10.9157L120.809 6.37193H130.697C131.88 6.37193 132.651 6.72728 132.974 7.28719C133.121 7.52132 133.18 7.8471 133.18 8.20245C133.18 8.67485 133.092 9.05976 132.882 9.43993C132.349 10.3558 131.137 10.9157 129.358 10.9157H119.915H119.919ZM108.081 22.6544H117.612L119.064 15.2797H131.733C137.119 15.2797 140.525 13.3907 142.032 10.8282C142.594 9.82484 142.862 8.76295 142.862 7.61356C142.862 6.72728 142.686 5.8741 142.241 5.10488C141.205 3.30748 138.81 2.00732 134.518 2.00732H112.112L108.085 22.6544H108.081Z" fill="#8793B0"/>
<path d="M181.093 22.6502H208.999L209.882 18.1395H191.443L192.176 14.4819H210.203L211.028 10.1467H193.001L193.706 6.5181H212.145L213 2.00732H190.388C187.312 2.00732 184.67 4.19383 184.086 7.22053L181.098 22.6544L181.093 22.6502Z" fill="#8793B0"/>
<path d="M85.2593 2.01146C83.2086 2.01146 81.2824 2.99336 80.0737 4.64858L71.2904 16.6944L71.2562 16.7819L70.1271 18.3301L69.5552 16.7187L69.5558 16.6944L64.349 2.00732H54.6152L62.7028 22.6502L62.7069 22.6544H76.4423L92.5586 2.01146H85.2593Z" fill="#8793B0"/>
<path d="M155.888 10.7153V10.7111L156.748 6.37607H166.783C167.848 6.37607 168.586 6.70185 168.943 7.29133C169.09 7.52546 169.149 7.82227 169.149 8.14864C169.149 8.59149 169.06 8.97639 168.851 9.35657C168.347 10.1843 167.253 10.7153 165.684 10.7153H155.888ZM178.172 4.89617C177.107 3.09877 174.711 2.00732 170.831 2.00732H148.039L144.012 22.6544H144.021H153.552L155.121 14.6027H159.412L165.449 22.6544H176.221L171.731 16.5432L171.741 16.5426L169.603 13.5397C173.886 13.2825 176.841 12.1892 178.085 10.1175C178.559 9.28975 178.794 8.40761 178.794 7.40426C178.794 6.489 178.617 5.66539 178.172 4.89617Z" fill="#8793B0"/>
<path d="M55.1904 36.5995V36.4848H56.6568V36.5671C56.6568 37.2798 57.2647 37.6523 58.2086 37.6523C58.9103 37.6523 59.4075 37.4762 59.5945 37.165C59.6582 37.0503 59.6967 36.9234 59.6967 36.7838C59.6967 36.6691 59.6793 36.5624 59.624 36.4645C59.4839 36.2432 59.1821 36.0914 58.57 36.0097L57.2773 35.8579C56.3256 35.735 55.764 35.432 55.488 34.9609C55.3389 34.7193 55.2668 34.4365 55.2668 34.1086C55.2668 33.7812 55.3522 33.4695 55.5049 33.2035C55.9215 32.5192 56.8907 32.1177 58.2555 32.1177C60.1086 32.1177 61.2269 32.8756 61.2269 34.2071V34.3218H59.7604V34.2401C59.7604 33.5268 59.1863 33.1705 58.2297 33.1705C57.5371 33.1705 57.0224 33.3588 56.8438 33.6584C56.7801 33.7644 56.7422 33.8878 56.7422 34.0309C56.7422 34.1457 56.7591 34.2442 56.827 34.3421C56.9545 34.5634 57.2605 34.7152 57.8768 34.7969L59.1778 34.9487C60.1086 35.0716 60.6827 35.3827 60.9503 35.8457C61.0994 36.0954 61.1716 36.3909 61.1716 36.7183C61.1716 37.0463 61.0868 37.3655 60.9335 37.6361C60.5252 38.3204 59.5476 38.7133 58.1828 38.7133C56.3298 38.7133 55.1904 37.9391 55.1904 36.6036V36.5995Z" fill="#8793B0"/>
<path d="M66.6885 32.4085H71.5751V33.5333H68.1082V35.0026H71.4844V36.1027H68.1082V37.5885H71.5751V38.7132H66.6885V32.4044V32.4085Z" fill="#8793B0"/>
<path d="M76.9471 36.6062C76.811 36.2503 76.749 35.8411 76.749 35.4158C76.749 34.9898 76.811 34.5807 76.9471 34.2248C77.4309 32.8908 78.8147 32.1177 80.6612 32.1177C82.69 32.1177 84.0988 33.0749 84.2227 34.5523H82.7683C82.5988 33.7624 81.8263 33.2467 80.6699 33.2467C79.5129 33.2467 78.6703 33.734 78.356 34.5969C78.2654 34.8469 78.2198 35.1125 78.2198 35.4158C78.2198 35.7184 78.2654 35.9841 78.356 36.2341C78.6703 37.0848 79.5416 37.5842 80.6448 37.5842C81.748 37.5842 82.475 37.0767 82.6736 36.2786H84.1275C83.9586 37.719 82.6654 38.7133 80.6121 38.7133C78.8187 38.7133 77.435 37.9401 76.9512 36.6062H76.9471Z" fill="#8793B0"/>
<path d="M89.397 35.9695V32.1177H90.8698V35.923C90.8698 36.9304 91.5178 37.533 92.5693 37.533C93.6214 37.533 94.2611 36.9304 94.2611 35.923V32.1177H95.7209V35.9695C95.7209 37.6719 94.5259 38.7133 92.5693 38.7133C90.6133 38.7133 89.4011 37.6677 89.4011 35.9695H89.397Z" fill="#8793B0"/>
<path d="M104.797 35.0901C105.188 35.0901 105.481 34.9656 105.628 34.7126C105.7 34.5964 105.737 34.4508 105.737 34.2888C105.737 34.1356 105.699 33.99 105.636 33.8826C105.49 33.6207 105.2 33.5045 104.797 33.5045H102.909V35.0901H104.797ZM101.47 32.4044H105.016C105.956 32.4044 106.627 32.7038 106.967 33.2803C107.114 33.5339 107.194 33.8409 107.194 34.1978C107.194 34.5547 107.122 34.8289 106.975 35.0736C106.665 35.6049 105.956 35.8826 105.007 35.9119V36.0364L105.397 36.1608L107.219 38.7132H105.452L103.631 36.0986H102.909V38.7132H101.47V32.4044Z" fill="#8793B0"/>
<mask id="mask0_285_433" style="mask-type:alpha" maskUnits="userSpaceOnUse" x="0" y="0" width="213" height="39">
<path d="M0 39H213V0H0V39Z" fill="white"/>
</mask>
<g mask="url(#mask0_285_433)">
<path d="M112.68 38.7132H114.117V32.4044H112.68V38.7132Z" fill="#8793B0"/>
</g>
<mask id="mask1_285_433" style="mask-type:alpha" maskUnits="userSpaceOnUse" x="0" y="0" width="213" height="39">
<path d="M0 39H213V0H0V39Z" fill="white"/>
</mask>
<g mask="url(#mask1_285_433)">
<path d="M121.736 33.5497H119.292V32.4044H125.615V33.5497H123.179V38.7132H121.732V33.5497H121.736Z" fill="#8793B0"/>
</g>
<mask id="mask2_285_433" style="mask-type:alpha" maskUnits="userSpaceOnUse" x="0" y="0" width="213" height="39">
<path d="M0 39H213V0H0V39Z" fill="white"/>
</mask>
<g mask="url(#mask2_285_433)">
<path d="M132.679 36.4596L129.927 32.4044H131.547L133.246 34.9985L133.3 35.4593H133.453L133.507 34.9985L135.206 32.4044H136.826L134.075 36.4514V38.7132H132.679V36.4596Z" fill="#8793B0"/>
</g>
<mask id="mask3_285_433" style="mask-type:alpha" maskUnits="userSpaceOnUse" x="0" y="0" width="213" height="39">
<path d="M0 39H213V0H0V39Z" fill="white"/>
</mask>
<g mask="url(#mask3_285_433)">
<path d="M148.242 36.7155C148.107 36.3223 148.037 35.8886 148.037 35.4543C148.037 35.0205 148.107 34.5903 148.242 34.2261C148.722 32.8994 150.067 32.1177 151.946 32.1177C153.984 32.1177 155.359 33.0882 155.51 34.5005H154.067C153.907 33.7269 153.094 33.2474 151.946 33.2474C150.798 33.2474 149.94 33.735 149.641 34.5903C149.542 34.8486 149.497 35.1311 149.497 35.4543C149.497 35.7571 149.534 36.0768 149.641 36.3593C149.944 37.1863 150.773 37.6489 151.815 37.6489C153.009 37.6489 153.792 37.0797 153.927 36.2447H151.721V35.2209H155.272V38.5291H153.98L154.268 37.0965H154.107C153.788 38.0827 152.89 38.7133 151.499 38.7133C149.956 38.7133 148.701 37.9767 148.246 36.7114L148.242 36.7155Z" fill="#8793B0"/>
</g>
<mask id="mask4_285_433" style="mask-type:alpha" maskUnits="userSpaceOnUse" x="0" y="0" width="213" height="39">
<path d="M0 39H213V0H0V39Z" fill="white"/>
</mask>
<g mask="url(#mask4_285_433)">
<path d="M164.587 35.0901C164.977 35.0901 165.271 34.9656 165.418 34.7126C165.489 34.5964 165.527 34.4508 165.527 34.2888C165.527 34.1356 165.489 33.99 165.426 33.8826C165.279 33.6207 164.99 33.5045 164.587 33.5045H162.699V35.0901H164.587ZM161.259 32.4044H164.805C165.745 32.4044 166.417 32.7038 166.757 33.2803C166.903 33.5339 166.983 33.8409 166.983 34.1978C166.983 34.5547 166.912 34.8289 166.765 35.0737C166.454 35.6049 165.745 35.8826 164.797 35.9119V36.0364L165.187 36.1608L167.008 38.7132H165.241L163.42 36.0986H162.699V38.7132H161.259V32.4044Z" fill="#8793B0"/>
</g>
<mask id="mask5_285_433" style="mask-type:alpha" maskUnits="userSpaceOnUse" x="0" y="0" width="213" height="39">
<path d="M0 39H213V0H0V39Z" fill="white"/>
</mask>
<g mask="url(#mask5_285_433)">
<path d="M173.237 36.2256C173.547 37.0519 174.409 37.5837 175.636 37.5837C176.863 37.5837 177.709 37.0681 178.027 36.2256C178.12 35.9762 178.165 35.71 178.165 35.4155C178.165 35.1209 178.12 34.8553 178.027 34.6053C177.717 33.779 176.863 33.2472 175.636 33.2472C174.409 33.2472 173.547 33.779 173.237 34.6053C173.144 34.8553 173.098 35.1209 173.098 35.4155C173.098 35.71 173.144 35.9762 173.237 36.2256ZM171.809 36.6064C171.67 36.2418 171.607 35.8408 171.607 35.4155C171.607 34.9902 171.67 34.5891 171.809 34.2252C172.29 32.9197 173.68 32.1177 175.636 32.1177C177.592 32.1177 178.974 32.9156 179.455 34.2252C179.581 34.5891 179.656 34.9902 179.656 35.4155C179.656 35.8408 179.593 36.2418 179.455 36.6064C178.974 37.9031 177.592 38.7133 175.636 38.7133C173.68 38.7133 172.299 37.9315 171.809 36.6064Z" fill="#8793B0"/>
</g>
<mask id="mask6_285_433" style="mask-type:alpha" maskUnits="userSpaceOnUse" x="0" y="0" width="213" height="39">
<path d="M0 39H213V0H0V39Z" fill="white"/>
</mask>
<g mask="url(#mask6_285_433)">
<path d="M185.117 35.9695V32.1177H186.59V35.923C186.59 36.9304 187.238 37.533 188.29 37.533C189.342 37.533 189.981 36.9304 189.981 35.923V32.1177H191.441V35.9695C191.441 37.6719 190.246 38.7133 188.29 38.7133C186.334 38.7133 185.122 37.6677 185.122 35.9695H185.117Z" fill="#8793B0"/>
</g>
<mask id="mask7_285_433" style="mask-type:alpha" maskUnits="userSpaceOnUse" x="0" y="0" width="213" height="39">
<path d="M0 39H213V0H0V39Z" fill="white"/>
</mask>
<g mask="url(#mask7_285_433)">
<path d="M200.503 35.1811C200.925 35.1811 201.215 35.0273 201.354 34.7825C201.439 34.6457 201.472 34.5048 201.472 34.3305C201.472 34.1684 201.435 34.0229 201.354 33.8902C201.215 33.6454 200.925 33.5045 200.503 33.5045H198.636V35.1811H200.503ZM197.19 32.4044H200.714C201.637 32.4044 202.341 32.7572 202.69 33.3507C202.855 33.629 202.939 33.9565 202.939 34.3346C202.939 34.712 202.855 35.0443 202.69 35.3261C202.341 35.9196 201.637 36.2724 200.714 36.2724H198.636V38.7132H197.19V32.4044Z" fill="#8793B0"/>
</g>
</g>
<defs>
<clipPath id="clip0_285_433">
<rect width="213" height="39" fill="white"/>
</clipPath>
</defs>
</svg>
