<svg xmlns="http://www.w3.org/2000/svg" xmlns:xlink="http://www.w3.org/1999/xlink" width="825" height="505" viewBox="0 0 825 505">
    <defs>
        <path id="b" d="M0 0h160v160H0z"/>
        <filter id="a" width="140.6%" height="140.6%" x="-20.3%" y="-17.2%" filterUnits="objectBoundingBox">
            <feOffset dy="5" in="SourceAlpha" result="shadowOffsetOuter1"/>
            <feGaussianBlur in="shadowOffsetOuter1" result="shadowBlurOuter1" stdDeviation="10"/>
            <feColorMatrix in="shadowBlurOuter1" values="0 0 0 0 0.00392156863 0 0 0 0 0.341176471 0 0 0 0 0.607843137 0 0 0 0.3 0"/>
        </filter>
        <path id="d" d="M0 0h160v160H0z"/>
        <filter id="c" width="140.6%" height="140.6%" x="-20.3%" y="-17.2%" filterUnits="objectBoundingBox">
            <feOffset dy="5" in="SourceAlpha" result="shadowOffsetOuter1"/>
            <feGaussianBlur in="shadowOffsetOuter1" result="shadowBlurOuter1" stdDeviation="10"/>
            <feColorMatrix in="shadowBlurOuter1" values="0 0 0 0 0.949019608 0 0 0 0 0.388235294 0 0 0 0 0.133333333 0 0 0 0.3 0"/>
        </filter>
        <path id="f" d="M0 0h80v80H0z"/>
        <filter id="e" width="181.2%" height="181.2%" x="-40.6%" y="-34.4%" filterUnits="objectBoundingBox">
            <feOffset dy="5" in="SourceAlpha" result="shadowOffsetOuter1"/>
            <feGaussianBlur in="shadowOffsetOuter1" result="shadowBlurOuter1" stdDeviation="10"/>
            <feColorMatrix in="shadowBlurOuter1" values="0 0 0 0 0.196078431 0 0 0 0 0.870588235 0 0 0 0 0.517647059 0 0 0 0.3 0"/>
        </filter>
        <path id="h" d="M0 0h160v80H0z"/>
        <filter id="g" width="140.6%" height="181.2%" x="-20.3%" y="-34.4%" filterUnits="objectBoundingBox">
            <feOffset dy="5" in="SourceAlpha" result="shadowOffsetOuter1"/>
            <feGaussianBlur in="shadowOffsetOuter1" result="shadowBlurOuter1" stdDeviation="10"/>
            <feColorMatrix in="shadowBlurOuter1" values="0 0 0 0 0.898039216 0 0 0 0 0.258823529 0 0 0 0 0.168627451 0 0 0 0.3 0"/>
        </filter>
        <path id="j" d="M0 0h80v80H0z"/>
        <filter id="i" width="181.2%" height="181.2%" x="-40.6%" y="-34.4%" filterUnits="objectBoundingBox">
            <feOffset dy="5" in="SourceAlpha" result="shadowOffsetOuter1"/>
            <feGaussianBlur in="shadowOffsetOuter1" result="shadowBlurOuter1" stdDeviation="10"/>
            <feColorMatrix in="shadowBlurOuter1" values="0 0 0 0 0.380392157 0 0 0 0 0.854901961 0 0 0 0 0.984313725 0 0 0 0.3 0"/>
        </filter>
        <path id="l" d="M80 80h80v80H80z"/>
        <filter id="k" width="181.2%" height="181.2%" x="-40.6%" y="-34.4%" filterUnits="objectBoundingBox">
            <feOffset dy="5" in="SourceAlpha" result="shadowOffsetOuter1"/>
            <feGaussianBlur in="shadowOffsetOuter1" result="shadowBlurOuter1" stdDeviation="10"/>
            <feColorMatrix in="shadowBlurOuter1" values="0 0 0 0 0.866666667 0 0 0 0 0 0 0 0 0 0.192156863 0 0 0 0.3 0"/>
        </filter>
        <linearGradient id="m" x1="-55.709%" x2="55.52%" y1="81.936%" y2="10.155%">
            <stop offset="0%" stop-color="#2763E1"/>
            <stop offset="100%" stop-color="#9428EF"/>
        </linearGradient>
        <linearGradient id="n" x1="38.124%" x2=".277%" y1="0%" y2="99.273%">
            <stop offset="0%" stop-color="#4DB300"/>
            <stop offset="100%" stop-color="#AFEE2C"/>
        </linearGradient>
        <linearGradient id="o" x1="87.998%" x2="0%" y1="71.163%" y2="-36.788%">
            <stop offset="0%" stop-color="#597C9E"/>
            <stop offset="100%" stop-color="#FFF"/>
        </linearGradient>
        <linearGradient id="p" x1="14.481%" x2="50%" y1="0%" y2="100%">
            <stop offset="0%" stop-color="#27E1DE"/>
            <stop offset="100%" stop-color="#2876EF"/>
        </linearGradient>
        <path id="r" d="M0 0h165v160H0z"/>
        <filter id="q" width="139.4%" height="140.6%" x="-19.7%" y="-17.2%" filterUnits="objectBoundingBox">
            <feOffset dy="5" in="SourceAlpha" result="shadowOffsetOuter1"/>
            <feGaussianBlur in="shadowOffsetOuter1" result="shadowBlurOuter1" stdDeviation="10"/>
            <feColorMatrix in="shadowBlurOuter1" values="0 0 0 0 0.894117647 0 0 0 0 0.301960784 0 0 0 0 0.149019608 0 0 0 0.3 0"/>
        </filter>
        <path id="t" d="M0 0h165v160H0z"/>
        <filter id="s" width="139.4%" height="140.6%" x="-19.7%" y="-17.2%" filterUnits="objectBoundingBox">
            <feOffset dy="5" in="SourceAlpha" result="shadowOffsetOuter1"/>
            <feGaussianBlur in="shadowOffsetOuter1" result="shadowBlurOuter1" stdDeviation="10"/>
            <feColorMatrix in="shadowBlurOuter1" values="0 0 0 0 0.149019608 0 0 0 0 0.301960784 0 0 0 0 0.894117647 0 0 0 0.3 0"/>
        </filter>
        <path id="v" d="M0 0h80v80H0z"/>
        <filter id="u" width="181.2%" height="181.2%" x="-40.6%" y="-34.4%" filterUnits="objectBoundingBox">
            <feOffset dy="5" in="SourceAlpha" result="shadowOffsetOuter1"/>
            <feGaussianBlur in="shadowOffsetOuter1" result="shadowBlurOuter1" stdDeviation="10"/>
            <feColorMatrix in="shadowBlurOuter1" values="0 0 0 0 0 0 0 0 0 0 0 0 0 0 0 0 0 0 0.3 0"/>
        </filter>
    </defs>
    <g fill="none" fill-rule="evenodd">
        <g fill-rule="nonzero">
            <g transform="translate(20 160)">
                <use fill="#000" filter="url(#a)" xlink:href="#b"/>
                <use fill="#01579B" xlink:href="#b"/>
            </g>
            <g fill="#FFF">
                <path d="M72.002 240c0 11.088 6.44 20.66 15.781 25.2l-13.36-36.596A27.898 27.898 0 0 0 72.003 240zm46.905-1.41c0-3.46-1.86-5.863-2.922-7.722-1.423-2.325-2.758-4.264-2.758-6.566 0-2.563 2.574-4.97 5.321-4.97.124 0 .236.011.36.014-4.976-4.574-11.614-7.346-18.906-7.346-9.431 0-17.768 4.665-22.841 11.81.399.13.537.069 1.069.069 2.92 0 7.462-.35 7.462-.35 1.505-.1 1.689 2.121.173 2.303 0 0-1.512.184-3.199.266l10.38 31.111 6.124-18.376-4.555-12.684c-1.506-.08-2.938-.266-2.938-.266-1.508-.098-1.334-2.407.172-2.303 0 0 4.633.35 7.38.35 2.93 0 7.461-.35 7.461-.35 1.507-.1 1.689 2.12.182 2.303 0 0-1.522.183-3.206.266l10.31 30.817 2.798-9.32c1.424-3.64 2.133-6.65 2.133-9.056zm-18.415 3.853l-8.4 24.416a27.742 27.742 0 0 0 7.91 1.141c3.256 0 6.385-.567 9.303-1.587-.07-.124-.149-.25-.207-.385l-8.606-23.585zm24.083-15.887c.124.893.19 1.854.19 2.88 0 2.848-.536 6.038-2.134 10.039l-8.549 24.736C122.41 259.361 128 250.328 128 240a28 28 0 0 0-3.425-13.444z"/>
                <path d="M65 240c0 19.292 15.697 35 34.998 35C119.302 275 135 259.292 135 240s-15.697-35-35-35-35 15.708-35 35zm3.491 0c0-17.367 14.13-31.498 31.507-31.498 17.378 0 31.51 14.131 31.51 31.498S117.377 271.502 100 271.502c-17.374 0-31.509-14.135-31.509-31.502z"/>
            </g>
        </g>
        <g fill-rule="nonzero">
            <g transform="translate(260 160)">
                <use fill="#000" filter="url(#c)" xlink:href="#d"/>
                <use fill="#F26322" xlink:href="#d"/>
            </g>
            <g fill="#FFF">
                <path d="M340.343 195l-26.22 15.175v30.31l7.485 4.34-.053-30.318 18.735-10.843 18.735 10.843v30.304l7.484-4.325v-30.337z"/>
                <path d="M344.055 244.818l-3.739 2.179-3.758-2.16v-30.33l-7.478 4.332.013 30.317 11.217 6.498 11.23-6.498V218.84l-7.485-4.332z"/>
                <g>
                    <path d="M304.896 265.787l5.146 13.035h.043l5.02-13.035h1.96v14.936h-1.355v-13.016h-.043c-.07.237-.146.473-.228.71-.07.193-.15.409-.241.645-.09.238-.172.46-.238.669l-4.314 10.992h-1.228l-4.357-10.989a11.997 11.997 0 0 1-.251-.636c-.084-.23-.16-.449-.231-.659a39.797 39.797 0 0 0-.251-.732h-.043v13.016H303v-14.936h1.896zM321.001 280.786a3.168 3.168 0 0 1-1.113-.563 2.652 2.652 0 0 1-.74-.94c-.18-.376-.27-.814-.27-1.315 0-.64.117-1.163.353-1.567.233-.4.562-.733.958-.97a4.867 4.867 0 0 1 1.407-.553c.566-.13 1.14-.228 1.717-.292.529-.055.977-.115 1.345-.179.368-.064.666-.144.895-.241.229-.098.395-.227.499-.388.103-.161.155-.38.155-.659v-.209c0-.737-.222-1.283-.667-1.639-.445-.355-1.084-.533-1.916-.533-1.918 0-2.925.801-3.022 2.404h-1.272c.07-1.044.456-1.88 1.156-2.507.7-.627 1.745-.94 3.135-.94 1.18 0 2.11.261 2.79.784.681.524 1.021 1.377 1.021 2.56v5.87c0 .32.06.552.179.698.119.146.296.226.531.242.074 0 .147-.007.218-.02.076-.013.162-.036.261-.063h.063v.94a2.44 2.44 0 0 1-.353.117 2.197 2.197 0 0 1-.522.053c-.471 0-.847-.123-1.126-.368-.28-.245-.433-.632-.46-1.16v-.228h-.056c-.169.229-.353.446-.551.65a3.72 3.72 0 0 1-.783.605 4.363 4.363 0 0 1-1.064.438 5.032 5.032 0 0 1-1.374.165 4.978 4.978 0 0 1-1.397-.189m3.178-1.139c.451-.188.83-.428 1.136-.722.58-.548.912-1.31.918-2.11v-1.944a4.54 4.54 0 0 1-1.262.45c-.493.107-1.004.194-1.532.262-.458.071-.882.144-1.272.219-.39.075-.727.197-1.01.364-.281.164-.515.398-.678.68-.167.284-.25.657-.25 1.119 0 .375.065.689.197.94.124.241.303.449.522.606.229.16.487.27.76.325.302.063.61.094.918.093.584 0 1.101-.094 1.553-.282M330.897 283.704c-.722-.537-1.132-1.209-1.229-2.017h1.249c.112.627.45 1.076 1.01 1.348.562.272 1.233.407 2.012.407 1.154 0 2.005-.275 2.553-.824.549-.55.823-1.306.823-2.269v-1.712h-.063c-.403.611-.869 1.077-1.397 1.397-.528.32-1.202.48-2.021.48-.71 0-1.348-.132-1.916-.397a4.239 4.239 0 0 1-1.46-1.106 4.953 4.953 0 0 1-.928-1.702 7.014 7.014 0 0 1-.324-2.183c0-.876.124-1.653.373-2.328.25-.676.583-1.243 1.001-1.702.407-.453.91-.809 1.47-1.044a4.545 4.545 0 0 1 1.78-.354c.833 0 1.52.171 2.061.513a4.27 4.27 0 0 1 1.355 1.388h.062v-1.676h1.279v10.383c0 1.197-.334 2.165-1.001 2.904-.82.864-2.02 1.295-3.604 1.295-1.334 0-2.363-.268-3.085-.804m5.648-5.465c.57-.795.856-1.84.856-3.133 0-.64-.07-1.225-.208-1.755a3.801 3.801 0 0 0-.648-1.368 2.958 2.958 0 0 0-1.093-.888c-.438-.21-.949-.314-1.533-.314-1.07 0-1.9.396-2.49 1.189-.59.792-.885 1.85-.885 3.176a6.627 6.627 0 0 0 .208 1.702c.139.521.347.974.624 1.358.272.377.628.685 1.04.897.417.217.91.325 1.48.325 1.194 0 2.076-.397 2.646-1.192M343.065 280.568a4.394 4.394 0 0 1-1.572-1.19 5.326 5.326 0 0 1-.968-1.798 7.292 7.292 0 0 1-.333-2.245c0-.808.118-1.557.353-2.246a5.612 5.612 0 0 1 .988-1.795 4.47 4.47 0 0 1 1.542-1.192c.604-.285 1.28-.427 2.032-.427.86 0 1.586.163 2.176.49.578.316 1.071.767 1.437 1.315.368.55.629 1.18.783 1.89.153.721.23 1.456.228 2.193h-8.208c.008.577.096 1.15.26 1.703.146.493.379.957.688 1.367.3.393.69.709 1.136.921.458.223.993.335 1.605.335.903 0 1.601-.22 2.095-.66.493-.439.843-1.027 1.05-1.765h1.252c-.236 1.073-.723 1.93-1.46 2.57-.738.64-1.717.96-2.937.96-.806 0-1.521-.142-2.147-.426m5.084-7.522a3.68 3.68 0 0 0-.605-1.212 2.766 2.766 0 0 0-1-.805c-.403-.194-.882-.291-1.437-.291s-1.039.097-1.45.291a3.099 3.099 0 0 0-1.074.805c-.3.357-.536.764-.697 1.202-.18.484-.295.99-.343 1.504h6.834a5.72 5.72 0 0 0-.228-1.494M352.628 269.923v1.65h.043c.369-.551.856-1.012 1.426-1.349.59-.355 1.316-.533 2.177-.533 1 0 1.823.29 2.47.868.648.578.97 1.41.969 2.497v7.67h-1.292v-7.544c0-.821-.219-1.424-.657-1.808-.438-.384-1.04-.575-1.804-.573a3.602 3.602 0 0 0-1.291.232c-.39.145-.75.36-1.064.635a2.901 2.901 0 0 0-.981 2.202v6.857h-1.288v-10.804h1.292zM363.045 280.359c-.374-.3-.561-.798-.561-1.494v-7.875h-1.625v-1.067h1.625v-3.322h1.291v3.322h2.002v1.067h-2.002v7.667c0 .39.087.659.261.804.174.146.434.219.78.219.158 0 .315-.019.469-.053.132-.026.261-.065.386-.116h.063v1.106c-.383.13-.785.193-1.19.189-.624 0-1.124-.15-1.499-.45M369.598 280.568a4.513 4.513 0 0 1-1.572-1.193 5.338 5.338 0 0 1-.99-1.795 7.078 7.078 0 0 1-.344-2.245c0-.808.114-1.557.343-2.246.23-.689.56-1.288.991-1.798a4.52 4.52 0 0 1 1.572-1.192c.62-.285 1.317-.428 2.095-.428.777 0 1.472.143 2.084.428a4.546 4.546 0 0 1 1.562 1.192 5.16 5.16 0 0 1 .978 1.798c.22.691.331 1.44.333 2.246 0 .808-.11 1.556-.333 2.245a5.237 5.237 0 0 1-.978 1.795 4.54 4.54 0 0 1-1.562 1.193c-.61.284-1.305.427-2.084.427-.78 0-1.478-.143-2.095-.427m3.68-1.014a3.25 3.25 0 0 0 1.146-.98c.306-.418.535-.905.687-1.464a6.983 6.983 0 0 0 0-3.55 4.401 4.401 0 0 0-.687-1.464 3.24 3.24 0 0 0-1.146-.98c-.458-.24-.985-.357-1.582-.355-.597.002-1.129.12-1.595.354-.451.236-.843.571-1.147.98a4.291 4.291 0 0 0-.697 1.465 7 7 0 0 0 0 3.55c.152.556.385 1.044.697 1.464.304.409.696.744 1.147.98.451.236.983.354 1.595.354s1.14-.118 1.582-.354"/>
                </g>
            </g>
        </g>
        <g fill-rule="nonzero">
            <g transform="translate(180 80)">
                <use fill="#000" filter="url(#e)" xlink:href="#f"/>
                <use fill="#32DE84" xlink:href="#f"/>
            </g>
            <g fill="#FFF">
                <g transform="translate(197.026 129.786)">
                    <path d="M3.237 3.287c-1.574 0-3.192 1.26-3.192 3.468 0 2.018 1.423 3.443 3.192 3.443 1.46 0 2.111-.98 2.111-.98v.427c0 .202.19.427.427.427h1.056V3.437H5.348v.842s-.656-.992-2.111-.992zM3.5 4.643c1.295 0 1.975 1.14 1.975 2.111 0 1.083-.807 2.11-1.972 2.11-.974 0-1.95-.788-1.95-2.124 0-1.205.84-2.097 1.947-2.097zM8.892 10.072a.415.415 0 0 1-.428-.427V3.437h1.483v.822c.336-.506.993-.974 2-.974 1.647 0 2.524 1.312 2.524 2.54v4.247h-1.03a.454.454 0 0 1-.453-.452V6.152c0-.68-.417-1.507-1.38-1.507-1.041 0-1.66.983-1.66 1.909v3.518H8.891zM18.794 3.287c-1.574 0-3.192 1.26-3.192 3.468 0 2.018 1.423 3.443 3.192 3.443 1.46 0 2.111-.98 2.111-.98v.427c0 .202.191.427.427.427h1.056V.12h-1.483v4.16s-.656-.993-2.111-.993zm.264 1.356c1.296 0 1.975 1.14 1.975 2.111 0 1.083-.807 2.11-1.972 2.11-.974 0-1.95-.788-1.95-2.124 0-1.205.84-2.097 1.947-2.097zM24.449 10.072a.415.415 0 0 1-.427-.427V3.437h1.482v1.106c.256-.62.806-1.18 1.785-1.18.273 0 .528.05.528.05v1.532s-.319-.125-.704-.125c-1.04 0-1.609.983-1.609 1.909v3.343H24.45zM36.814 10.072a.415.415 0 0 1-.427-.427V3.437h1.483v6.635h-1.056zM42.218 3.287c-1.574 0-3.192 1.26-3.192 3.468 0 2.018 1.423 3.443 3.192 3.443 1.46 0 2.11-.98 2.11-.98v.427c0 .202.192.427.428.427h1.056V.12h-1.483v4.16s-.657-.993-2.111-.993zm.264 1.356c1.295 0 1.975 1.14 1.975 2.111 0 1.083-.807 2.11-1.972 2.11-.975 0-1.95-.788-1.95-2.124 0-1.205.84-2.097 1.947-2.097z"/>
                    <circle cx="37.117" cy="1.026" r="1"/>
                    <path d="M31.727 3.284c-1.648 0-3.459 1.23-3.459 3.46 0 2.03 1.543 3.454 3.456 3.454 2.357 0 3.508-1.895 3.508-3.442 0-1.899-1.482-3.472-3.505-3.472zm.006 1.385c1.14 0 1.99.919 1.99 2.078 0 1.18-.903 2.09-1.987 2.09-1.006 0-1.984-.818-1.984-2.07 0-1.272.93-2.098 1.98-2.098z"/>
                </g>
                <path d="M231.124 107.763l3.794-6.572a.77.77 0 0 0-.278-1.05.76.76 0 0 0-1.046.278l-3.844 6.657c-2.932-1.34-6.233-2.086-9.783-2.086s-6.851.747-9.784 2.086l-3.843-6.657a.766.766 0 0 0-1.05-.279.766.766 0 0 0-.28 1.051l3.794 6.572c-6.542 3.545-10.973 10.167-11.705 17.92h45.736c-.732-7.753-5.163-14.375-11.71-17.92zm-21.658 11.496a1.918 1.918 0 1 1 .002-3.835 1.918 1.918 0 0 1-.002 3.835zm20.996 0a1.918 1.918 0 1 1 .002-3.835 1.918 1.918 0 0 1-.002 3.835z"/>
            </g>
        </g>
        <g fill-rule="nonzero">
            <g transform="translate(340 400)">
                <use fill="#000" filter="url(#g)" xlink:href="#h"/>
                <use fill="#E5422B" xlink:href="#h"/>
            </g>
            <path fill="#FFF" d="M420.74 438.523h3.588l.423-2.289h-3.587l.607-3.347h-.014l-2.726 2.218-.198 1.115h-2.825l.82-4.505c.197-1.695 2.683-1.187 3.05-1.088l.396-2.175c-4.477-1.794-5.777 3.263-5.777 3.263l-.819 4.505h-.014l-2.797 2.288h2.401l-2.64 14.407h2.33l2.627-14.392h2.825l-1.031 5.635c-.65 4.096 3.29 3.644 4.548 3.39l.395-2.147c-3.008.706-2.613-1.243-2.613-1.243l1.031-5.635zm-13.856 5.776c-2.599 2.74-4.265.947-4.265.947-1.13-1.13.113-2.288.113-2.288 1.723-1.61 4.35.155 4.35.155l-.198 1.186zm.382-2.88s-3.433-1.823-5.834.21c0 0-1.412.976-1.412 2.91 0 1.936 1.723 2.98 1.723 2.98s2.585 1.413 4.604-.847l-.226 1.046h2.26l1.427-6.964c1.073-6.878-6.864-4.435-6.864-4.435l-.438 2.472c5.847-2.627 4.858 1.95 4.858 1.95l-.098.677zm-5.82-4.817c-1.906.014-3.63 1.073-3.63 1.073l.226-1.03h-2.274l-2.076 11.299h2.33l1.413-7.444c1.045-2.105 3.616-1.44 3.616-1.44l.395-2.458zm-9.138-4.944c.113.085.226.184.325.283l1.695-1.37.056-.071a8.79 8.79 0 0 0-.847-.763c-3.899-3.022-9.774-1.751-13.136 2.825-3.361 4.576-2.938 10.735.96 13.757 3.179 2.458 7.684 2.076 11.06-.65l-1.61-1.299c-2.5 1.653-5.608 1.766-7.853.028-2.995-2.316-3.32-7.048-.735-10.565 2.57-3.53 7.09-4.505 10.085-2.175zm43.743 15.212c-.509.325-1.06.58-1.624.777a6.017 6.017 0 0 1-1.921.297c-.82 0-1.568-.142-2.26-.438a5.217 5.217 0 0 1-1.78-1.2 6.06 6.06 0 0 1-1.172-1.795 5.794 5.794 0 0 1-.424-2.217c0-.791.141-1.526.41-2.218.268-.678.664-1.3 1.172-1.822a5.637 5.637 0 0 1 1.794-1.229 5.663 5.663 0 0 1 2.26-.452c.692 0 1.327.1 1.92.297.594.198 1.13.466 1.639.777l-.452.664a7.018 7.018 0 0 0-1.427-.692c-.508-.184-1.059-.269-1.68-.269a4.78 4.78 0 0 0-1.935.382 4.58 4.58 0 0 0-1.498 1.03c-.423.439-.748.961-.974 1.54a5.247 5.247 0 0 0-.34 1.921c0 .678.114 1.328.34 1.935.212.58.55 1.116.974 1.582a4.66 4.66 0 0 0 1.498 1.06 4.78 4.78 0 0 0 1.935.38c.621 0 1.186-.098 1.68-.268a8.323 8.323 0 0 0 1.427-.692l.438.65zm16.836 1.074v-7.486c0-2.034-.833-3.051-2.5-3.051-.763 0-1.497.24-2.19.692-.691.466-1.313 1.087-1.864 1.85v7.995h-.819v-7.486c0-2.034-.833-3.051-2.5-3.051-.777 0-1.511.24-2.175.692a9.428 9.428 0 0 0-1.879 1.723v8.122h-.79v-11.13h.79v2.09c.24-.283.509-.565.82-.848.31-.282.635-.522.974-.734.353-.212.72-.395 1.13-.523.41-.14.848-.197 1.271-.197.707 0 1.342.212 1.879.621.537.41.904 1.045 1.102 1.907a7.377 7.377 0 0 1 1.906-1.766c.763-.494 1.582-.748 2.472-.748.41 0 .82.07 1.215.212.381.14.72.367 1.017.678.296.31.536.706.706 1.186.17.48.254 1.045.254 1.71v7.556h-.819v-.014zm10-3.023c0 .41-.07.79-.24 1.158a2.704 2.704 0 0 1-.678.96 3.44 3.44 0 0 1-1.06.664 3.63 3.63 0 0 1-1.398.255 5.25 5.25 0 0 1-1.949-.353c-.621-.24-1.2-.551-1.751-.933l.395-.635a8.474 8.474 0 0 0 1.568.861 4.45 4.45 0 0 0 1.751.34c.777 0 1.413-.213 1.879-.636.466-.424.706-.933.706-1.554 0-.523-.141-.946-.424-1.257-.282-.31-.635-.565-1.059-.791a9.309 9.309 0 0 0-1.37-.593 8.046 8.046 0 0 1-1.37-.636 3.658 3.658 0 0 1-1.06-.918c-.282-.367-.423-.861-.423-1.469 0-.353.07-.692.226-1.03.155-.34.367-.65.636-.89a3.168 3.168 0 0 1 1.016-.636c.396-.156.862-.24 1.385-.24.579 0 1.115.084 1.624.268.508.17 1.017.438 1.497.79l-.395.665c-.466-.353-.918-.608-1.342-.763a4.279 4.279 0 0 0-1.398-.24c-.834 0-1.455.212-1.865.621-.41.41-.607.876-.607 1.385 0 .522.141.946.424 1.257.282.31.635.565 1.059.776.424.212.876.41 1.37.58.48.169.946.38 1.37.621.424.24.777.537 1.06.904.282.353.423.847.423 1.469z"/>
        </g>
        <g fill-rule="nonzero">
            <g transform="translate(420 80)">
                <use fill="#000" filter="url(#i)" xlink:href="#j"/>
                <use fill="#61DAFB" xlink:href="#j"/>
            </g>
            <g fill="#FFF" transform="translate(437 100)">
                <path d="M44.97 20c0-2.975-3.725-5.794-9.437-7.542 1.318-5.822.732-10.453-1.849-11.936-.595-.348-1.29-.513-2.05-.513V2.05c.42 0 .76.083 1.043.238 1.245.714 1.785 3.433 1.364 6.93-.1.86-.265 1.766-.467 2.69a44.359 44.359 0 0 0-5.812-.997 44.65 44.65 0 0 0-3.808-4.577c2.984-2.773 5.785-4.293 7.689-4.293V0c-2.517 0-5.812 1.794-9.144 4.906-3.332-3.094-6.627-4.87-9.144-4.87v2.042c1.894 0 4.704 1.51 7.688 4.265a43.232 43.232 0 0 0-3.78 4.568c-2.068.22-4.027.558-5.821 1.007a27.614 27.614 0 0 1-.476-2.655c-.43-3.496.1-6.215 1.336-6.938.275-.165.632-.238 1.053-.238V.046c-.77 0-1.465.165-2.069.512-2.572 1.483-3.149 6.106-1.821 11.909C3.77 14.224.065 17.034.065 20c0 2.975 3.724 5.794 9.436 7.542-1.318 5.822-.732 10.453 1.85 11.936.594.348 1.29.513 2.059.513 2.517 0 5.812-1.794 9.144-4.906 3.332 3.093 6.627 4.87 9.144 4.87.769 0 1.464-.166 2.069-.513 2.572-1.483 3.148-6.106 1.821-11.909 5.675-1.748 9.382-4.567 9.382-7.533zm-11.917-6.105a41.225 41.225 0 0 1-1.236 3.615 43.318 43.318 0 0 0-1.2-2.196 49.527 49.527 0 0 0-1.317-2.142c1.3.192 2.554.43 3.753.723zm-4.193 9.748a48.764 48.764 0 0 1-2.206 3.497 47.627 47.627 0 0 1-8.256.009 50.457 50.457 0 0 1-2.215-3.479 47.678 47.678 0 0 1-1.904-3.643 47.732 47.732 0 0 1 1.895-3.652 48.764 48.764 0 0 1 2.206-3.496 47.627 47.627 0 0 1 8.256-.01 50.457 50.457 0 0 1 2.215 3.479 47.679 47.679 0 0 1 1.904 3.643 51.25 51.25 0 0 1-1.895 3.652zm2.957-1.19a39.227 39.227 0 0 1 1.263 3.643c-1.199.293-2.462.54-3.771.732.448-.704.897-1.428 1.318-2.169.421-.732.815-1.474 1.19-2.206zm-9.282 9.767a37.736 37.736 0 0 1-2.544-2.93c.824.037 1.666.065 2.517.065.86 0 1.712-.019 2.545-.064a35.728 35.728 0 0 1-2.518 2.929zm-6.81-5.392c-1.3-.192-2.553-.43-3.752-.723.338-1.18.76-2.398 1.235-3.615.376.732.77 1.464 1.2 2.196.43.733.869 1.447 1.317 2.142zM22.49 7.78a37.736 37.736 0 0 1 2.544 2.93 56.663 56.663 0 0 0-2.517-.065c-.86 0-1.712.019-2.544.064A35.728 35.728 0 0 1 22.49 7.78zm-6.774 5.392a50.567 50.567 0 0 0-2.508 4.366 39.227 39.227 0 0 1-1.263-3.643c1.2-.284 2.462-.531 3.771-.723zm-8.284 11.46C4.192 23.249 2.096 21.437 2.096 20c0-1.437 2.096-3.259 5.336-4.632.788-.338 1.648-.64 2.536-.924a43.962 43.962 0 0 0 2.06 5.574 43.342 43.342 0 0 0-2.033 5.547 27.806 27.806 0 0 1-2.563-.933zm4.925 13.08c-1.245-.714-1.785-3.433-1.364-6.93.1-.86.266-1.766.467-2.69 1.794.439 3.753.778 5.812.997a44.65 44.65 0 0 0 3.808 4.577c-2.984 2.773-5.785 4.293-7.689 4.293-.412-.01-.76-.092-1.034-.247zm21.712-6.975c.43 3.496-.101 6.215-1.337 6.938-.274.165-.631.238-1.052.238-1.895 0-4.705-1.51-7.69-4.265a43.232 43.232 0 0 0 3.781-4.568 42.744 42.744 0 0 0 5.822-1.007c.21.925.375 1.813.476 2.664zm3.524-6.105c-.788.338-1.648.64-2.536.924a43.962 43.962 0 0 0-2.06-5.574 43.342 43.342 0 0 0 2.033-5.547c.906.284 1.766.595 2.572.933 3.24 1.383 5.336 3.195 5.336 4.632-.009 1.437-2.105 3.259-5.345 4.632z"/>
                <circle cx="22.508" cy="20" r="4.183"/>
            </g>
            <g transform="translate(420 80)">
                <use fill="#000" filter="url(#k)" xlink:href="#l"/>
                <use fill="#DD0031" xlink:href="#l"/>
            </g>
            <path fill="#FFF" d="M539.74 179l-19.551 6.972 2.982 25.851L539.74 221l16.569-9.177 2.982-25.851z"/>
            <path fill="#DD0031" d="M539.74 183.641l-12.222 27.405h4.557l2.457-6.132h10.374l2.457 6.132h4.557l-12.18-27.405zm3.57 17.493h-7.14l3.57-8.589 3.57 8.589z"/>
        </g>
        <path fill="url(#m)" d="M360 40h40v40h-40z" transform="translate(20)"/>
        <path fill="url(#n)" d="M440 240h40v40h-40z" transform="translate(20)"/>
        <path fill="url(#o)" d="M560 120h40v40h-40z" transform="translate(20)"/>
        <path fill="url(#p)" d="M120 400h40v40h-40z" transform="translate(20)"/>
        <g fill-rule="nonzero">
            <g transform="translate(660 80)">
                <use fill="#000" filter="url(#q)" xlink:href="#r"/>
                <use fill="#E44D26" xlink:href="#r"/>
            </g>
            <path fill="#FFF" d="M770.923 135.722l-5.164 57.843L742.55 200l-23.145-6.425-5.158-57.853z"/>
            <path fill="#E44D26" d="M732.547 154.643h10.037v-7.095h-17.792l.17 1.903 1.744 19.553h15.878v-7.095h-9.389zM734.146 172.552H727.023l.994 11.14 14.534 4.036.033-.01v-7.382l-.031.009-7.902-2.134z"/>
            <path fill="#FFF" d="M719.519 120h3.606v3.563h3.298V120h3.606v10.788h-3.606v-3.612h-3.298v3.612h-3.606V120zM734.77 123.578h-3.174V120h9.957v3.578h-3.176v7.21h-3.606v-7.21zM743.133 120h3.76l2.312 3.79 2.31-3.79h3.762v10.788h-3.59v-5.347l-2.482 3.836h-.062l-2.482-3.836v5.347h-3.528zM757.072 120h3.607v7.222h5.07v3.566h-8.677z"/>
            <path fill="#E44D26" d="M742.56 169.004h8.737l-.824 9.202-7.913 2.136v7.382l14.546-4.031.106-1.199 1.668-18.68.173-1.905H742.56zM742.56 154.626v.017H759.698l.143-1.595.323-3.597.17-1.903H742.56v4.407z" opacity=".8"/>
        </g>
        <g fill-rule="nonzero">
            <g transform="translate(660 320)">
                <use fill="#000" filter="url(#s)" xlink:href="#t"/>
                <use fill="#264DE4" xlink:href="#t"/>
            </g>
            <path fill="#FFF" d="M742.403 440l-23.146-6.425-5.158-57.853h56.677l-5.163 57.843z"/>
            <path fill="#264DE4" d="M725.923 401.909l.636 7.095h15.878v-7.095zM724.646 387.548l.645 7.095h17.146v-7.095h-.024zM742.438 420.336l-.032.009-7.902-2.134-.505-5.659H726.876l.994 11.14 14.535 4.036.033-.01z"/>
            <path fill="#FFF" d="M727.438 360h8.593v3.594h-5v3.594h5v3.593h-8.593zM737.75 360h8.594v3.125h-5v.625h5v7.188h-8.594v-3.282h5v-.625h-5zM748.063 360h8.593v3.125h-5v.625h5v7.188h-8.593v-3.282h5v-.625h-5z"/>
            <path fill="#264DE4" d="M758.906 401.909l1.281-14.361h-17.774v7.095h9.998l-.646 7.266h-9.352v7.095h8.737l-.823 9.202-7.914 2.136v7.382l14.546-4.031.107-1.199 1.667-18.68z" opacity=".8"/>
        </g>
        <g fill-rule="nonzero">
            <g fill="#000" transform="translate(580 240)">
                <use filter="url(#u)" xlink:href="#v"/>
                <use xlink:href="#v"/>
            </g>
            <path fill="#FFF" d="M626.393 260c-1.873.09-4.182 1.278-5.505 2.947-1.211 1.442-2.247 3.78-1.986 5.974 2.116.183 4.236-1.097 5.556-2.721 1.3-1.673 2.155-3.912 1.935-6.2zm-.241 10.057c-3.084 0-5.292 1.673-6.731 1.673-1.462 0-3.646-1.659-6.17-1.659-3.083 0-6.102 1.932-7.695 4.745-3.27 5.622-.847 13.948 2.315 18.527 1.551 2.265 3.42 4.657 5.943 4.657 2.313-.086 3.092-1.397 5.884-1.397 2.81 0 3.646 1.397 6.169 1.397 2.523 0 4.052-2.305 5.6-4.57 1.768-2.57 2.488-5.08 2.533-5.21-.041-.041-4.89-1.896-4.935-7.474-.041-4.664 3.818-6.888 3.993-7.014-2.179-3.227-5.788-3.675-6.629-3.675h-.277z"/>
        </g>
        <path fill="url(#o)" d="M91.5 76a2 2 0 1 1 0 4 2 2 0 0 1 0-4zm19 0a2 2 0 1 1 0 4 2 2 0 0 1 0-4zm19 0a2 2 0 1 1 0 4 2 2 0 0 1 0-4zm19 0a2 2 0 1 1 0 4 2 2 0 0 1 0-4zm9.5-9.5a2 2 0 1 1 0 4 2 2 0 0 1 0-4zm-76 0a2 2 0 1 1 0 4 2 2 0 0 1 0-4zm19 0a2 2 0 1 1 0 4 2 2 0 0 1 0-4zm19 0a2 2 0 1 1 0 4 2 2 0 0 1 0-4zm19 0a2 2 0 1 1 0 4 2 2 0 0 1 0-4zM91.5 57a2 2 0 1 1 0 4 2 2 0 0 1 0-4zm19 0a2 2 0 1 1 0 4 2 2 0 0 1 0-4zm19 0a2 2 0 1 1 0 4 2 2 0 0 1 0-4zm19 0a2 2 0 1 1 0 4 2 2 0 0 1 0-4zm-9.5-9.5a2 2 0 1 1 0 4 2 2 0 0 1 0-4zm19 0a2 2 0 1 1 0 4 2 2 0 0 1 0-4zm-76 0a2 2 0 1 1 0 4 2 2 0 0 1 0-4zm19 0a2 2 0 1 1 0 4 2 2 0 0 1 0-4zm19 0a2 2 0 1 1 0 4 2 2 0 0 1 0-4zm9.5-9.5a2 2 0 1 1 0 4 2 2 0 0 1 0-4zm-38 0a2 2 0 1 1 0 4 2 2 0 0 1 0-4zm19 0a2 2 0 1 1 0 4 2 2 0 0 1 0-4zm38 0a2 2 0 1 1 0 4 2 2 0 0 1 0-4zm-9.5-9.5a2 2 0 1 1 0 4 2 2 0 0 1 0-4zm-57 0a2 2 0 1 1 0 4 2 2 0 0 1 0-4zm38 0a2 2 0 1 1 0 4 2 2 0 0 1 0-4zm-19 0a2 2 0 1 1 0 4 2 2 0 0 1 0-4zm57 0a2 2 0 1 1 0 4 2 2 0 0 1 0-4zM91.5 19a2 2 0 1 1 0 4 2 2 0 0 1 0-4zm19 0a2 2 0 1 1 0 4 2 2 0 0 1 0-4zm19 0a2 2 0 1 1 0 4 2 2 0 0 1 0-4zm19 0a2 2 0 1 1 0 4 2 2 0 0 1 0-4zM82 9.5a2 2 0 1 1 0 4 2 2 0 0 1 0-4zm19 0a2 2 0 1 1 0 4 2 2 0 0 1 0-4zm19 0a2 2 0 1 1 0 4 2 2 0 0 1 0-4zm19 0a2 2 0 1 1 0 4 2 2 0 0 1 0-4zm19 0a2 2 0 1 1 0 4 2 2 0 0 1 0-4zM91.5 0a2 2 0 1 1 0 4 2 2 0 0 1 0-4zm19 0a2 2 0 1 1 0 4 2 2 0 0 1 0-4zm19 0a2 2 0 1 1 0 4 2 2 0 0 1 0-4zm19 0a2 2 0 1 1 0 4 2 2 0 0 1 0-4zM571.5 76a2 2 0 1 1 0 4 2 2 0 0 1 0-4zm19 0a2 2 0 1 1 0 4 2 2 0 0 1 0-4zm19 0a2 2 0 1 1 0 4 2 2 0 0 1 0-4zm19 0a2 2 0 1 1 0 4 2 2 0 0 1 0-4zm9.5-9.5a2 2 0 1 1 0 4 2 2 0 0 1 0-4zm-76 0a2 2 0 1 1 0 4 2 2 0 0 1 0-4zm19 0a2 2 0 1 1 0 4 2 2 0 0 1 0-4zm19 0a2 2 0 1 1 0 4 2 2 0 0 1 0-4zm19 0a2 2 0 1 1 0 4 2 2 0 0 1 0-4zM571.5 57a2 2 0 1 1 0 4 2 2 0 0 1 0-4zm19 0a2 2 0 1 1 0 4 2 2 0 0 1 0-4zm19 0a2 2 0 1 1 0 4 2 2 0 0 1 0-4zm19 0a2 2 0 1 1 0 4 2 2 0 0 1 0-4zm-9.5-9.5a2 2 0 1 1 0 4 2 2 0 0 1 0-4zm19 0a2 2 0 1 1 0 4 2 2 0 0 1 0-4zm-76 0a2 2 0 1 1 0 4 2 2 0 0 1 0-4zm19 0a2 2 0 1 1 0 4 2 2 0 0 1 0-4zm19 0a2 2 0 1 1 0 4 2 2 0 0 1 0-4zm9.5-9.5a2 2 0 1 1 0 4 2 2 0 0 1 0-4zm-38 0a2 2 0 1 1 0 4 2 2 0 0 1 0-4zm19 0a2 2 0 1 1 0 4 2 2 0 0 1 0-4zm38 0a2 2 0 1 1 0 4 2 2 0 0 1 0-4zm-9.5-9.5a2 2 0 1 1 0 4 2 2 0 0 1 0-4zm-57 0a2 2 0 1 1 0 4 2 2 0 0 1 0-4zm38 0a2 2 0 1 1 0 4 2 2 0 0 1 0-4zm-19 0a2 2 0 1 1 0 4 2 2 0 0 1 0-4zm57 0a2 2 0 1 1 0 4 2 2 0 0 1 0-4zM571.5 19a2 2 0 1 1 0 4 2 2 0 0 1 0-4zm19 0a2 2 0 1 1 0 4 2 2 0 0 1 0-4zm19 0a2 2 0 1 1 0 4 2 2 0 0 1 0-4zm19 0a2 2 0 1 1 0 4 2 2 0 0 1 0-4zM562 9.5a2 2 0 1 1 0 4 2 2 0 0 1 0-4zm19 0a2 2 0 1 1 0 4 2 2 0 0 1 0-4zm19 0a2 2 0 1 1 0 4 2 2 0 0 1 0-4zm19 0a2 2 0 1 1 0 4 2 2 0 0 1 0-4zm19 0a2 2 0 1 1 0 4 2 2 0 0 1 0-4zM571.5 0a2 2 0 1 1 0 4 2 2 0 0 1 0-4zm19 0a2 2 0 1 1 0 4 2 2 0 0 1 0-4zm19 0a2 2 0 1 1 0 4 2 2 0 0 1 0-4zm19 0a2 2 0 1 1 0 4 2 2 0 0 1 0-4zM171.5 396a2 2 0 1 1 0 4 2 2 0 0 1 0-4zm19 0a2 2 0 1 1 0 4 2 2 0 0 1 0-4zm19 0a2 2 0 1 1 0 4 2 2 0 0 1 0-4zm19 0a2 2 0 1 1 0 4 2 2 0 0 1 0-4zm9.5-9.5a2 2 0 1 1 0 4 2 2 0 0 1 0-4zm-76 0a2 2 0 1 1 0 4 2 2 0 0 1 0-4zm19 0a2 2 0 1 1 0 4 2 2 0 0 1 0-4zm19 0a2 2 0 1 1 0 4 2 2 0 0 1 0-4zm19 0a2 2 0 1 1 0 4 2 2 0 0 1 0-4zm-47.5-9.5a2 2 0 1 1 0 4 2 2 0 0 1 0-4zm19 0a2 2 0 1 1 0 4 2 2 0 0 1 0-4zm19 0a2 2 0 1 1 0 4 2 2 0 0 1 0-4zm19 0a2 2 0 1 1 0 4 2 2 0 0 1 0-4zm-9.5-9.5a2 2 0 1 1 0 4 2 2 0 0 1 0-4zm19 0a2 2 0 1 1 0 4 2 2 0 0 1 0-4zm-76 0a2 2 0 1 1 0 4 2 2 0 0 1 0-4zm19 0a2 2 0 1 1 0 4 2 2 0 0 1 0-4zm19 0a2 2 0 1 1 0 4 2 2 0 0 1 0-4zm9.5-9.5a2 2 0 1 1 0 4 2 2 0 0 1 0-4zm-38 0a2 2 0 1 1 0 4 2 2 0 0 1 0-4zm19 0a2 2 0 1 1 0 4 2 2 0 0 1 0-4zm38 0a2 2 0 1 1 0 4 2 2 0 0 1 0-4zm-9.5-9.5a2 2 0 1 1 0 4 2 2 0 0 1 0-4zm-57 0a2 2 0 1 1 0 4 2 2 0 0 1 0-4zm38 0a2 2 0 1 1 0 4 2 2 0 0 1 0-4zm-19 0a2 2 0 1 1 0 4 2 2 0 0 1 0-4zm57 0a2 2 0 1 1 0 4 2 2 0 0 1 0-4zm-66.5-9.5a2 2 0 1 1 0 4 2 2 0 0 1 0-4zm19 0a2 2 0 1 1 0 4 2 2 0 0 1 0-4zm19 0a2 2 0 1 1 0 4 2 2 0 0 1 0-4zm19 0a2 2 0 1 1 0 4 2 2 0 0 1 0-4zm-66.5-9.5a2 2 0 1 1 0 4 2 2 0 0 1 0-4zm19 0a2 2 0 1 1 0 4 2 2 0 0 1 0-4zm19 0a2 2 0 1 1 0 4 2 2 0 0 1 0-4zm19 0a2 2 0 1 1 0 4 2 2 0 0 1 0-4zm19 0a2 2 0 1 1 0 4 2 2 0 0 1 0-4zm-66.5-9.5a2 2 0 1 1 0 4 2 2 0 0 1 0-4zm19 0a2 2 0 1 1 0 4 2 2 0 0 1 0-4zm19 0a2 2 0 1 1 0 4 2 2 0 0 1 0-4zm19 0a2 2 0 1 1 0 4 2 2 0 0 1 0-4zM491.5 396a2 2 0 1 1 0 4 2 2 0 0 1 0-4zm19 0a2 2 0 1 1 0 4 2 2 0 0 1 0-4zm19 0a2 2 0 1 1 0 4 2 2 0 0 1 0-4zm19 0a2 2 0 1 1 0 4 2 2 0 0 1 0-4zm9.5-9.5a2 2 0 1 1 0 4 2 2 0 0 1 0-4zm-76 0a2 2 0 1 1 0 4 2 2 0 0 1 0-4zm19 0a2 2 0 1 1 0 4 2 2 0 0 1 0-4zm19 0a2 2 0 1 1 0 4 2 2 0 0 1 0-4zm19 0a2 2 0 1 1 0 4 2 2 0 0 1 0-4zm-47.5-9.5a2 2 0 1 1 0 4 2 2 0 0 1 0-4zm19 0a2 2 0 1 1 0 4 2 2 0 0 1 0-4zm19 0a2 2 0 1 1 0 4 2 2 0 0 1 0-4zm19 0a2 2 0 1 1 0 4 2 2 0 0 1 0-4zm-9.5-9.5a2 2 0 1 1 0 4 2 2 0 0 1 0-4zm19 0a2 2 0 1 1 0 4 2 2 0 0 1 0-4zm-76 0a2 2 0 1 1 0 4 2 2 0 0 1 0-4zm19 0a2 2 0 1 1 0 4 2 2 0 0 1 0-4zm19 0a2 2 0 1 1 0 4 2 2 0 0 1 0-4zm9.5-9.5a2 2 0 1 1 0 4 2 2 0 0 1 0-4zm-38 0a2 2 0 1 1 0 4 2 2 0 0 1 0-4zm19 0a2 2 0 1 1 0 4 2 2 0 0 1 0-4zm38 0a2 2 0 1 1 0 4 2 2 0 0 1 0-4zm-9.5-9.5a2 2 0 1 1 0 4 2 2 0 0 1 0-4zm-57 0a2 2 0 1 1 0 4 2 2 0 0 1 0-4zm38 0a2 2 0 1 1 0 4 2 2 0 0 1 0-4zm-19 0a2 2 0 1 1 0 4 2 2 0 0 1 0-4zm57 0a2 2 0 1 1 0 4 2 2 0 0 1 0-4zm-66.5-9.5a2 2 0 1 1 0 4 2 2 0 0 1 0-4zm19 0a2 2 0 1 1 0 4 2 2 0 0 1 0-4zm19 0a2 2 0 1 1 0 4 2 2 0 0 1 0-4zm19 0a2 2 0 1 1 0 4 2 2 0 0 1 0-4zm-66.5-9.5a2 2 0 1 1 0 4 2 2 0 0 1 0-4zm19 0a2 2 0 1 1 0 4 2 2 0 0 1 0-4zm19 0a2 2 0 1 1 0 4 2 2 0 0 1 0-4zm19 0a2 2 0 1 1 0 4 2 2 0 0 1 0-4zm19 0a2 2 0 1 1 0 4 2 2 0 0 1 0-4zm-66.5-9.5a2 2 0 1 1 0 4 2 2 0 0 1 0-4zm19 0a2 2 0 1 1 0 4 2 2 0 0 1 0-4zm19 0a2 2 0 1 1 0 4 2 2 0 0 1 0-4zm19 0a2 2 0 1 1 0 4 2 2 0 0 1 0-4z" opacity=".2" transform="translate(20)"/>
    </g>
</svg>
